<svg width="70" height="71" viewBox="0 0 70 71" fill="none" xmlns="http://www.w3.org/2000/svg">
<path fill-rule="evenodd" clip-rule="evenodd" d="M64.7863 41.2197C64.6154 41.2197 45.5556 9.10231 45.5556 9.10231C46.6667 8.13967 47.0085 7.08951 47.0085 5.51427C47.0085 2.53882 44.7009 0.0884552 41.7949 0.000942025C36.1538 -0.0865712 35.9829 5.95184 36.1538 6.21438L14.7863 14.3531C13.8462 12.9529 12.4786 12.4278 10.7692 12.4278C7.77778 12.4278 5.38462 14.8782 5.38462 17.9411C5.38462 20.3915 6.66667 22.4918 8.80342 23.1919L3.93162 44.1951C1.53846 44.7202 0 46.908 0 49.5334C0 52.5964 2.39316 55.0467 5.38462 55.0467C7.00855 55.0467 8.46154 54.3466 9.57265 53.1214L29.5726 64.4982V64.6732C29.5726 67.7361 31.9658 70.1865 34.9573 70.1865C38.2051 70.1865 40.3419 67.2111 40 64.3231L61.2821 51.5462C62.2222 52.2463 63.4188 52.3338 64.6154 52.3338C67.6068 52.3338 70 49.8835 70 46.8205C69.9145 44.0201 67.4359 41.1321 64.7863 41.2197ZM41.453 2.62634C42.906 2.62634 44.1026 3.85152 44.1026 5.33925C44.1026 6.82697 42.906 8.05216 41.453 8.05216C40 8.05216 38.8034 6.82697 38.8034 5.33925C38.8034 3.93904 40 2.62634 41.453 2.62634ZM27.5214 25.3798L37.265 31.1556L40 10.6776L27.5214 25.3798ZM39.5727 35.5313L56.1538 45.0702L38.3761 45.7703L39.5727 35.5313ZM35.4701 46.2079L36.6667 34.0436L25.8974 27.6551L20.8547 33.9561L26.8376 46.6455L35.4701 46.2079ZM37.1795 8.75226C37.2473 8.85642 37.3286 8.9468 37.4073 9.03434C37.527 9.16745 37.6407 9.29398 37.6923 9.45237L25.3846 24.0671L15.812 18.4662V17.7661C15.812 17.5036 15.812 17.066 15.641 16.8035L37.1795 8.75226ZM23.8462 25.9048L15.0427 20.8291L14.8718 21.0041L19.4017 31.1556L23.8462 25.9048ZM7.86325 17.7661C7.86325 16.2784 9.05983 15.0532 10.5128 15.0532C11.9658 15.0532 13.1624 16.2784 13.1624 17.7661C13.1624 19.2538 11.9658 20.479 10.5128 20.479C9.05983 20.479 7.86325 19.3414 7.86325 17.7661ZM2.5641 49.4459C2.5641 50.9336 3.76068 52.1588 5.21368 52.1588C6.66667 52.1588 7.86325 50.9336 7.86325 49.4459C7.86325 47.9582 6.66667 46.733 5.21368 46.733C3.76068 46.733 2.5641 47.9582 2.5641 49.4459ZM8.20513 44.7202C7.77778 44.4576 7.4359 44.2826 6.83761 44.0201L11.7094 23.0169C11.9231 22.9294 12.094 22.9294 12.265 22.9294C12.4359 22.9294 12.6068 22.9294 12.8205 22.8419L17.6923 33.431L8.20513 44.7202ZM18.718 35.8813L9.91453 46.6455C10.0427 46.8643 10.0427 46.9736 10.0427 47.094C10.0427 47.2143 10.0427 47.3456 10.1709 47.6081L23.5897 46.9955L18.718 35.8813ZM30.0855 61.4352L10.9402 50.5836L24.8718 49.7959L30 61.0852C29.9601 61.2076 29.9946 61.2158 30.0341 61.2253C30.0793 61.236 30.1311 61.2484 30.0855 61.4352ZM34.9573 49.2709L27.8632 49.7084L32.3932 59.5099C32.6421 59.4079 32.8911 59.3357 33.1569 59.2585L33.157 59.2585L33.1571 59.2584C33.3476 59.2032 33.5467 59.1454 33.7607 59.0723L34.9573 49.2709ZM34.7863 67.2986C33.3333 67.2986 32.1368 66.0734 32.1368 64.5857C32.1368 63.0979 33.3333 61.8728 34.7863 61.8728C36.2393 61.8728 37.4359 63.0979 37.4359 64.5857C37.4359 66.0734 36.2393 67.2986 34.7863 67.2986ZM36.3248 59.3349C37.5214 59.7724 38.4615 60.5601 39.1453 61.5227L59.4872 49.3584C59.4017 49.1396 59.3376 48.9427 59.2735 48.7458C59.2094 48.5489 59.1453 48.352 59.0598 48.1332L37.6923 49.2709L36.3248 59.3349ZM59.5726 44.0201L39.8291 32.4683L42.6496 10.7651C42.8205 10.7651 42.906 10.7651 42.906 10.59L61.5385 41.8322C60.7692 42.2698 60 43.0574 59.5726 44.0201ZM61.6239 46.733C61.6239 48.2207 62.8205 49.4459 64.2735 49.4459C65.812 49.4459 67.0085 48.1332 66.9231 46.733C66.9231 45.2453 65.7265 44.0201 64.2735 44.0201C62.8205 44.0201 61.6239 45.2453 61.6239 46.733Z" fill="#A087FF"/>
</svg>
