<svg width="250" height="224" viewBox="0 0 250 224" fill="none" xmlns="http://www.w3.org/2000/svg">
<g id="Delegated" opacity="0.7">
<path id="Oval" d="M140.5 113C141.328 113 142 112.105 142 111C142 109.895 141.328 109 140.5 109C139.672 109 139 109.895 139 111C139 112.105 139.672 113 140.5 113Z" fill="#A087FF"/>
<path id="Oval_2" d="M148.5 113C149.328 113 150 112.105 150 111C150 109.895 149.328 109 148.5 109C147.672 109 147 109.895 147 111C147 112.105 147.672 113 148.5 113Z" fill="#A087FF"/>
<path id="Shape" d="M146 117.367C146 117.018 145.736 116.735 145.411 116.735H144.026C143.548 116.735 143.16 116.318 143.16 115.804V111.525C143.111 111.221 142.866 111 142.58 111C142.294 111 142.049 111.221 142 111.525V115.804C142 117.01 142.904 117.99 144.026 118H145.429C145.747 117.99 146 117.71 146 117.367Z" fill="#A087FF"/>
<path id="Shape_2" d="M150.76 119.058C150.454 118.921 150.086 119.034 149.93 119.313C148.932 120.712 147.322 121.642 145.52 121.861C145.22 121.91 145 122.15 145 122.431C145 122.712 145.22 122.952 145.52 123C147.737 122.749 149.711 121.587 150.889 119.839C151.077 119.588 151.021 119.246 150.76 119.058Z" fill="#A087FF"/>
<path id="Shape_3" fill-rule="evenodd" clip-rule="evenodd" d="M158.027 104.149L160.968 119.562C161.086 120.313 160.878 121.079 160.399 121.662C159.92 122.245 159.216 122.587 158.471 122.599H154.623C153.456 125.896 150.62 128.282 147.225 128.824C146.157 128.946 145.082 129.003 144.007 128.994H141.473C137.6 129.141 134.154 126.507 133.205 122.675H128.692C127.893 122.683 127.133 122.326 126.62 121.701C126.108 121.076 125.897 120.249 126.047 119.449L129.081 104.149C129.399 102.581 130.165 101.144 131.282 100.018C132.427 97.6699 134.725 96.1343 137.293 96H149.704C152.084 96.1023 154.248 97.4407 155.437 99.5466C156.774 100.748 157.685 102.366 158.027 104.149ZM141.491 127.655C143.338 127.793 145.193 127.793 147.04 127.655H147.059C150.282 127.098 152.883 124.659 153.699 121.429C152.501 117.649 151.95 113.686 152.071 109.715C152.153 108.267 151.978 106.816 151.553 105.432H135.832C135.392 106.813 135.21 108.266 135.295 109.715C135.414 113.286 134.964 116.854 133.964 120.279C134.296 122.844 135.721 127.655 141.491 127.655Z" fill="#A087FF"/>
<path id="Shape_4" fill-rule="evenodd" clip-rule="evenodd" d="M122.453 107.88H121.105V104.448C120.761 102.645 119.201 101.325 117.359 101.278C117.359 101.278 117.247 96 113.108 96H92V103.162C92.4149 104.503 93.4651 105.556 94.8094 105.978C94.8011 106.121 94.8011 106.264 94.8094 106.407V107.899H93.1986C92.8935 107.951 92.6707 108.215 92.6707 108.524C92.6707 108.832 92.8935 109.096 93.1986 109.148H94.2849V111.349C94.2846 111.937 94.4678 112.51 94.8094 112.99V120.003C94.8094 123.733 96.6823 129.999 103.762 129.999H106.328C107.416 130.008 108.505 129.951 109.586 129.831C110.916 129.664 117.471 128.339 118.183 118.641C119.547 118.595 120.807 117.902 121.573 116.776C122.329 115.169 122.157 113.28 121.124 111.834V109.148H122.472C122.777 109.096 123 108.832 123 108.524C123 108.215 122.777 107.951 122.472 107.899L122.453 107.88ZM112.658 109.521V111.349C112.658 112.235 111.937 112.953 111.047 112.953H110.092C110.304 112.577 110.414 112.153 110.411 111.722C110.411 110.659 109.811 109.857 109.081 109.857C108.35 109.857 107.751 110.715 107.751 111.722C107.748 112.153 107.858 112.577 108.069 112.953H107.358C106.468 112.953 105.747 112.235 105.747 111.349V109.148H112.546L112.658 109.521ZM96.0455 106.239V106.388L96.0829 107.806H112.302C112.24 107.285 112.24 106.759 112.302 106.239H97.0568C96.7201 106.261 96.3822 106.261 96.0455 106.239ZM96.0455 109.13H102.451V111.349C102.453 111.372 102.455 111.394 102.457 111.417L102.46 111.468C102.463 111.547 102.46 111.625 102.451 111.703C102.381 111.802 102.342 111.919 102.338 112.039C102.163 112.416 101.847 112.71 101.458 112.86C101.63 112.511 101.72 112.129 101.72 111.741C101.72 110.677 101.121 109.876 100.391 109.876C99.6602 109.876 99.0608 110.734 99.0608 111.741C99.0578 112.172 99.1675 112.596 99.3792 112.972H97.1317C96.7346 112.966 96.3539 112.813 96.0642 112.543L96.0455 109.13ZM117.49 117.41C118.617 117.49 119.708 116.999 120.393 116.105L120.468 116.124C120.926 115.07 120.842 113.86 120.243 112.878H118.764C117.01 113.001 115.276 112.455 113.913 111.349C113.913 112.904 112.664 114.172 111.104 114.203H107.358C105.775 114.203 104.492 112.925 104.492 111.349V109.148H103.743V111.293C103.738 111.605 103.681 111.914 103.575 112.207V116.329C103.575 116.844 103.994 117.261 104.511 117.261H106.028C106.333 117.314 106.556 117.578 106.556 117.886C106.556 118.194 106.333 118.458 106.028 118.511H104.511C103.29 118.511 102.301 117.526 102.301 116.31V113.736C101.866 114 101.368 114.142 100.859 114.147H97.113C96.7473 114.147 96.3848 114.078 96.0455 113.941V119.835C96.0455 120.73 96.2889 128.582 103.781 128.582C105.651 128.718 107.529 128.718 109.399 128.582C110.542 128.433 116.441 127.22 116.891 118.007V117.41H117.49Z" fill="#A087FF"/>
<path id="Shape_5" d="M110.76 119.058C110.454 118.921 110.086 119.034 109.93 119.313C108.932 120.712 107.322 121.642 105.52 121.861C105.22 121.91 105 122.15 105 122.431C105 122.712 105.22 122.952 105.52 123C107.737 122.749 109.711 121.587 110.889 119.839C111.077 119.588 111.021 119.246 110.76 119.058Z" fill="#A087FF"/>
<path id="Shape_6" d="M125 163C97.3858 163 75 140.614 75 113C75 85.3858 97.3858 63 125 63C152.614 63 175 85.3858 175 113C174.939 140.589 152.589 162.939 125 163Z" fill="#A087FF" fill-opacity="0.2" stroke="#A087FF"/>
<path id="Shape_7" d="M175 203.598C175 203.355 174.808 203.159 174.571 203.159H173.518C173.347 203.159 173.184 203.09 173.063 202.966C172.943 202.843 172.875 202.675 172.875 202.501V199.448C172.875 199.201 172.679 199 172.438 199C172.196 199 172 199.201 172 199.448V202.446C172 203.304 172.68 204 173.518 204H174.571C174.795 204.001 174.981 203.826 175 203.598Z" fill="#A087FF"/>
<path id="Shape_8" d="M177.852 205.05C177.755 204.995 177.641 204.985 177.536 205.022C177.432 205.058 177.346 205.139 177.3 205.244C176.644 206.296 175.586 206.993 174.402 207.152C174.18 207.152 174 207.342 174 207.576C174 207.81 174.18 208 174.402 208C175.853 207.812 177.146 206.942 177.919 205.633C178.049 205.451 178.019 205.194 177.852 205.05Z" fill="#A087FF"/>
<path id="Shape_9" fill-rule="evenodd" clip-rule="evenodd" d="M184.416 195.433V199.204C185.09 200.216 185.188 201.507 184.672 202.609C184.139 203.422 183.246 203.927 182.274 203.963C181.707 210.845 177.15 211.779 176.217 211.889C175.457 211.971 174.693 212.008 173.929 211.999H172.099C167.122 211.999 165.786 207.551 165.786 204.915V195.488H161.668C161.299 195.488 161 195.189 161 194.82C161 194.451 161.299 194.152 161.668 194.152H165.786V193.2C165.772 192.235 165.953 191.276 166.316 190.381V190.235C167.429 187.708 169.924 186.073 172.685 186.062H173.673C173.661 186.006 173.656 185.949 173.657 185.892C173.658 185.845 173.663 185.797 173.673 185.75C173.673 185.336 174.009 185 174.424 185H176.016C176.43 185 176.766 185.336 176.766 185.75C176.788 185.853 176.788 185.959 176.766 186.062H177.425C179.298 186.081 181.087 186.844 182.398 188.183C183.71 189.521 184.435 191.326 184.416 193.2V194.335C184.6 194.457 184.71 194.663 184.71 194.884C184.71 195.105 184.6 195.311 184.416 195.433ZM181.927 203.194C182.724 203.25 183.495 202.899 183.976 202.261L183.958 202.352C184.323 201.564 184.254 200.643 183.775 199.918H182.732C178.139 199.918 178.139 196.404 178.139 195.488H166.737V204.915C166.737 205.611 166.939 211.102 172.227 211.102C173.549 211.199 174.877 211.199 176.199 211.102L176.202 211.101C177.05 210.935 181.195 210.124 181.506 203.615V203.194H181.927Z" fill="#A087FF"/>
<path id="Oval_3" d="M170 201C170.552 201 171 200.328 171 199.5C171 198.672 170.552 198 170 198C169.448 198 169 198.672 169 199.5C169 200.328 169.448 201 170 201Z" fill="#A087FF"/>
<path id="Oval_4" d="M177 201C177.552 201 178 200.328 178 199.5C178 198.672 177.552 198 177 198C176.448 198 176 198.672 176 199.5C176 200.328 176.448 201 177 201Z" fill="#A087FF"/>
<path id="Shape_10" fill-rule="evenodd" clip-rule="evenodd" d="M149.085 200.569C150.163 213.815 161.233 224.012 174.522 224C177.256 224.001 179.973 223.558 182.566 222.69C195.172 218.485 202.435 205.302 199.254 192.399C196.074 179.495 183.516 171.198 170.4 173.334C157.284 175.47 148.008 187.323 149.085 200.569ZM155.145 184.522C159.639 178.294 166.843 174.595 174.522 174.571L174.577 174.516C186.835 174.516 197.12 183.759 198.425 195.948C199.73 208.136 191.635 219.347 179.655 221.943C167.676 224.539 155.667 217.683 151.81 206.048C149.412 198.752 150.652 190.749 155.145 184.522Z" fill="#A087FF"/>
<path id="Shape_11" d="M76 30.566C76 30.3263 75.8081 30.132 75.5714 30.132H74.5179C74.1628 30.132 73.875 29.8405 73.875 29.481V26.443C73.875 26.1984 73.6791 26 73.4375 26C73.1959 26 73 26.1984 73 26.443V29.4629C73 30.3118 73.6796 31 74.5179 31H75.5714C75.8081 31 76 30.8057 76 30.566Z" fill="#A087FF"/>
<path id="Shape_12" d="M78.8894 31.05C78.7925 30.9951 78.6787 30.9849 78.5746 31.0219C78.4704 31.0588 78.3851 31.1396 78.3385 31.2454C77.6708 32.3098 76.5955 33.0058 75.4006 33.147C75.1794 33.147 75 33.3379 75 33.5735C75 33.809 75.1794 34 75.4006 34C76.847 33.8106 78.1354 32.9353 78.9061 31.6186C79.0374 31.4522 79.0302 31.2073 78.8894 31.05Z" fill="#A087FF"/>
<path id="Shape_13" fill-rule="evenodd" clip-rule="evenodd" d="M85.4323 22.4038V26.177C86.1015 27.2007 86.1848 28.5012 85.6517 29.6023C85.1195 30.416 84.2268 30.9211 83.2564 30.9578C82.6895 37.8447 78.1366 38.7788 77.204 38.8889C76.445 38.9707 75.6818 39.0076 74.9184 38.9988H73.0899C68.1164 38.9988 66.7816 34.5479 66.7816 31.9102V22.4771H62.6674C62.2988 22.4771 62 22.1777 62 21.8086C62 21.4392 62.2988 21.1399 62.6674 21.1399H66.7816V20.1875C66.782 19.2249 66.9747 18.272 67.3484 17.385V17.2385C68.4603 14.71 70.9534 13.0737 73.7116 13.0623H74.699C74.6772 12.9597 74.6772 12.8535 74.699 12.751C74.699 12.3362 75.0346 12 75.4487 12H77.0395C77.4535 12 77.7892 12.3362 77.7892 12.751C77.8009 12.8066 77.8063 12.8633 77.8053 12.9197C77.8045 12.9675 77.7991 13.0154 77.7892 13.0623H78.4474C80.3194 13.0818 82.1069 13.8452 83.4169 15.1848C84.7268 16.5247 85.4518 18.3306 85.4323 20.2058V21.3049C85.6162 21.427 85.7267 21.6333 85.7267 21.8542C85.7267 22.0754 85.6162 22.2817 85.4323 22.4038ZM82.9456 30.1699C83.742 30.2258 84.5127 29.8745 84.9935 29.2358C85.2998 28.4849 85.2249 27.6321 84.7924 26.9463H83.7501C79.1606 26.9463 79.1606 23.4294 79.1606 22.5137H67.769V31.8918C67.769 32.5879 67.9701 38.0828 73.2545 38.0828C74.5753 38.1802 75.9015 38.1802 77.2223 38.0828L77.2252 38.082C78.0728 37.916 82.2145 37.1047 82.525 30.5913V30.1699H82.9456Z" fill="#A087FF"/>
<path id="Oval_5" d="M71 28C71.5523 28 72 27.3284 72 26.5C72 25.6716 71.5523 25 71 25C70.4477 25 70 25.6716 70 26.5C70 27.3284 70.4477 28 71 28Z" fill="#A087FF"/>
<path id="Oval_6" d="M78 28C78.5523 28 79 27.3284 79 26.5C79 25.6716 78.5523 25 78 25C77.4477 25 77 25.6716 77 26.5C77 27.3284 77.4477 28 78 28Z" fill="#A087FF"/>
<path id="Shape_14" fill-rule="evenodd" clip-rule="evenodd" d="M50.0851 27.5691C51.1626 40.8149 62.2326 51.0122 75.5217 51C78.2561 51.0005 80.9726 50.5581 83.5657 49.6899C96.172 45.4851 103.435 32.3022 100.254 19.3989C97.0739 6.49536 84.5165 -1.80151 71.4002 0.334473C58.2839 2.47046 49.0075 14.323 50.0851 27.5691ZM56.1024 11.5305C60.6028 5.28735 67.8257 1.58301 75.5217 1.57129C87.7839 1.55249 98.0855 10.7866 99.4037 22.9785C100.722 35.1704 92.6319 46.3931 80.649 48.9958C68.6661 51.5986 56.6498 44.7432 52.7919 33.103C50.3706 25.7976 51.602 17.7737 56.1024 11.5305Z" fill="#A087FF"/>
<path id="Shape_15" d="M25.5638 117.071H24.5134C24.3527 117.082 24.1949 117.022 24.0746 116.906C23.9543 116.79 23.8816 116.627 23.8724 116.452V113.474C23.8724 113.212 23.6771 113 23.4362 113C23.1953 113 23 113.212 23 113.474V116.452C23.029 117.331 23.7039 118.021 24.5134 117.999H25.5638C25.8047 117.999 26 117.787 26 117.526C26 117.264 25.8047 117.052 25.5638 117.052V117.071Z" fill="#A087FF"/>
<path id="Oval_7" d="M21 115C21.5523 115 22 114.328 22 113.5C22 112.672 21.5523 112 21 112C20.4477 112 20 112.672 20 113.5C20 114.328 20.4477 115 21 115Z" fill="#A087FF"/>
<path id="Oval_8" d="M28 115C28.5523 115 29 114.328 29 113.5C29 112.672 28.5523 112 28 112C27.4477 112 27 112.672 27 113.5C27 114.328 27.4477 115 28 115Z" fill="#A087FF"/>
<path id="Shape_16" fill-rule="evenodd" clip-rule="evenodd" d="M36.3985 108.093V113.485C37.1007 114.539 37.1946 115.883 36.6458 117.023C36.091 117.92 35.117 118.475 34.0589 118.499V119.256V124.402C34.0485 126.937 31.9852 128.99 29.4368 129H21.6763C19.128 128.99 17.0647 126.937 17.0543 124.402V120.372V119.54V109.625C17.048 109.518 17.048 109.411 17.0543 109.303C16.0703 108.994 15.3022 108.223 15 107.241V102H30.54C33.6404 102 33.6404 105.784 33.6404 105.784C34.9939 105.805 36.146 106.77 36.3985 108.093ZM25.3664 123.305C27.0908 123.093 28.6242 122.111 29.532 120.637L29.7031 120.656C29.8153 120.436 29.8011 120.174 29.6658 119.967C29.5306 119.761 29.295 119.642 29.0477 119.655C28.8004 119.668 28.5789 119.812 28.4668 120.031C27.7548 121.076 26.6252 121.766 25.3664 121.924C24.9829 121.924 24.6721 122.233 24.6721 122.614C24.6721 122.996 24.9829 123.305 25.3664 123.305ZM32.1758 118.745H17.9673V109.455V109.36H18.7091H29.8363C29.5522 111.142 30.4599 112.902 32.0807 113.712L32.1758 118.745ZM33.8497 117.515C34.6782 117.573 35.4799 117.21 35.98 116.55L35.8469 116.626C36.266 115.833 36.2444 114.882 35.7898 114.109H34.7056C34.3383 114.135 33.9697 114.135 33.6024 114.109V117.515H33.8497Z" fill="#A087FF"/>
<path id="Shape_17" fill-rule="evenodd" clip-rule="evenodd" d="M1.28485 122.487C4.75681 132.923 14.5073 139.973 25.5045 140C36.561 139.998 46.3564 132.87 49.76 122.35C53.1636 111.83 49.3998 100.314 40.4399 93.8357C31.4801 87.3569 19.3661 87.3914 10.4431 93.9207C1.52017 100.45 -2.17834 111.986 1.28485 122.487ZM23.8004 138.478C14.0782 137.773 5.73923 131.278 2.67465 122.024C-1.50247 109.41 5.3208 95.7961 17.9254 91.5945C27.1729 88.5117 37.3666 91.3064 43.7497 98.6738C50.1327 106.042 51.447 116.53 47.0792 125.245C42.7115 133.96 33.5225 139.183 23.8004 138.478Z" fill="#A087FF"/>
<path id="Shape_18" d="M74.9996 203.548C74.9996 203.308 74.8078 203.114 74.5711 203.114H73.5177C73.1627 203.114 72.8749 202.822 72.8749 202.463V199.443C72.8749 199.198 72.679 199 72.4374 199C72.1959 199 72 199.198 72 199.443V202.463C72 203.312 72.6795 204 73.5177 204H74.5711C74.6879 204 74.7997 203.952 74.8806 203.867C74.9615 203.781 75.0045 203.666 74.9996 203.548Z" fill="#A087FF"/>
<path id="Shape_19" d="M77.8524 204.05C77.7552 203.995 77.641 203.985 77.5365 204.022C77.432 204.058 77.3464 204.139 77.2996 204.244C76.6442 205.296 75.5856 205.993 74.402 206.152C74.18 206.152 74 206.342 74 206.576C74 206.81 74.18 207 74.402 207C75.8533 206.812 77.1461 205.942 77.9194 204.633C78.0489 204.451 78.0193 204.194 77.8524 204.05Z" fill="#A087FF"/>
<path id="Shape_20" fill-rule="evenodd" clip-rule="evenodd" d="M86.2819 193.881V199.086C87.0776 200.11 87.2236 201.471 86.6619 202.629C86.1088 203.441 85.1812 203.944 84.1727 203.981C83.5836 210.848 78.8522 211.78 77.8831 211.889C77.0943 211.971 76.3012 212.007 75.5079 211.999H73.6078C68.4393 211.999 67.0522 207.561 67.0522 204.931V195.36C67.0459 195.257 67.0459 195.153 67.0522 195.05C66.0692 194.751 65.3019 194.007 65 193.059V188H80.4294C83.5266 188 83.5266 191.653 83.5266 191.653C84.8787 191.673 86.0296 192.604 86.2819 193.881ZM83.6976 203.068C84.5253 203.124 85.3262 202.773 85.8258 202.136C86.1927 201.387 86.15 200.511 85.7118 199.798H84.6287C79.0992 199.798 79.8783 195.159 79.8783 195.159H68.7623H68.0213V195.251V204.784C68.0213 205.479 68.2303 210.958 73.7218 210.958C75.0943 211.055 76.4726 211.055 77.8451 210.958L77.8486 210.957C78.7306 210.791 83.033 209.981 83.3556 203.488V203.068H83.6976Z" fill="#A087FF"/>
<path id="Oval_9" d="M71 201C71.5523 201 72 200.328 72 199.5C72 198.672 71.5523 198 71 198C70.4477 198 70 198.672 70 199.5C70 200.328 70.4477 201 71 201Z" fill="#A087FF"/>
<path id="Oval_10" d="M77 201C77.5523 201 78 200.328 78 199.5C78 198.672 77.5523 198 77 198C76.4477 198 76 198.672 76 199.5C76 200.328 76.4477 201 77 201Z" fill="#A087FF"/>
<path id="Shape_21" fill-rule="evenodd" clip-rule="evenodd" d="M50.0849 200.568C51.1616 213.813 62.2302 224.011 75.5187 224C78.2552 224.001 80.9737 223.558 83.5685 222.689C96.1738 218.483 103.435 205.3 100.254 192.397C97.0729 179.495 84.5159 171.198 71.4002 173.334C58.2845 175.47 49.0082 187.322 50.0849 200.568ZM56.1284 184.493C60.6251 178.261 67.8339 174.559 75.5187 174.536L75.5741 174.48C87.8405 174.48 98.133 183.73 99.4391 195.927C100.745 208.125 92.6444 219.344 80.6561 221.942C68.6678 224.539 56.6501 217.679 52.7909 206.035C50.3909 198.734 51.6317 190.725 56.1284 184.493Z" fill="#A087FF"/>
<path id="Oval_11" d="M221.98 116C222.521 116 222.96 115.328 222.96 114.5C222.96 113.672 222.521 113 221.98 113C221.439 113 221 113.672 221 114.5C221 115.328 221.439 116 221.98 116Z" fill="#A087FF"/>
<path id="Oval_12" d="M227.98 116C228.521 116 228.96 115.328 228.96 114.5C228.96 113.672 228.521 113 227.98 113C227.439 113 227 113.672 227 114.5C227 115.328 227.439 116 227.98 116Z" fill="#A087FF"/>
<path id="Shape_22" d="M225.996 119.502C225.996 119.259 225.801 119.061 225.56 119.061H224.517C224.161 119.061 223.872 118.77 223.872 118.41V115.441C223.872 115.197 223.677 115 223.436 115C223.195 115 223 115.197 223 115.441V118.467C223 119.314 223.679 120 224.517 120H225.579C225.702 119.996 225.817 119.939 225.897 119.844C225.976 119.749 226.012 119.625 225.996 119.502Z" fill="#A087FF"/>
<path id="Shape_23" d="M228.845 120.048C228.748 119.995 228.636 119.986 228.533 120.021C228.43 120.057 228.345 120.134 228.295 120.237C227.634 121.284 226.581 121.974 225.408 122.13C225.182 122.13 225 122.324 225 122.565C225 122.805 225.182 123 225.408 123C226.87 122.817 228.174 121.932 228.951 120.597C229.045 120.411 229 120.179 228.845 120.048Z" fill="#A087FF"/>
<path id="Shape_24" fill-rule="evenodd" clip-rule="evenodd" d="M234.98 109.435L236.989 119.694C237.098 120.704 236.367 121.611 235.352 121.728H232.543C231.748 123.929 229.808 125.524 227.483 125.887C226.754 125.967 226.021 126.004 225.287 125.998H223.557C220.93 126.074 218.605 124.318 217.976 121.783H214.888C214.334 121.791 213.806 121.554 213.446 121.136C213.087 120.718 212.933 120.162 213.027 119.62L215.241 109.416C215.459 108.371 215.983 107.412 216.748 106.662C217.506 105.153 219 104.144 220.692 104H229.194C230.824 104.069 232.305 104.961 233.12 106.366C234.064 107.156 234.719 108.236 234.98 109.435ZM223.743 125.092C224.982 125.18 226.225 125.18 227.464 125.092C229.681 124.739 231.47 123.1 232.003 120.933C231.184 118.415 230.806 115.776 230.887 113.132C230.975 112.169 230.887 111.198 230.627 110.267H219.873C219.569 111.19 219.443 112.162 219.501 113.132C219.582 115.513 219.275 117.891 218.59 120.175C218.671 122.936 220.963 125.123 223.743 125.092Z" fill="#A087FF"/>
<path id="Shape_25" fill-rule="evenodd" clip-rule="evenodd" d="M199.085 116.569C200.163 129.815 211.233 140.012 224.522 140C227.256 140 229.973 139.558 232.566 138.69C245.172 134.485 252.435 121.302 249.254 108.399C246.074 95.4954 233.516 87.1985 220.4 89.3345C207.284 91.4705 198.008 103.323 199.085 116.569ZM201.704 107.188C204.901 97.2856 214.117 90.5742 224.522 90.5713H224.54C234.878 90.542 244.061 97.1704 247.288 106.992C250.57 116.867 247.111 127.731 238.724 133.89C230.338 140.049 218.937 140.097 210.498 134.011C202.059 127.924 198.507 117.09 201.704 107.188Z" fill="#A087FF"/>
<path id="Shape_26" fill-rule="evenodd" clip-rule="evenodd" d="M187.463 22.0889H186.426V19.4631C186.163 18.0791 184.957 17.0674 183.537 17.0396C183.537 17.0396 183.537 13 180.278 13H164V18.5083C164.322 19.5339 165.132 20.3372 166.167 20.6565C166.163 20.7244 166.161 20.7925 166.162 20.8604C166.163 20.9026 166.164 20.9448 166.167 20.9871V22.1255H164.926C164.66 22.1255 164.444 22.3394 164.444 22.6028C164.444 22.8665 164.66 23.0803 164.926 23.0803H165.852V24.7329C165.854 25.1807 165.997 25.6169 166.259 25.9814V31.3428C166.259 34.1887 167.722 38.9995 173.148 38.9995H175.111C175.946 39.0056 176.781 38.9626 177.611 38.8708C178.63 38.7424 183.667 37.7324 184.222 30.3147C185.281 30.2722 186.254 29.7249 186.833 28.8457C187.413 27.6143 187.279 26.1687 186.482 25.0632V23.0435H187.518C187.784 23.0435 188 22.8298 188 22.5662C188 22.3025 187.784 22.0889 187.518 22.0889H187.463ZM179.926 23.3557V24.7146C179.916 25.3796 179.375 25.9165 178.704 25.9263H177.963C178.126 25.6411 178.209 25.3179 178.204 24.99C178.204 24.1636 177.741 23.5027 177.167 23.5027C176.593 23.5027 176.13 24.1636 176.13 24.99C176.124 25.3179 176.207 25.6411 176.37 25.9263H175.815C175.144 25.9165 174.603 25.3796 174.593 24.7146V23.062H179.815L179.926 23.3557ZM167.167 20.8403V20.9504V22.0337H179.63C179.582 21.6375 179.582 21.2368 179.63 20.8403H167.944C167.844 20.8469 167.742 20.8508 167.641 20.8523C167.483 20.8545 167.325 20.8506 167.167 20.8403ZM167.167 23.062H172.074V24.7146C172.085 24.8059 172.085 24.8984 172.074 24.99C172.069 25.009 172.064 25.0281 172.061 25.0474C172.051 25.1138 172.055 25.1821 172.074 25.2471C171.936 25.5354 171.69 25.7593 171.389 25.8713C171.523 25.603 171.593 25.3076 171.593 25.0083C171.593 24.1821 171.13 23.521 170.556 23.521C169.982 23.521 169.519 24.1821 169.519 25.0083C169.513 25.3362 169.596 25.6594 169.759 25.9448H168.093C167.785 25.9482 167.488 25.8369 167.259 25.6326L167.167 23.062ZM183.722 29.4148C184.587 29.4707 185.422 29.0911 185.944 28.405V28.3865C186.295 27.582 186.233 26.6589 185.778 25.9077H184.63C183.292 26.001 181.968 25.5876 180.926 24.751C180.896 25.9363 179.918 26.8813 178.722 26.8809H175.87C174.653 26.8809 173.667 25.9026 173.667 24.696V23.0435H173.093V24.696C173.089 24.9341 173.045 25.1699 172.963 25.3938V28.4968C172.963 28.8921 173.286 29.2129 173.685 29.2129H174.852C175.118 29.2129 175.333 29.4265 175.333 29.6902C175.333 29.9539 175.118 30.1675 174.852 30.1675H173.685C172.759 30.1577 172.01 29.4153 172 28.4968V26.532C171.665 26.7339 171.281 26.8418 170.889 26.8442H168.037C167.751 26.8438 167.468 26.7876 167.204 26.679V31.2693C167.204 31.967 167.37 37.9712 173.148 37.9712C174.591 38.0759 176.039 38.0759 177.481 37.9712C178.389 37.8425 182.907 36.9246 183.259 29.8738V29.4148H183.722Z" fill="#A087FF"/>
<path id="Shape_27" d="M179.812 31.048C179.565 30.9399 179.26 31.0205 179.131 31.2284C178.313 32.2825 176.989 32.9834 175.507 33.1472C175.227 33.1472 175 33.3381 175 33.5736C175 33.8091 175.227 34 175.507 34C177.325 33.8067 178.943 32.933 179.91 31.622C180.061 31.4387 180.018 31.1885 179.812 31.048Z" fill="#A087FF"/>
<path id="Shape_28" fill-rule="evenodd" clip-rule="evenodd" d="M149.085 27.5691C150.163 40.8149 161.233 51.0122 174.522 51C177.256 51.0005 179.973 50.5581 182.566 49.6899C195.172 45.4851 202.435 32.3022 199.254 19.3989C196.074 6.49536 183.516 -1.80151 170.4 0.334473C157.284 2.47046 148.008 14.323 149.085 27.5691ZM155.102 11.5305C159.603 5.28735 166.826 1.58301 174.522 1.57129L174.54 1.58984C186.803 1.57739 197.101 10.8181 198.411 23.0117C199.722 35.2051 191.624 46.4236 179.638 49.0181C167.653 51.6123 155.641 44.7473 151.792 33.103C149.371 25.7976 150.602 17.7737 155.102 11.5305Z" fill="#A087FF"/>
<path id="Shape_29" d="M139 29H110" stroke="white" stroke-dasharray="1"/>
<path id="Oval_13" d="M139.5 33C141.433 33 143 31.433 143 29.5C143 27.567 141.433 26 139.5 26C137.567 26 136 27.567 136 29.5C136 31.433 137.567 33 139.5 33Z" fill="#A087FF"/>
<path id="Oval_14" d="M110.5 33C112.433 33 114 31.433 114 29.5C114 27.567 112.433 26 110.5 26C108.567 26 107 27.567 107 29.5C107 31.433 108.567 33 110.5 33Z" fill="#A087FF"/>
<path id="Shape_30" d="M207 85L190 56" stroke="#A087FF" stroke-dasharray="1"/>
<path id="Oval_15" d="M208.25 88.5312C209.924 87.5647 210.498 85.4241 209.531 83.7501C208.565 82.0761 206.424 81.5025 204.75 82.469C203.076 83.4355 202.502 85.5761 203.469 87.2501C204.435 88.9241 206.576 89.4977 208.25 88.5312Z" fill="#A087FF"/>
<path id="Oval_16" d="M192.25 59.5312C193.924 58.5647 194.498 56.4241 193.531 54.7501C192.565 53.0761 190.424 52.5025 188.75 53.469C187.076 54.4355 186.502 56.5761 187.469 58.2501C188.435 59.9241 190.576 60.4977 192.25 59.5312Z" fill="#A087FF"/>
<path id="Shape_31" d="M193 169L208 143" stroke="#A087FF" stroke-dasharray="1"/>
<path id="Oval_17" d="M196.531 170.25C197.498 168.576 196.924 166.435 195.25 165.469C193.576 164.502 191.435 165.076 190.469 166.75C189.502 168.424 190.076 170.565 191.75 171.531C193.424 172.498 195.565 171.924 196.531 170.25Z" fill="#A087FF"/>
<path id="Oval_18" d="M211.531 144.25C212.498 142.576 211.924 140.435 210.25 139.469C208.576 138.502 206.435 139.076 205.469 140.75C204.502 142.424 205.076 144.565 206.75 145.531C208.424 146.498 210.565 145.924 211.531 144.25Z" fill="#A087FF"/>
<path id="Shape_32" d="M110 202H139" stroke="#A087FF" stroke-dasharray="1"/>
<path id="Oval_19" d="M110.5 205C112.433 205 114 203.433 114 201.5C114 199.567 112.433 198 110.5 198C108.567 198 107 199.567 107 201.5C107 203.433 108.567 205 110.5 205Z" fill="#A087FF"/>
<path id="Oval_20" d="M139.5 205C141.433 205 143 203.433 143 201.5C143 199.567 141.433 198 139.5 198C137.567 198 136 199.567 136 201.5C136 203.433 137.567 205 139.5 205Z" fill="#A087FF"/>
<path id="Shape_33" d="M42 145L56 169" stroke="#A087FF" stroke-dasharray="1"/>
<path id="Oval_21" d="M44.25 148.531C45.924 147.565 46.4976 145.424 45.5311 143.75C44.5646 142.076 42.424 141.502 40.75 142.469C39.076 143.435 38.5024 145.576 39.4689 147.25C40.4354 148.924 42.576 149.498 44.25 148.531Z" fill="#A087FF"/>
<path id="Oval_22" d="M58.25 171.531C59.924 170.565 60.4976 168.424 59.5311 166.75C58.5646 165.076 56.424 164.502 54.75 165.469C53.076 166.435 52.5024 168.576 53.4689 170.25C54.4354 171.924 56.576 172.498 58.25 171.531Z" fill="#A087FF"/>
<path id="Shape_34" d="M59 55L42 85" stroke="#A087FF" stroke-dasharray="1"/>
<path id="Oval_23" d="M62.5311 57.2499C63.4976 55.5759 62.924 53.4353 61.25 52.4688C59.576 51.5023 57.4354 52.0759 56.4689 53.7499C55.5024 55.4239 56.076 57.5645 57.75 58.531C59.424 59.4975 61.5646 58.9239 62.5311 57.2499Z" fill="#A087FF"/>
<path id="Oval_24" d="M45.5311 87.2499C46.4976 85.5759 45.924 83.4353 44.25 82.4688C42.576 81.5023 40.4354 82.0759 39.4689 83.7499C38.5024 85.4239 39.076 87.5645 40.75 88.531C42.424 89.4975 44.5646 88.9239 45.5311 87.2499Z" fill="#A087FF"/>
<path id="Shape_35" d="M186.954 40.5H186.969L186.984 40.4991C188.364 40.416 189.434 39.2618 189.41 37.8804V31.2155H189.584L189.494 30.6384C189.399 30.0279 188.873 29.5785 188.255 29.5785C187.977 29.5785 187.718 29.6695 187.508 29.8254V29.2278C187.508 28.5402 186.95 27.9839 186.263 27.9839C185.945 27.9839 185.654 28.1033 185.434 28.2999C185.255 27.8319 184.801 27.5 184.271 27.5C183.584 27.5 183.026 28.0563 183.026 28.7438V28.9858C182.818 28.8294 182.559 28.7367 182.279 28.7367C181.592 28.7367 181.034 29.293 181.034 29.9806V34.0984L180.546 33.5409L180.506 33.4951L180.456 33.4603C179.948 33.1046 179.293 33.086 178.858 33.4904C178.406 33.9108 178.397 34.5825 178.749 35.1947L178.749 35.1947L178.75 35.1968C178.92 35.4877 179.624 36.5861 180.275 37.5938C180.602 38.1016 180.92 38.5921 181.156 38.9555L181.439 39.3918L181.518 39.5129L181.538 39.5447L181.544 39.5528L181.545 39.5549L181.545 39.5554L181.545 39.5555L181.965 39.283L181.545 39.5556L181.564 39.5844L181.587 39.6103C182.027 40.1194 182.649 40.4376 183.32 40.498L183.342 40.5H183.364H186.954Z" fill="#03062C" stroke="#A087FF"/>
<path id="Shape_36" d="M233.954 129.5H233.969L233.984 129.499C235.364 129.416 236.434 128.262 236.41 126.88V120.215H236.584L236.494 119.638C236.399 119.028 235.873 118.578 235.255 118.578C234.977 118.578 234.718 118.67 234.508 118.825V118.228C234.508 117.54 233.95 116.984 233.263 116.984C232.945 116.984 232.654 117.103 232.434 117.3C232.255 116.832 231.801 116.5 231.271 116.5C230.584 116.5 230.026 117.056 230.026 117.744V117.986C229.818 117.829 229.559 117.737 229.279 117.737C228.592 117.737 228.034 118.293 228.034 118.981V123.098L227.546 122.541L227.506 122.495L227.456 122.46C226.948 122.105 226.293 122.086 225.858 122.49C225.406 122.911 225.397 123.583 225.749 124.195L225.749 124.195L225.75 124.197C225.92 124.488 226.624 125.586 227.275 126.594C227.602 127.102 227.92 127.592 228.156 127.955L228.439 128.392L228.518 128.513L228.538 128.545L228.544 128.553L228.545 128.555L228.545 128.555L228.545 128.556L228.965 128.283L228.545 128.556L228.564 128.584L228.587 128.61C229.027 129.119 229.649 129.438 230.32 129.498L230.342 129.5H230.364H233.954Z" fill="#03062C" stroke="#A087FF"/>
<path id="Shape_37" d="M184.954 213.5H184.969L184.984 213.499C186.363 213.416 187.434 212.266 187.41 210.887V204.153L187.568 204.122L187.494 203.648C187.399 203.038 186.871 202.59 186.255 202.59C185.978 202.59 185.718 202.681 185.508 202.837V202.242C185.508 201.554 184.948 201 184.263 201C183.948 201 183.659 201.118 183.439 201.311C183.263 200.837 182.805 200.5 182.271 200.5C181.585 200.5 181.026 201.054 181.026 201.742V201.982C180.818 201.825 180.559 201.733 180.279 201.733C179.593 201.733 179.034 202.287 179.034 202.975V207.115L178.546 206.559L178.506 206.513L178.456 206.478C177.947 206.124 177.294 206.105 176.859 206.508C176.406 206.928 176.397 207.599 176.75 208.21L176.75 208.21L176.751 208.212C176.92 208.502 177.625 209.598 178.275 210.602C178.603 211.109 178.921 211.598 179.156 211.96L179.439 212.395L179.518 212.516L179.539 212.547L179.544 212.556L179.545 212.558L179.546 212.558L179.546 212.558L179.965 212.285L179.546 212.558L179.565 212.587L179.587 212.613C180.028 213.121 180.649 213.438 181.32 213.498L181.342 213.5H181.364H184.954Z" fill="#03062C" stroke="#A087FF"/>
<path id="Shape_38" d="M85.954 213.5H85.969L85.9839 213.499C87.3626 213.416 88.434 212.266 88.4103 210.887V204.153L88.5681 204.122L88.494 203.648C88.3985 203.038 87.8715 202.59 87.2552 202.59C86.9775 202.59 86.718 202.681 86.5078 202.837V202.242C86.5078 201.554 85.9485 201 85.263 201C84.9475 201 84.6588 201.118 84.439 201.311C84.2633 200.837 83.8054 200.5 83.2708 200.5C82.5854 200.5 82.026 201.054 82.026 201.742V201.982C81.8176 201.825 81.5587 201.733 81.2787 201.733C80.5932 201.733 80.0338 202.287 80.0338 202.975V207.115L79.5457 206.559L79.5056 206.513L79.4557 206.478C78.9472 206.124 78.2935 206.105 77.8586 206.508C77.4055 206.928 77.3972 207.599 77.7495 208.21L77.7495 208.21L77.7508 208.212C77.9199 208.502 78.6247 209.598 79.2751 210.602C79.6029 211.109 79.9205 211.598 80.1562 211.96L80.4393 212.395L80.518 212.516L80.5387 212.547L80.544 212.556L80.5453 212.558L80.5456 212.558L80.5457 212.558L80.9646 212.285L80.5457 212.558L80.5645 212.587L80.5871 212.613C81.028 213.121 81.6493 213.438 82.3198 213.498L82.3421 213.5H82.3645H85.954Z" fill="#03062C" stroke="#A087FF"/>
<path id="Shape_39" d="M39.4996 119.715V119.215H39.2737C39.0549 118.83 38.6394 118.578 38.1756 118.578C37.962 118.578 37.7587 118.632 37.58 118.727V118.228C37.58 117.536 37.0148 116.984 36.3285 116.984C36.0072 116.984 35.7124 117.105 35.4898 117.305C35.3106 116.832 34.8509 116.5 34.3183 116.5C33.632 116.5 33.0668 117.052 33.0668 117.744V117.991C32.8557 117.831 32.5923 117.737 32.3082 117.737C31.6219 117.737 31.0567 118.289 31.0567 118.981V123.089L30.5552 122.521L30.515 122.476L30.4651 122.441C29.9538 122.087 29.2981 122.069 28.8614 122.471C28.4049 122.891 28.3962 123.565 28.7518 124.178L28.7518 124.178L28.7531 124.181C28.9237 124.471 29.6348 125.57 30.2911 126.578C30.6218 127.085 30.9424 127.576 31.1802 127.939L31.4658 128.376L31.5452 128.497L31.5661 128.528L31.5714 128.537L31.5728 128.539L31.5731 128.539L31.5732 128.539L31.9913 128.265L31.5732 128.539L31.5904 128.566L31.6108 128.589C32.0515 129.107 32.6777 129.432 33.3555 129.498L33.3796 129.5H33.4038H37.0257H37.0406L37.0555 129.499C38.4416 129.416 39.5236 128.266 39.4996 126.88V119.715Z" fill="#03062C" stroke="#A087FF"/>
<path id="Shape_40" d="M85.954 40.5H85.9667L85.9794 40.4994C87.3831 40.4279 88.4736 39.2497 88.4282 37.847V31.2074H88.5843L88.494 30.6301C88.3985 30.0197 87.8715 29.5723 87.2552 29.5723C86.9775 29.5723 86.718 29.6631 86.5078 29.8187V29.2241C86.5078 28.5364 85.9485 27.9825 85.263 27.9825C84.9451 27.9825 84.6543 28.1016 84.4339 28.298C84.2546 27.8305 83.8004 27.5 83.2708 27.5C82.5854 27.5 82.026 28.0539 82.026 28.7416V28.9817C81.8176 28.8255 81.5587 28.7331 81.2787 28.7331C80.5932 28.7331 80.0338 29.2869 80.0338 29.9747V34.115L79.5457 33.5586L79.5056 33.5129L79.4557 33.4781C78.9472 33.1237 78.2935 33.1051 77.8586 33.5082C77.4055 33.928 77.3972 34.5992 77.7495 35.2103L77.7495 35.2103L77.7508 35.2124C77.9199 35.5025 78.6247 36.5977 79.2751 37.6023C79.6029 38.1087 79.9205 38.5976 80.1562 38.96L80.4393 39.395L80.518 39.5157L80.5387 39.5474L80.544 39.5555L80.5453 39.5576L80.5456 39.5581L80.5457 39.5582L80.9646 39.2852L80.5457 39.5583L80.5645 39.5871L80.5871 39.613C81.028 40.1208 81.6493 40.4378 82.3198 40.498L82.3421 40.5H82.3645H85.954Z" fill="#03062C" stroke="#A087FF"/>
</g>
</svg>
