<svg width="72" height="75" viewBox="0 0 72 75" fill="none" xmlns="http://www.w3.org/2000/svg">
<path fill-rule="evenodd" clip-rule="evenodd" d="M30.4839 5.51613C30.4839 2.46966 32.9535 0 36 0C39.0465 0 41.5161 2.46966 41.5161 5.51613C41.5161 5.81279 41.4927 6.10398 41.4476 6.38795L64.0345 15.2498C64.7725 14.8834 65.6041 14.6775 66.4839 14.6775C69.5304 14.6775 72 17.1471 72 20.1936C72 22.8986 70.053 25.1489 67.4839 25.6193V48.6388C70.053 49.1092 72 51.3595 72 54.0645C72 57.1109 69.5304 59.5806 66.4839 59.5806C65.1635 59.5806 63.9515 59.1167 63.0019 58.343L41.4806 69.3713C41.1683 72.1214 38.8337 74.2581 36 74.2581C32.9535 74.2581 30.4839 71.7884 30.4839 68.742C30.4839 68.5524 30.4935 68.365 30.5121 68.1803L8.12685 58.9249C7.34965 59.3432 6.46061 59.5806 5.51613 59.5806C2.46966 59.5806 0 57.1109 0 54.0645C0 51.3595 1.94704 49.1092 4.51611 48.6388V25.6193C1.94704 25.1489 0 22.8986 0 20.1936C0 17.1471 2.46966 14.6775 5.51613 14.6775C6.80403 14.6775 7.98884 15.1189 8.92756 15.8586L30.4841 5.56295L30.4839 5.51613ZM35 63.3162C33.2826 63.6307 31.8432 64.7406 31.0776 66.2499L9.85251 57.4742C10.5914 56.5357 11.0323 55.3516 11.0323 54.0645C11.0323 53.3134 10.8821 52.5974 10.6103 51.9448L16.9683 48.2691L15.9673 46.5376L9.51679 50.2668C8.72963 49.4378 7.68753 48.8533 6.51611 48.6388V25.6193C7.65988 25.4099 8.68037 24.8477 9.46063 24.0496L15.9879 27.6192L16.9475 25.8645L10.5808 22.3827C10.8713 21.7116 11.0323 20.9714 11.0323 20.1936C11.0323 19.1846 10.7613 18.2388 10.2882 17.4251L30.886 7.58741C31.5841 9.30939 33.1267 10.5988 35 10.9418V15.6774H37V10.9418C38.615 10.6461 39.9842 9.64704 40.7784 8.27381L62.2247 16.6881C61.4394 17.6412 60.9678 18.8623 60.9678 20.1936C60.9678 20.9316 61.1127 21.6358 61.3757 22.2792L55.1693 25.6367L56.1209 27.3958L62.4599 23.9665C63.2497 24.8086 64.3008 25.4027 65.4839 25.6193V48.6388C64.1974 48.8744 63.0668 49.5563 62.2587 50.5181L55.5595 46.864L54.6018 48.6198L61.2706 52.2573C61.0744 52.8235 60.9678 53.4315 60.9678 54.0645C60.9678 55.0493 61.2258 55.9738 61.678 56.7741L41.3022 67.2154C40.7299 65.2241 39.0661 63.6946 37 63.3162V58.5806H35V63.3162ZM36 2C34.0581 2 32.4839 3.57422 32.4839 5.51613C32.4839 7.45803 34.0581 9.03226 36 9.03226C37.9419 9.03226 39.5161 7.45803 39.5161 5.51613C39.5161 3.57422 37.9419 2 36 2ZM36 65.2258C34.0581 65.2258 32.4839 66.8001 32.4839 68.742C32.4839 70.6839 34.0581 72.2581 36 72.2581C37.9419 72.2581 39.5161 70.6839 39.5161 68.742C39.5161 66.8001 37.9419 65.2258 36 65.2258ZM2 20.1936C2 18.2517 3.57422 16.6775 5.51613 16.6775C7.45803 16.6775 9.03226 18.2517 9.03226 20.1936C9.03226 22.1355 7.45803 23.7097 5.51613 23.7097C3.57422 23.7097 2 22.1355 2 20.1936ZM66.4839 16.6775C64.542 16.6775 62.9678 18.2517 62.9678 20.1936C62.9678 22.1355 64.542 23.7097 66.4839 23.7097C68.4258 23.7097 70 22.1355 70 20.1936C70 18.2517 68.4258 16.6775 66.4839 16.6775ZM2 54.0645C2 52.1226 3.57422 50.5483 5.51613 50.5483C7.45803 50.5483 9.03226 52.1226 9.03226 54.0645C9.03226 56.0064 7.45803 57.5806 5.51613 57.5806C3.57422 57.5806 2 56.0064 2 54.0645ZM66.4839 50.5483C64.542 50.5483 62.9678 52.1226 62.9678 54.0645C62.9678 56.0064 64.542 57.5806 66.4839 57.5806C68.4258 57.5806 70 56.0064 70 54.0645C70 52.1226 68.4258 50.5483 66.4839 50.5483ZM17.5646 37.1291C17.5646 26.9475 25.8184 18.6936 36.0001 18.6936C46.1817 18.6936 54.4355 26.9475 54.4355 37.1291C54.4355 47.3107 46.1817 55.5646 36.0001 55.5646C25.8184 55.5646 17.5646 47.3107 17.5646 37.1291ZM20.5964 36.1292C20.8458 32.2297 22.543 28.7241 25.1563 26.1442C26.0619 26.685 27.0093 27.1558 27.9906 27.5531C26.6936 30.1463 25.9056 33.0483 25.7647 36.1292H20.5964ZM28.9779 25.7933C28.2159 25.4967 27.4766 25.1518 26.764 24.7606C28.2312 23.6633 29.9001 22.8208 31.7051 22.299C30.6816 23.3614 29.7662 24.5321 28.9779 25.7933ZM27.7671 36.1292C27.9107 33.2791 28.6648 30.6008 29.8957 28.2191C31.5329 28.7041 33.2449 28.9942 35 29.0742V36.1292H27.7671ZM30.9418 26.4363C32.2495 26.7869 33.6085 27.0021 35 27.0719V21.9965C33.4306 23.2496 32.0583 24.7479 30.9418 26.4363ZM37 36.1292V29.0742C38.7551 28.9942 40.4671 28.7041 42.1043 28.2191C43.3353 30.6008 44.0893 33.2791 44.233 36.1292H37ZM37 27.0719C38.3915 27.0021 39.7505 26.7869 41.0582 26.4363C39.9417 24.7478 38.5694 23.2496 37 21.9965V27.0719ZM46.2353 36.1292C46.0945 33.0483 45.3064 30.1463 44.0094 27.5531C44.9908 27.1558 45.9381 26.6849 46.8438 26.1442C49.4571 28.7241 51.1543 32.2297 51.4037 36.1292H46.2353ZM43.0222 25.7933C43.7841 25.4967 44.5235 25.1518 45.236 24.7606C43.7689 23.6632 42.0999 22.8208 40.2949 22.299C41.3184 23.3614 42.2339 24.5321 43.0222 25.7933ZM20.5965 38.1292C21.018 44.7211 25.5774 50.1876 31.705 51.9591C28.238 48.3604 26.0111 43.5184 25.7647 38.1292H20.5965ZM27.7671 38.1292C28.057 43.8821 30.8344 48.9355 35 52.2617V38.1292H27.7671ZM37 38.1292V52.2617C41.1657 48.9356 43.943 43.8822 44.233 38.1292H37ZM46.2353 38.1292C45.989 43.5185 43.762 48.3605 40.295 51.9592C46.4227 50.1877 50.9821 44.7211 51.4037 38.1292H46.2353Z" fill="#A087FF"/>
<path d="M47.4033 49.6614C44.1291 47.4033 40.1774 46.1614 36 46.1614C31.8226 46.1614 27.871 47.4033 24.5968 49.6614" stroke="#A087FF" stroke-width="2"/>
</svg>
