<?xml version="1.0" encoding="UTF-8" standalone="no"?>
<svg width="1287px" height="738px" viewBox="0 0 1287 738" version="1.1" xmlns="http://www.w3.org/2000/svg" xmlns:xlink="http://www.w3.org/1999/xlink">
    <!-- Generator: Sketch 50.2 (55047) - http://www.bohemiancoding.com/sketch -->
    <title>Group 9</title>
    <desc>Created with Sketch.</desc>
    <defs></defs>
    <g id="Page-1" stroke="none" stroke-width="1" fill="none" fill-rule="evenodd">
        <g id="Artboard" transform="translate(-80.000000, -127.000000)">
            <g id="Group-9" transform="translate(80.000000, 86.000000)">
                <text id="my-name-is-YIYUN" font-family="Heebo-Bold, Heebo" font-size="100" font-weight="bold" line-spacing="110" letter-spacing="13">
                    <tspan x="0" y="356" fill="#FFFFFF">MY NAME IS </tspan>
                    <tspan x="740.607422" y="356" fill="#FF34A1">YIYU</tspan>
                    <tspan x="1009.45312" y="356" fill="#FF34A1">N</tspan>
                </text>
                <g id="Group-5" transform="translate(0.000000, 468.000000)">
                    <text id="I-Art,-Technology" font-family="Heebo-Bold, Heebo" font-size="100" font-weight="bold" line-spacing="115" letter-spacing="13">
                        <tspan x="0" y="105" fill="#FFFFFF">I    </tspan>
                        <tspan x="194.052734" y="105" fill="#FF34A1">ART, TECHNOLOGY</tspan>
                        <tspan x="1274.11133" y="105" fill="#FF34A1"> </tspan>
                    </text>
                    <g id="love" transform="translate(92.000000, 25.000000)" fill="#F54454" fill-rule="nonzero">
                        <path d="M44.1179109,0 C38.6165342,0 33.5122034,3.7846165 30.5038169,6.57793243 C27.4916127,3.7846165 22.3910996,0 16.8820874,0 C6.47108506,0 0,6.38581992 0,16.6638394 C0,25.3473249 7.79584407,32.2787444 7.82638606,32.3017979 L28.1406301,52.0240684 C28.7629232,52.6503552 29.5990103,53 30.4999992,53 C31.400988,53 32.2332573,52.6503552 32.8440972,52.0394374 L53.2003365,32.3094824 C55.0290384,30.5458895 60.9999983,24.2138611 60.9999983,16.6676816 C61.0038161,6.38581992 54.532731,0 44.1179109,0 Z" id="Shape"></path>
                    </g>
                </g>
                <text id="I-AM-A" font-family="Heebo-Bold, Heebo" font-size="100" font-weight="bold" line-spacing="110" letter-spacing="13" fill="#FFFFFF">
                    <tspan x="0" y="465">I AM A</tspan>
                </text>
                <text id="&amp;-MAKing-FRIENDS-all" font-family="Heebo-Bold, Heebo" font-size="100" font-weight="bold" line-spacing="110" letter-spacing="13">
                    <tspan x="0" y="687" fill="#FFFFFF">&amp;</tspan>
                    <tspan x="79.1132812" y="687" fill="#FF34A1"> MAKING FRIENDS </tspan>
                    <tspan x="0" y="797" fill="#FFFFFF">ALL OVER THE WORLD</tspan>
                    <tspan x="1264.07812" y="797" fill="#FFFFFF">!</tspan>
                </text>
                <g id="Group-2" fill="#FFFFFF" letter-spacing="15">
                    <text id="HELLO" font-family="Heebo-ExtraBold, Heebo" font-size="220" font-weight="600" line-spacing="220">
                        <tspan x="0" y="263">HELL</tspan>
                        <tspan x="577.021484" y="263">O</tspan>
                    </text>
                    <text id="您好" font-family="PingFangSC-Semibold, PingFang SC" font-size="180" font-weight="500">
                        <tspan x="779" y="191">您</tspan>
                        <tspan x="974" y="191">好</tspan>
                    </text>
                </g>
            </g>
        </g>
    </g>
</svg>