<svg width="713" height="588" viewBox="0 0 713 588" fill="none" xmlns="http://www.w3.org/2000/svg">
<g id="ifast_intro">
<path id="Shape" opacity="0.15" d="M357.898 59.1931L119 207.91V387.335L362 539L605 387.674V208.249L366.259 59.2192C363.71 57.6031 360.457 57.5929 357.898 59.1931Z" fill="#A087FF"/>
<g id="New_Symbol_1-3">
<g id="New_Symbol_1">
<path id="Shape_2" d="M316 293.574V293.824V293.574ZM316 350.407L316 350.657L316 350.407ZM342.407 324L342.657 324L342.407 324ZM316 293.324C299.058 293.324 285.324 307.058 285.324 324H285.824C285.824 307.334 299.334 293.824 316 293.824V293.324ZM285.324 324C285.324 340.942 299.058 354.676 316 354.676V354.176C299.334 354.176 285.824 340.666 285.824 324H285.324ZM316 354.676C332.942 354.676 346.676 340.942 346.676 324H346.176C346.176 340.666 332.666 354.176 316 354.176V354.676ZM346.676 324C346.676 307.058 332.942 293.324 316 293.324V293.824C332.666 293.824 346.176 307.334 346.176 324H346.676ZM316 350.157C305.407 350.167 295.852 343.791 291.794 334.006L291.332 334.198C295.468 344.17 305.205 350.667 316 350.657L316 350.157ZM291.794 334.006C287.736 324.221 289.974 312.955 297.465 305.465L297.111 305.111C289.478 312.745 287.196 324.226 291.332 334.198L291.794 334.006ZM297.465 305.465C304.955 297.974 316.221 295.736 326.006 299.794L326.198 299.332C316.226 295.196 304.745 297.478 297.111 305.111L297.465 305.465ZM326.006 299.794C335.791 303.852 342.167 313.407 342.157 324L342.657 324C342.667 313.205 336.17 303.468 326.198 299.332L326.006 299.794ZM342.157 324C342.145 338.441 330.441 350.145 316 350.157L316 350.657C330.717 350.645 342.645 338.717 342.657 324L342.157 324Z" fill="white"/>
<path id="Shape_3" fill-rule="evenodd" clip-rule="evenodd" d="M296.734 320.831H299.191V318.535H296.734V320.831ZM299.191 321.933H296.734V331.119H299.191V321.933Z" fill="white"/>
<path id="Shape_4" d="M302.911 319.981C303.918 318.955 305.309 318.397 306.746 318.443C308.532 318.289 310.27 319.071 311.339 320.51C311.824 321.184 312.118 321.978 312.188 322.806H309.547C309.432 322.314 309.213 321.852 308.904 321.451C308.372 320.885 307.613 320.589 306.838 320.647C305.921 320.589 305.044 321.027 304.541 321.796C303.968 322.814 303.727 323.986 303.853 325.148C303.77 326.263 304.069 327.373 304.702 328.294C305.213 328.969 306.014 329.361 306.861 329.35C307.646 329.396 308.406 329.063 308.904 328.455C309.214 328.021 309.433 327.529 309.547 327.008H312.142C311.966 328.282 311.358 329.457 310.42 330.338C309.455 331.212 308.185 331.674 306.884 331.624C305.277 331.661 303.74 330.969 302.704 329.741C301.587 328.424 301.005 326.736 301.074 325.01C300.983 323.155 301.646 321.342 302.911 319.981Z" fill="white"/>
<path id="Shape_5" d="M314.209 318.673H316.941L321.901 327.444V318.673H324.336V331.164H321.741L316.666 322.301V331.164H314.209V318.673Z" fill="white"/>
<path id="Shape_6" d="M333.888 318.673H336.85L332.671 326.48V331.073H330.053V326.48L325.736 318.673H328.813L331.408 324.115L333.888 318.673Z" fill="white"/>
</g>
</g>
<g id="New_Symbol_3-3">
<g id="New_Symbol_3">
<path id="Shape_7" d="M404 293.574V293.824V293.574ZM404 350.407L404 350.657L404 350.407ZM430.407 324L430.657 324L430.407 324ZM404 293.324C387.058 293.324 373.324 307.058 373.324 324H373.824C373.824 307.334 387.334 293.824 404 293.824V293.324ZM373.324 324C373.324 340.942 387.058 354.676 404 354.676V354.176C387.334 354.176 373.824 340.666 373.824 324H373.324ZM404 354.676C420.942 354.676 434.676 340.942 434.676 324H434.176C434.176 340.666 420.666 354.176 404 354.176V354.676ZM434.676 324C434.676 307.058 420.942 293.324 404 293.324V293.824C420.666 293.824 434.176 307.334 434.176 324H434.676ZM404 350.157C393.407 350.167 383.852 343.791 379.794 334.006L379.332 334.198C383.468 344.17 393.205 350.667 404 350.657L404 350.157ZM379.794 334.006C375.736 324.221 377.974 312.955 385.465 305.465L385.111 305.111C377.478 312.745 375.196 324.226 379.332 334.198L379.794 334.006ZM385.465 305.465C392.955 297.974 404.221 295.736 414.006 299.794L414.198 299.332C404.226 295.196 392.745 297.478 385.111 305.111L385.465 305.465ZM414.006 299.794C423.791 303.852 430.167 313.407 430.157 324L430.657 324C430.667 313.205 424.17 303.468 414.198 299.332L414.006 299.794ZM430.157 324C430.145 338.441 418.441 350.145 404 350.157L404 350.657C418.717 350.645 430.645 338.717 430.657 324L430.157 324Z" fill="white"/>
<path id="Shape_8" fill-rule="evenodd" clip-rule="evenodd" d="M384.734 320.831H387.191V318.535H384.734V320.831ZM387.191 321.933H384.734V331.119H387.191V321.933Z" fill="white"/>
<path id="Shape_9" d="M389.717 318.673H392.358V326.342C392.317 326.984 392.418 327.627 392.656 328.225C393.054 328.977 393.88 329.4 394.723 329.281C395.559 329.396 396.377 328.974 396.767 328.225C397.005 327.627 397.106 326.984 397.065 326.342V318.673H399.706V326.342C399.76 327.411 399.547 328.477 399.086 329.442C398.13 330.901 396.431 331.693 394.7 331.486C392.969 331.693 391.27 330.901 390.314 329.442C389.853 328.477 389.64 327.411 389.694 326.342L389.717 318.673Z" fill="white"/>
<path id="Shape_10" d="M404.115 327.307C404.155 327.771 404.322 328.216 404.597 328.593C405.202 329.191 406.049 329.479 406.893 329.373C407.414 329.389 407.934 329.319 408.432 329.167C409.103 329.014 409.574 328.409 409.557 327.72C409.571 327.32 409.357 326.947 409.006 326.756C408.465 326.477 407.884 326.283 407.284 326.182L405.929 325.883C404.969 325.722 404.044 325.396 403.196 324.919C402.328 324.3 401.849 323.271 401.933 322.209C401.913 321.145 402.368 320.126 403.173 319.43C404.164 318.627 405.412 318.211 406.687 318.259C407.905 318.229 409.099 318.6 410.085 319.316C411.031 320.034 411.577 321.16 411.555 322.347H409.075C409.073 321.662 408.681 321.038 408.064 320.739C407.572 320.563 407.046 320.5 406.526 320.556C405.946 320.528 405.371 320.672 404.873 320.969C404.48 321.207 404.244 321.635 404.253 322.094C404.235 322.519 404.469 322.915 404.85 323.104C405.378 323.344 405.933 323.521 406.503 323.633L408.799 324.161C409.574 324.303 410.31 324.608 410.958 325.056C411.658 325.65 412.054 326.527 412.037 327.444C412.055 328.548 411.564 329.599 410.705 330.292C409.634 331.106 408.305 331.506 406.962 331.417C405.581 331.5 404.213 331.111 403.081 330.315C402.144 329.585 401.614 328.448 401.658 327.261L404.115 327.307Z" fill="white"/>
<path id="Shape_11" fill-rule="evenodd" clip-rule="evenodd" d="M423.358 320.533C422.84 319.784 422.089 319.227 421.222 318.948C420.56 318.749 419.87 318.656 419.179 318.673H413.805V331.141H419.293C421.006 331.216 422.617 330.331 423.473 328.845C424.179 327.552 424.528 326.093 424.483 324.62C424.481 323.925 424.404 323.232 424.253 322.553C424.093 321.827 423.789 321.139 423.358 320.533ZM416.446 329.006V320.854H418.926C419.816 320.76 420.69 321.145 421.222 321.865C421.614 322.815 421.749 323.853 421.613 324.873C421.624 325.655 421.492 326.434 421.222 327.169C420.889 328.26 419.883 329.005 418.742 329.006H416.446Z" fill="white"/>
</g>
</g>
<g id="New_Symbol_2-3">
<g id="New_Symbol_2">
<path id="Shape_12" d="M360 222.574V222.824V222.574ZM360 279.407L360 279.657L360 279.407ZM386.407 253L386.657 253L386.407 253ZM360 222.324C343.058 222.324 329.324 236.058 329.324 253H329.824C329.824 236.334 343.334 222.824 360 222.824V222.324ZM329.324 253C329.324 269.942 343.058 283.676 360 283.676V283.176C343.334 283.176 329.824 269.666 329.824 253H329.324ZM360 283.676C376.942 283.676 390.676 269.942 390.676 253H390.176C390.176 269.666 376.666 283.176 360 283.176V283.676ZM390.676 253C390.676 236.058 376.942 222.324 360 222.324V222.824C376.666 222.824 390.176 236.334 390.176 253H390.676ZM360 279.157C349.407 279.167 339.852 272.791 335.794 263.006L335.332 263.198C339.468 273.17 349.205 279.667 360 279.657L360 279.157ZM335.794 263.006C331.736 253.221 333.974 241.955 341.465 234.465L341.111 234.111C333.478 241.745 331.196 253.226 335.332 263.198L335.794 263.006ZM341.465 234.465C348.955 226.974 360.221 224.736 370.006 228.794L370.198 228.332C360.226 224.196 348.745 226.478 341.111 234.111L341.465 234.465ZM370.006 228.794C379.791 232.852 386.167 242.407 386.157 253L386.657 253C386.667 242.205 380.17 232.468 370.198 228.332L370.006 228.794ZM386.157 253C386.145 267.441 374.441 279.145 360 279.157L360 279.657C374.717 279.645 386.645 267.717 386.657 253L386.157 253Z" fill="white"/>
<path id="Oval" opacity="0.3" d="M360 279.43C374.597 279.43 386.43 267.597 386.43 253C386.43 238.403 374.597 226.57 360 226.57C345.403 226.57 333.57 238.403 333.57 253C333.57 267.597 345.403 279.43 360 279.43Z" fill="#A087FF" stroke="white" stroke-width="0.88"/>
<path id="Shape_13" d="M350.218 260.876H347.623V248.384H350.218V260.876Z" fill="white"/>
<path id="Shape_14" d="M352.652 248.407H361.561V250.704H355.247V253.574H360.781V255.733H355.247V260.968H352.652V248.407Z" fill="white"/>
<path id="Shape_15" d="M365.121 257.019C365.161 257.483 365.328 257.928 365.603 258.304C366.208 258.903 367.055 259.19 367.899 259.085C368.42 259.101 368.94 259.031 369.438 258.879C370.109 258.726 370.58 258.12 370.563 257.432C370.577 257.032 370.363 256.659 370.012 256.467C369.471 256.188 368.89 255.995 368.29 255.893L366.935 255.595C365.975 255.434 365.05 255.108 364.202 254.63C363.277 254.021 362.757 252.956 362.847 251.852C362.827 250.787 363.282 249.769 364.087 249.073C365.118 248.268 366.411 247.875 367.716 247.971C368.934 247.941 370.128 248.312 371.114 249.027C372.09 249.745 372.656 250.893 372.63 252.104H370.081C370.079 251.42 369.687 250.796 369.07 250.497C368.582 250.27 368.047 250.16 367.509 250.176C366.929 250.148 366.354 250.292 365.856 250.589C365.463 250.826 365.227 251.255 365.236 251.714C365.218 252.139 365.452 252.535 365.833 252.724C366.361 252.964 366.916 253.141 367.486 253.253L369.782 253.781C370.557 253.923 371.293 254.228 371.941 254.676C372.704 255.295 373.123 256.244 373.066 257.225C373.084 258.329 372.593 259.379 371.734 260.073C370.663 260.887 369.334 261.286 367.991 261.198C366.61 261.281 365.242 260.892 364.11 260.096C363.172 259.366 362.643 258.229 362.687 257.042L365.121 257.019Z" fill="white"/>
</g>
</g>
<g id="Oval_2" filter="url(#filter0_d)">
<path d="M359.997 398.989C360.33 398.994 360.664 398.997 360.998 398.999L360.997 399.249C361.165 399.25 361.332 399.25 361.5 399.25V399C361.667 399 361.835 399 362.002 398.999L362.003 399.249C362.338 399.247 362.673 399.244 363.007 399.239L363.003 398.989C363.337 398.984 363.67 398.977 364.003 398.969L364.009 399.219C364.343 399.21 364.676 399.2 365.008 399.189L365 398.939C365.331 398.927 365.663 398.914 365.994 398.899L366.005 399.149C366.339 399.134 366.671 399.117 367.004 399.099L366.99 398.85C367.324 398.831 367.657 398.811 367.99 398.79L368.006 399.039C368.34 399.017 368.673 398.994 369.006 398.969L368.987 398.72C369.319 398.695 369.65 398.668 369.981 398.64L370.003 398.889C370.334 398.861 370.666 398.831 370.997 398.799L370.973 398.55C371.304 398.519 371.635 398.486 371.965 398.451L371.992 398.699C372.325 398.664 372.657 398.627 372.989 398.589L372.96 398.34C373.292 398.302 373.622 398.262 373.953 398.22L373.984 398.468C374.315 398.427 374.645 398.383 374.975 398.338L374.942 398.09C375.271 398.046 375.6 397.999 375.928 397.951L375.964 398.198C376.294 398.15 376.624 398.1 376.953 398.048L376.914 397.801C377.244 397.749 377.573 397.696 377.902 397.641L377.943 397.887C378.273 397.832 378.602 397.775 378.93 397.717L378.886 397.47C379.214 397.412 379.541 397.352 379.868 397.29L379.914 397.536C380.241 397.474 380.568 397.411 380.894 397.346L380.846 397.101C381.172 397.036 381.498 396.969 381.823 396.901L381.875 397.146C382.202 397.077 382.529 397.007 382.855 396.935L382.802 396.691C383.127 396.619 383.452 396.546 383.776 396.471L383.832 396.714C384.157 396.639 384.482 396.562 384.806 396.484L384.747 396.241C385.07 396.163 385.392 396.083 385.714 396.002L385.775 396.244C386.099 396.162 386.422 396.079 386.744 395.994L386.681 395.752C387.003 395.667 387.325 395.58 387.646 395.492L387.713 395.733C388.035 395.645 388.356 395.555 388.677 395.463L388.608 395.223C388.928 395.131 389.247 395.038 389.566 394.944L389.637 395.184C389.956 395.089 390.275 394.992 390.593 394.895L390.52 394.656C390.838 394.558 391.156 394.458 391.473 394.357L391.549 394.595C391.867 394.493 392.185 394.39 392.502 394.285L392.424 394.048C392.74 393.944 393.056 393.837 393.37 393.73L393.451 393.966C393.767 393.859 394.082 393.749 394.396 393.638L394.313 393.403C394.626 393.292 394.939 393.18 395.25 393.066L395.336 393.301C395.65 393.186 395.963 393.07 396.276 392.953L396.188 392.719C396.5 392.601 396.811 392.482 397.121 392.362L397.212 392.595C397.523 392.474 397.833 392.352 398.143 392.228L398.05 391.996C398.359 391.872 398.667 391.747 398.974 391.621L399.07 391.852C399.378 391.725 399.685 391.597 399.992 391.467L399.894 391.237C400.201 391.107 400.507 390.975 400.813 390.842L400.913 391.071C401.219 390.938 401.524 390.803 401.829 390.666L401.727 390.438C402.03 390.302 402.333 390.165 402.635 390.026L402.74 390.253C403.043 390.113 403.345 389.972 403.646 389.83L403.539 389.604C403.84 389.462 404.14 389.318 404.439 389.173L404.548 389.398C404.849 389.252 405.149 389.105 405.447 388.956L405.336 388.732C405.634 388.584 405.931 388.434 406.228 388.283L406.342 388.505C406.639 388.354 406.935 388.2 407.23 388.046L407.114 387.824C407.409 387.67 407.703 387.514 407.996 387.357L408.114 387.578C408.408 387.42 408.701 387.261 408.993 387.1L408.873 386.881C409.165 386.72 409.456 386.559 409.746 386.395L409.869 386.613C410.16 386.449 410.45 386.284 410.739 386.118L410.614 385.901C410.902 385.735 411.19 385.567 411.476 385.398L411.603 385.614C411.89 385.444 412.176 385.273 412.462 385.101L412.333 384.887C412.618 384.715 412.902 384.542 413.185 384.367L413.316 384.579C413.6 384.404 413.883 384.227 414.166 384.049L414.032 383.838C414.313 383.66 414.594 383.481 414.873 383.3L415.009 383.51C415.289 383.329 415.568 383.147 415.847 382.963L415.709 382.754C415.987 382.571 416.263 382.386 416.539 382.2L416.678 382.408C416.955 382.221 417.231 382.033 417.506 381.843L417.364 381.637C417.638 381.448 417.911 381.258 418.183 381.066L418.327 381.271C418.6 381.078 418.871 380.885 419.142 380.69L418.996 380.487C419.266 380.293 419.535 380.097 419.803 379.9L419.951 380.101C420.22 379.904 420.487 379.705 420.754 379.504L420.604 379.304C420.87 379.104 421.135 378.903 421.399 378.701L421.551 378.899C421.654 378.82 421.757 378.741 421.859 378.662C422.021 378.537 422.182 378.412 422.343 378.286L422.188 378.089C422.45 377.884 422.711 377.677 422.971 377.469L423.127 377.665C423.388 377.456 423.647 377.247 423.906 377.036L423.747 376.842C424.005 376.632 424.262 376.42 424.518 376.207L424.678 376.399C424.934 376.185 425.189 375.97 425.443 375.754L425.281 375.564C425.535 375.348 425.787 375.131 426.039 374.913L426.203 375.102C426.454 374.883 426.705 374.663 426.955 374.442L426.789 374.255C427.038 374.034 427.286 373.812 427.533 373.589L427.701 373.775C427.948 373.551 428.195 373.326 428.44 373.1L428.27 372.916C428.515 372.69 428.758 372.464 429.001 372.235L429.172 372.417C429.415 372.189 429.657 371.959 429.897 371.728L429.724 371.547C429.964 371.317 430.203 371.085 430.441 370.852L430.616 371.031C430.854 370.797 431.091 370.563 431.327 370.327L431.15 370.15C431.385 369.915 431.619 369.678 431.852 369.441L432.031 369.616C432.264 369.377 432.497 369.138 432.728 368.897L432.548 368.724C432.778 368.484 433.007 368.243 433.235 368.001L433.417 368.172C433.646 367.929 433.874 367.685 434.1 367.44L433.916 367.27C434.142 367.026 434.366 366.78 434.589 366.533L434.775 366.701C434.998 366.453 435.221 366.205 435.442 365.955L435.255 365.789C435.476 365.54 435.695 365.29 435.913 365.039L436.102 365.203C436.321 364.951 436.538 364.698 436.754 364.443L436.564 364.281C436.779 364.028 436.994 363.773 437.207 363.518L437.399 363.678C437.612 363.421 437.825 363.164 438.036 362.906L437.842 362.747C438.052 362.49 438.261 362.231 438.469 361.971L438.665 362.127C438.873 361.867 439.08 361.605 439.286 361.343L439.089 361.188C439.294 360.926 439.498 360.663 439.701 360.399L439.899 360.551C440.102 360.287 440.304 360.021 440.504 359.754L440.304 359.604C440.504 359.338 440.703 359.071 440.9 358.803L441.101 358.951C441.299 358.682 441.495 358.413 441.69 358.142L441.487 357.996C441.681 357.726 441.875 357.455 442.066 357.183L442.271 357.327C442.463 357.054 442.654 356.78 442.843 356.506L442.637 356.364C442.827 356.09 443.014 355.815 443.201 355.539L443.408 355.678C443.594 355.402 443.779 355.125 443.963 354.847L443.754 354.709C443.938 354.431 444.12 354.153 444.3 353.873L444.51 354.009C444.691 353.729 444.871 353.448 445.049 353.166L444.838 353.032C445.015 352.751 445.192 352.468 445.367 352.185L445.579 352.316C445.755 352.032 445.929 351.747 446.101 351.462L445.887 351.333C446.059 351.048 446.229 350.762 446.398 350.476L446.614 350.603C446.783 350.316 446.951 350.028 447.118 349.739L446.901 349.614C447.067 349.326 447.232 349.036 447.395 348.746L447.613 348.869C447.777 348.578 447.939 348.286 448.1 347.993L447.881 347.873C448.041 347.581 448.2 347.289 448.357 346.996L448.578 347.114C448.735 346.82 448.891 346.526 449.046 346.23L448.824 346.114C448.979 345.82 449.131 345.524 449.283 345.228L449.505 345.341C449.657 345.044 449.807 344.746 449.956 344.447L449.732 344.336C449.881 344.038 450.028 343.739 450.173 343.439L450.398 343.548C450.544 343.248 450.688 342.948 450.83 342.646L450.604 342.539C450.746 342.239 450.887 341.937 451.026 341.635L451.253 341.74C451.392 341.437 451.53 341.133 451.666 340.829L451.438 340.726C451.574 340.423 451.709 340.118 451.842 339.813L452.071 339.913C452.205 339.606 452.337 339.299 452.467 338.992L452.237 338.894C452.366 338.588 452.494 338.282 452.621 337.974L452.852 338.069C452.979 337.761 453.104 337.452 453.228 337.143L452.996 337.05C453.119 336.741 453.241 336.432 453.362 336.121L453.595 336.212C453.716 335.9 453.835 335.588 453.953 335.276L453.719 335.188C453.836 334.876 453.952 334.563 454.066 334.25L454.301 334.336C454.415 334.023 454.527 333.71 454.638 333.396L454.403 333.312C454.513 332.999 454.622 332.685 454.73 332.37L454.967 332.451C455.074 332.135 455.181 331.819 455.285 331.502L455.048 331.424C455.153 331.107 455.255 330.791 455.357 330.473L455.595 330.549C455.696 330.231 455.796 329.912 455.895 329.593L455.656 329.519C455.753 329.202 455.849 328.884 455.944 328.566L456.184 328.637C456.278 328.317 456.372 327.997 456.463 327.677L456.223 327.608C456.314 327.288 456.404 326.968 456.492 326.646L456.733 326.712C456.822 326.39 456.909 326.068 456.994 325.744L456.752 325.681C456.837 325.359 456.92 325.037 457.002 324.714L457.244 324.775C457.326 324.452 457.406 324.129 457.484 323.805L457.241 323.747C457.319 323.424 457.396 323.1 457.471 322.776L457.714 322.832C457.789 322.507 457.863 322.182 457.935 321.855L457.691 321.801C457.762 321.476 457.832 321.15 457.901 320.823L458.146 320.875C458.214 320.548 458.281 320.222 458.346 319.894L458.101 319.845C458.166 319.52 458.229 319.194 458.29 318.868L458.536 318.914C458.598 318.587 458.658 318.259 458.717 317.93L458.47 317.886C458.529 317.559 458.585 317.231 458.641 316.902L458.887 316.943C458.942 316.614 458.996 316.283 459.048 315.953L458.801 315.914C458.853 315.586 458.903 315.257 458.951 314.928L459.198 314.964C459.247 314.635 459.293 314.305 459.338 313.975L459.09 313.942C459.135 313.612 459.179 313.283 459.22 312.953L459.468 312.984C459.51 312.653 459.55 312.321 459.589 311.989L459.34 311.96C459.379 311.629 459.416 311.297 459.451 310.965L459.699 310.991C459.734 310.66 459.768 310.329 459.799 309.997L459.55 309.973C459.582 309.643 459.612 309.312 459.64 308.981L459.889 309.003C459.917 308.671 459.944 308.338 459.969 308.006L459.72 307.987C459.745 307.655 459.768 307.323 459.79 306.99L460.039 307.006C460.061 306.673 460.081 306.338 460.099 306.004L459.85 305.99C459.868 305.659 459.884 305.326 459.899 304.994L460.149 305.005C460.164 304.673 460.177 304.341 460.189 304.008L459.939 304C459.951 303.668 459.961 303.335 459.969 303.003L460.219 303.009C460.227 302.675 460.234 302.342 460.239 302.007L459.989 302.003C459.994 301.67 459.997 301.336 459.999 301.002L460.249 301.003C460.25 300.835 460.25 300.668 460.25 300.5H460C460 300.333 460 300.165 459.999 299.998L460.249 299.997C460.247 299.662 460.244 299.327 460.239 298.993L459.989 298.997C459.984 298.663 459.977 298.33 459.969 297.997L460.219 297.991C460.21 297.657 460.2 297.324 460.189 296.992L459.939 297C459.927 296.669 459.914 296.337 459.899 296.006L460.149 295.995C460.134 295.661 460.117 295.329 460.099 294.996L459.85 295.01C459.831 294.676 459.811 294.343 459.79 294.01L460.039 293.994C460.017 293.66 459.994 293.327 459.969 292.994L459.72 293.013C459.695 292.681 459.668 292.35 459.64 292.019L459.889 291.997C459.861 291.666 459.831 291.334 459.799 291.003L459.55 291.027C459.519 290.696 459.486 290.365 459.451 290.035L459.699 290.008C459.664 289.675 459.627 289.343 459.589 289.011L459.34 289.04C459.302 288.708 459.262 288.378 459.22 288.047L459.468 288.016C459.427 287.685 459.383 287.355 459.338 287.025L459.09 287.058C459.046 286.729 458.999 286.4 458.951 286.072L459.198 286.036C459.15 285.706 459.1 285.376 459.048 285.047L458.801 285.086C458.749 284.756 458.696 284.427 458.641 284.098L458.887 284.057C458.832 283.727 458.775 283.398 458.717 283.07L458.47 283.114C458.412 282.786 458.352 282.459 458.29 282.132L458.536 282.086C458.474 281.759 458.411 281.432 458.346 281.106L458.101 281.154C458.036 280.828 457.969 280.502 457.901 280.177L458.146 280.125C458.077 279.798 458.007 279.471 457.935 279.145L457.691 279.198C457.619 278.873 457.546 278.548 457.471 278.224L457.714 278.168C457.639 277.843 457.562 277.518 457.484 277.194L457.241 277.253C457.163 276.93 457.083 276.608 457.002 276.286L457.244 276.225C457.162 275.901 457.079 275.578 456.994 275.256L456.752 275.319C456.667 274.997 456.58 274.675 456.492 274.354L456.733 274.287C456.645 273.965 456.555 273.644 456.463 273.323L456.223 273.392C456.131 273.072 456.038 272.753 455.944 272.434L456.184 272.363C456.089 272.044 455.992 271.725 455.895 271.407L455.656 271.48C455.558 271.162 455.458 270.844 455.357 270.527L455.595 270.451C455.493 270.133 455.39 269.815 455.285 269.498L455.048 269.576C454.944 269.26 454.837 268.944 454.73 268.63L454.966 268.549C454.859 268.233 454.749 267.918 454.638 267.604L454.403 267.687C454.292 267.374 454.18 267.062 454.066 266.75L454.301 266.664C454.186 266.35 454.07 266.037 453.953 265.724L453.719 265.812C453.601 265.5 453.482 265.189 453.362 264.879L453.595 264.788C453.474 264.477 453.352 264.167 453.228 263.857L452.996 263.95C452.872 263.641 452.747 263.333 452.621 263.026L452.852 262.93C452.725 262.622 452.597 262.315 452.467 262.008L452.237 262.106C452.107 261.799 451.975 261.493 451.842 261.187L452.071 261.087C451.938 260.781 451.803 260.476 451.666 260.171L451.438 260.273C451.302 259.97 451.165 259.667 451.026 259.365L451.253 259.26C451.113 258.957 450.972 258.655 450.83 258.354L450.604 258.461C450.462 258.16 450.318 257.86 450.173 257.561L450.398 257.452C450.252 257.151 450.105 256.851 449.956 256.553L449.732 256.664C449.584 256.366 449.434 256.069 449.283 255.772L449.505 255.658C449.354 255.361 449.2 255.065 449.046 254.77L448.824 254.886C448.67 254.591 448.514 254.297 448.357 254.004L448.578 253.886C448.42 253.592 448.261 253.299 448.1 253.007L447.881 253.127C447.72 252.835 447.559 252.544 447.395 252.254L447.613 252.131C447.449 251.84 447.284 251.55 447.118 251.261L446.901 251.386C446.735 251.098 446.567 250.81 446.398 250.524L446.614 250.397C446.444 250.11 446.273 249.824 446.101 249.538L445.887 249.667C445.715 249.382 445.542 249.098 445.367 248.815L445.579 248.684C445.404 248.4 445.227 248.117 445.049 247.834L444.838 247.968C444.66 247.687 444.481 247.406 444.3 247.127L444.51 246.991C444.329 246.711 444.147 246.432 443.963 246.153L443.754 246.291C443.571 246.014 443.386 245.737 443.2 245.461L443.408 245.322C443.221 245.045 443.033 244.769 442.843 244.494L442.637 244.636C442.448 244.362 442.258 244.089 442.066 243.817L442.271 243.673C442.078 243.4 441.885 243.129 441.69 242.858L441.487 243.004C441.293 242.734 441.097 242.465 440.9 242.197L441.101 242.049C440.904 241.78 440.705 241.513 440.504 241.246L440.304 241.396C440.104 241.13 439.903 240.865 439.701 240.601L439.899 240.449C439.696 240.184 439.491 239.92 439.286 239.657L439.089 239.812C438.884 239.55 438.677 239.289 438.469 239.029L438.665 238.873C438.456 238.612 438.247 238.353 438.036 238.094L437.842 238.253C437.632 237.995 437.42 237.738 437.207 237.482L437.399 237.322C437.185 237.066 436.97 236.811 436.754 236.557L436.564 236.719C436.348 236.465 436.131 236.213 435.913 235.961L436.102 235.797C435.883 235.546 435.663 235.295 435.442 235.045L435.255 235.211C435.034 234.962 434.812 234.714 434.589 234.467L434.775 234.299C434.551 234.052 434.326 233.805 434.1 233.56L433.916 233.73C433.69 233.485 433.464 233.242 433.235 232.999L433.417 232.828C433.189 232.585 432.959 232.343 432.728 232.103L432.548 232.276C432.317 232.036 432.085 231.797 431.852 231.559L432.031 231.384C431.797 231.146 431.563 230.909 431.327 230.673L431.15 230.85C430.915 230.615 430.678 230.381 430.441 230.148L430.616 229.969C430.377 229.736 430.138 229.503 429.897 229.272L429.724 229.452C429.484 229.222 429.243 228.993 429.001 228.765L429.172 228.583C428.929 228.354 428.685 228.126 428.44 227.9L428.27 228.084C428.026 227.858 427.78 227.634 427.533 227.411L427.701 227.225C427.453 227.002 427.205 226.779 426.955 226.558L426.789 226.745C426.54 226.524 426.29 226.305 426.039 226.087L426.203 225.898C425.951 225.679 425.698 225.462 425.443 225.246L425.281 225.436C425.028 225.221 424.773 225.006 424.518 224.793L424.678 224.601C424.421 224.388 424.164 224.175 423.906 223.964L423.747 224.158C423.49 223.948 423.231 223.739 422.971 223.531L423.127 223.335C422.867 223.127 422.605 222.92 422.343 222.714L422.188 222.911C421.926 222.706 421.663 222.502 421.399 222.299L421.551 222.101C421.287 221.898 421.021 221.696 420.754 221.496L420.604 221.696C420.338 221.496 420.071 221.297 419.803 221.1L419.951 220.899C419.682 220.701 419.413 220.505 419.142 220.31L418.996 220.513C418.726 220.319 418.455 220.125 418.183 219.934L418.327 219.729C418.054 219.537 417.78 219.346 417.506 219.157L417.364 219.363C417.09 219.174 416.815 218.986 416.539 218.799L416.678 218.592C416.402 218.406 416.125 218.221 415.847 218.037L415.709 218.246C415.431 218.062 415.153 217.88 414.873 217.7L415.009 217.49C414.729 217.309 414.448 217.129 414.166 216.951L414.032 217.162C413.751 216.985 413.468 216.808 413.185 216.633L413.316 216.421C413.032 216.245 412.747 216.071 412.462 215.899L412.333 216.113C412.048 215.941 411.762 215.771 411.476 215.602L411.603 215.386C411.316 215.217 411.028 215.049 410.739 214.882L410.614 215.099C410.326 214.933 410.036 214.768 409.746 214.605L409.869 214.387C409.578 214.223 409.286 214.061 408.993 213.9L408.873 214.119C408.581 213.959 408.289 213.8 407.996 213.643L408.114 213.422C407.82 213.265 407.526 213.109 407.23 212.954L407.114 213.176C406.82 213.021 406.524 212.869 406.228 212.717L406.341 212.495C406.044 212.343 405.746 212.193 405.447 212.044L405.336 212.268C405.038 212.119 404.739 211.972 404.439 211.827L404.548 211.602C404.248 211.456 403.948 211.313 403.646 211.17L403.539 211.396C403.239 211.254 402.937 211.113 402.635 210.974L402.74 210.747C402.437 210.608 402.133 210.47 401.829 210.334L401.726 210.562C401.423 210.426 401.118 210.291 400.813 210.158L400.913 209.929C400.606 209.795 400.299 209.663 399.992 209.533L399.894 209.763C399.588 209.634 399.282 209.506 398.974 209.379L399.069 209.148C398.761 209.021 398.452 208.896 398.143 208.772L398.05 209.004C397.741 208.881 397.432 208.759 397.121 208.638L397.212 208.405C396.9 208.284 396.588 208.165 396.276 208.047L396.188 208.281C395.876 208.164 395.563 208.048 395.25 207.934L395.336 207.699C395.023 207.585 394.71 207.473 394.396 207.362L394.312 207.597C393.999 207.487 393.685 207.378 393.37 207.27L393.451 207.033C393.135 206.926 392.819 206.819 392.502 206.715L392.424 206.952C392.107 206.847 391.791 206.745 391.473 206.643L391.549 206.405C391.231 206.304 390.912 206.204 390.593 206.105L390.519 206.344C390.202 206.247 389.884 206.151 389.566 206.056L389.637 205.816C389.317 205.722 388.997 205.628 388.677 205.537L388.608 205.777C388.288 205.686 387.968 205.596 387.646 205.508L387.712 205.267C387.39 205.178 387.068 205.091 386.744 205.006L386.681 205.248C386.359 205.163 386.037 205.08 385.714 204.998L385.775 204.756C385.452 204.674 385.129 204.594 384.805 204.516L384.747 204.759C384.424 204.681 384.1 204.604 383.776 204.529L383.832 204.286C383.507 204.211 383.182 204.137 382.855 204.065L382.801 204.309C382.476 204.238 382.15 204.168 381.823 204.099L381.875 203.854C381.548 203.786 381.222 203.719 380.894 203.654L380.845 203.899C380.52 203.834 380.194 203.771 379.868 203.71L379.914 203.464C379.587 203.402 379.259 203.342 378.93 203.283L378.886 203.53C378.559 203.471 378.231 203.415 377.902 203.359L377.943 203.113C377.614 203.058 377.283 203.004 376.953 202.952L376.914 203.199C376.586 203.147 376.257 203.097 375.928 203.049L375.964 202.802C375.635 202.753 375.305 202.707 374.975 202.662L374.942 202.909C374.612 202.865 374.283 202.821 373.953 202.78L373.984 202.532C373.653 202.49 373.321 202.45 372.989 202.411L372.96 202.66C372.629 202.621 372.297 202.584 371.965 202.549L371.991 202.301C371.66 202.266 371.329 202.232 370.997 202.201L370.973 202.45C370.643 202.418 370.312 202.388 369.981 202.36L370.003 202.111C369.671 202.083 369.338 202.056 369.006 202.031L368.987 202.28C368.655 202.255 368.323 202.232 367.99 202.21L368.006 201.961C367.673 201.939 367.338 201.919 367.004 201.901L366.99 202.15C366.659 202.132 366.326 202.116 365.994 202.101L366.005 201.851C365.673 201.836 365.341 201.823 365.008 201.811L365 202.061C364.668 202.049 364.335 202.039 364.003 202.031L364.009 201.781C363.675 201.773 363.342 201.766 363.007 201.761L363.003 202.011C362.67 202.006 362.336 202.003 362.002 202.001L362.003 201.751C361.835 201.75 361.668 201.75 361.5 201.75V202C361.333 202 361.165 202 360.998 202.001L360.997 201.751C360.662 201.753 360.327 201.756 359.993 201.761L359.997 202.011C359.663 202.016 359.33 202.023 358.997 202.031L358.991 201.781C358.657 201.79 358.324 201.8 357.992 201.811L358 202.061C357.669 202.073 357.337 202.086 357.006 202.101L356.995 201.851C356.661 201.866 356.329 201.883 355.996 201.901L356.01 202.15C355.676 202.169 355.343 202.189 355.01 202.21L354.994 201.961C354.66 201.983 354.327 202.006 353.994 202.031L354.013 202.28C353.681 202.305 353.35 202.332 353.019 202.36L352.997 202.111C352.666 202.139 352.334 202.169 352.003 202.201L352.027 202.45C351.696 202.481 351.365 202.514 351.035 202.549L351.008 202.301C350.675 202.336 350.343 202.373 350.011 202.411L350.04 202.66C349.708 202.698 349.378 202.738 349.047 202.78L349.016 202.532C348.685 202.573 348.355 202.617 348.025 202.662L348.058 202.91C347.729 202.954 347.4 203.001 347.072 203.049L347.036 202.802C346.706 202.85 346.376 202.9 346.047 202.952L346.086 203.199C345.756 203.251 345.427 203.304 345.098 203.359L345.057 203.113C344.727 203.168 344.398 203.225 344.07 203.283L344.114 203.53C343.786 203.588 343.459 203.648 343.132 203.71L343.086 203.464C342.759 203.526 342.432 203.589 342.106 203.654L342.154 203.899C341.828 203.964 341.502 204.031 341.177 204.099L341.125 203.854C340.798 203.923 340.471 203.993 340.145 204.065L340.198 204.309C339.873 204.381 339.548 204.454 339.224 204.529L339.168 204.286C338.843 204.361 338.518 204.438 338.194 204.516L338.253 204.759C337.93 204.837 337.608 204.917 337.286 204.998L337.225 204.756C336.901 204.838 336.578 204.921 336.256 205.006L336.319 205.248C335.997 205.333 335.675 205.42 335.354 205.508L335.287 205.267C334.965 205.355 334.644 205.445 334.323 205.537L334.392 205.777C334.072 205.869 333.753 205.962 333.434 206.056L333.363 205.816C333.044 205.911 332.725 206.008 332.407 206.105L332.48 206.344C332.162 206.442 331.844 206.542 331.527 206.643L331.451 206.405C331.133 206.507 330.815 206.61 330.498 206.715L330.576 206.952C330.26 207.056 329.944 207.163 329.63 207.27L329.549 207.034C329.233 207.141 328.918 207.251 328.604 207.362L328.687 207.597C328.374 207.708 328.062 207.82 327.75 207.934L327.664 207.699C327.35 207.814 327.037 207.93 326.724 208.047L326.812 208.281C326.5 208.399 326.189 208.518 325.879 208.638L325.788 208.405C325.477 208.526 325.167 208.648 324.857 208.772L324.95 209.004C324.641 209.128 324.333 209.253 324.026 209.379L323.93 209.148C323.622 209.275 323.315 209.403 323.008 209.533L323.106 209.763C322.799 209.893 322.493 210.025 322.187 210.158L322.087 209.929C321.781 210.062 321.476 210.197 321.171 210.334L321.273 210.562C320.97 210.698 320.667 210.835 320.365 210.974L320.26 210.747C319.957 210.887 319.655 211.028 319.354 211.17L319.461 211.396C319.16 211.538 318.86 211.682 318.561 211.827L318.452 211.602C318.151 211.748 317.851 211.895 317.553 212.044L317.664 212.268C317.366 212.416 317.069 212.566 316.772 212.717L316.658 212.495C316.361 212.646 316.065 212.8 315.77 212.954L315.886 213.176C315.591 213.33 315.297 213.486 315.004 213.643L314.886 213.422C314.592 213.58 314.299 213.739 314.007 213.9L314.127 214.119C313.835 214.28 313.544 214.441 313.254 214.605L313.131 214.387C312.84 214.551 312.55 214.716 312.261 214.882L312.386 215.099C312.098 215.265 311.81 215.433 311.524 215.602L311.397 215.386C311.11 215.556 310.824 215.727 310.538 215.899L310.667 216.113C310.382 216.285 310.098 216.458 309.815 216.633L309.684 216.421C309.4 216.596 309.117 216.773 308.834 216.951L308.968 217.162C308.687 217.34 308.406 217.519 308.127 217.7L307.991 217.49C307.711 217.671 307.432 217.853 307.153 218.037L307.291 218.246C307.014 218.429 306.737 218.614 306.461 218.8L306.322 218.592C306.045 218.779 305.769 218.967 305.494 219.157L305.636 219.363C305.362 219.552 305.089 219.742 304.817 219.934L304.673 219.729C304.4 219.922 304.129 220.115 303.858 220.31L304.004 220.513C303.734 220.707 303.465 220.903 303.197 221.1L303.049 220.899C302.78 221.096 302.513 221.295 302.246 221.496L302.396 221.696C302.13 221.896 301.865 222.097 301.601 222.299L301.449 222.101C301.184 222.304 300.92 222.509 300.657 222.714L300.812 222.911C300.55 223.116 300.289 223.323 300.029 223.531L299.873 223.335C299.612 223.544 299.353 223.753 299.094 223.964L299.253 224.158C298.995 224.368 298.738 224.58 298.482 224.793L298.322 224.601C298.066 224.815 297.811 225.03 297.557 225.246L297.719 225.436C297.465 225.652 297.213 225.869 296.961 226.087L296.797 225.898C296.546 226.117 296.295 226.337 296.045 226.558L296.211 226.745C295.962 226.966 295.714 227.188 295.467 227.411L295.299 227.225C295.052 227.449 294.805 227.674 294.56 227.9L294.73 228.084C294.485 228.31 294.242 228.536 293.999 228.765L293.828 228.583C293.585 228.811 293.343 229.041 293.103 229.272L293.276 229.453C293.036 229.683 292.797 229.915 292.559 230.148L292.384 229.969C292.146 230.203 291.909 230.437 291.673 230.673L291.85 230.85C291.615 231.085 291.381 231.322 291.148 231.559L290.969 231.384C290.736 231.623 290.503 231.862 290.272 232.103L290.453 232.276C290.222 232.516 289.993 232.757 289.765 232.999L289.583 232.828C289.354 233.071 289.126 233.315 288.9 233.56L289.084 233.73C288.858 233.974 288.634 234.22 288.411 234.467L288.225 234.299C288.002 234.547 287.779 234.795 287.558 235.045L287.745 235.211C287.524 235.46 287.305 235.71 287.087 235.961L286.898 235.797C286.679 236.049 286.462 236.302 286.246 236.557L286.436 236.719C286.221 236.972 286.006 237.227 285.793 237.482L285.601 237.322C285.388 237.579 285.175 237.836 284.964 238.094L285.158 238.253C284.948 238.51 284.739 238.769 284.531 239.029L284.335 238.873C284.127 239.133 283.92 239.395 283.714 239.657L283.911 239.812C283.706 240.074 283.502 240.337 283.299 240.601L283.101 240.449C282.898 240.713 282.696 240.979 282.496 241.246L282.696 241.396C282.496 241.662 282.297 241.929 282.1 242.197L281.899 242.049C281.701 242.318 281.505 242.587 281.31 242.858L281.513 243.004C281.319 243.274 281.125 243.545 280.934 243.817L280.729 243.673C280.537 243.946 280.346 244.22 280.157 244.494L280.363 244.636C280.174 244.91 279.986 245.185 279.8 245.461L279.592 245.322C279.406 245.598 279.221 245.875 279.037 246.153L279.246 246.291C279.062 246.569 278.88 246.847 278.7 247.127L278.49 246.991C278.309 247.271 278.129 247.552 277.951 247.834L278.162 247.968C277.985 248.249 277.808 248.532 277.633 248.815L277.421 248.684C277.245 248.968 277.071 249.253 276.899 249.538L277.113 249.667C276.941 249.952 276.771 250.238 276.602 250.524L276.386 250.397C276.217 250.684 276.049 250.972 275.882 251.261L276.099 251.386C275.933 251.674 275.768 251.964 275.605 252.254L275.387 252.131C275.223 252.422 275.061 252.714 274.9 253.007L275.119 253.127C274.959 253.419 274.8 253.711 274.643 254.004L274.422 253.886C274.265 254.18 274.109 254.474 273.954 254.77L274.176 254.886C274.021 255.18 273.869 255.476 273.717 255.772L273.495 255.659C273.343 255.956 273.193 256.254 273.044 256.553L273.268 256.664C273.119 256.962 272.972 257.261 272.827 257.561L272.602 257.452C272.456 257.752 272.313 258.052 272.17 258.354L272.396 258.461C272.254 258.761 272.113 259.063 271.974 259.365L271.747 259.26C271.608 259.563 271.47 259.867 271.334 260.171L271.562 260.274C271.426 260.577 271.291 260.882 271.158 261.187L270.929 261.087C270.795 261.394 270.663 261.701 270.533 262.008L270.763 262.106C270.634 262.412 270.506 262.718 270.379 263.026L270.148 262.931C270.021 263.239 269.896 263.548 269.772 263.857L270.004 263.95C269.881 264.259 269.759 264.568 269.638 264.879L269.405 264.788C269.284 265.1 269.165 265.412 269.047 265.724L269.281 265.812C269.164 266.124 269.048 266.437 268.934 266.75L268.699 266.664C268.585 266.977 268.473 267.29 268.362 267.604L268.597 267.688C268.487 268.001 268.378 268.315 268.27 268.63L268.033 268.549C267.926 268.865 267.819 269.181 267.715 269.498L267.952 269.576C267.847 269.893 267.745 270.209 267.643 270.527L267.405 270.451C267.304 270.769 267.204 271.088 267.105 271.407L267.344 271.481C267.247 271.798 267.151 272.116 267.056 272.434L266.816 272.363C266.722 272.683 266.628 273.003 266.537 273.323L266.777 273.392C266.686 273.712 266.596 274.032 266.508 274.354L266.267 274.288C266.178 274.61 266.091 274.932 266.006 275.256L266.248 275.319C266.163 275.641 266.08 275.963 265.998 276.286L265.756 276.225C265.674 276.548 265.594 276.871 265.516 277.195L265.759 277.253C265.681 277.576 265.604 277.9 265.529 278.224L265.286 278.168C265.211 278.493 265.137 278.818 265.065 279.145L265.309 279.199C265.238 279.524 265.168 279.85 265.099 280.177L264.854 280.125C264.786 280.452 264.719 280.778 264.654 281.106L264.899 281.155C264.834 281.48 264.771 281.806 264.71 282.132L264.464 282.086C264.402 282.413 264.342 282.741 264.283 283.07L264.53 283.114C264.471 283.441 264.415 283.769 264.359 284.098L264.113 284.057C264.058 284.386 264.004 284.717 263.952 285.047L264.199 285.086C264.147 285.414 264.097 285.743 264.049 286.072L263.802 286.036C263.753 286.365 263.707 286.695 263.662 287.025L263.909 287.058C263.865 287.388 263.821 287.717 263.78 288.047L263.532 288.016C263.49 288.347 263.45 288.679 263.411 289.011L263.66 289.04C263.621 289.371 263.584 289.703 263.549 290.035L263.301 290.009C263.266 290.34 263.232 290.671 263.201 291.003L263.45 291.027C263.418 291.357 263.388 291.688 263.36 292.019L263.111 291.997C263.083 292.329 263.056 292.662 263.031 292.994L263.28 293.013C263.255 293.345 263.232 293.677 263.21 294.01L262.961 293.994C262.939 294.327 262.919 294.662 262.901 294.996L263.15 295.01C263.132 295.341 263.116 295.674 263.101 296.006L262.851 295.995C262.836 296.327 262.823 296.659 262.811 296.992L263.061 297C263.049 297.332 263.039 297.665 263.031 297.997L262.781 297.991C262.773 298.325 262.766 298.658 262.761 298.993L263.011 298.997C263.006 299.33 263.003 299.664 263.001 299.998L262.751 299.997C262.75 300.165 262.75 300.332 262.75 300.5H263C263 300.667 263 300.835 263.001 301.002L262.751 301.003C262.753 301.338 262.756 301.673 262.761 302.007L263.011 302.003C263.016 302.337 263.023 302.67 263.031 303.003L262.781 303.009C262.79 303.343 262.8 303.676 262.811 304.008L263.061 304C263.073 304.331 263.086 304.663 263.101 304.994L262.851 305.005C262.866 305.339 262.883 305.671 262.901 306.004L263.15 305.99C263.169 306.324 263.189 306.657 263.21 306.99L262.961 307.006C262.983 307.34 263.006 307.673 263.031 308.006L263.28 307.987C263.305 308.319 263.332 308.65 263.36 308.981L263.111 309.003C263.139 309.334 263.169 309.666 263.201 309.997L263.45 309.973C263.481 310.304 263.514 310.635 263.549 310.965L263.301 310.992C263.336 311.325 263.373 311.657 263.411 311.989L263.66 311.96C263.698 312.292 263.738 312.622 263.78 312.953L263.532 312.984C263.573 313.315 263.617 313.645 263.662 313.975L263.91 313.942C263.954 314.271 264.001 314.6 264.049 314.928L263.802 314.964C263.85 315.294 263.9 315.624 263.952 315.953L264.199 315.914C264.251 316.244 264.304 316.573 264.359 316.902L264.113 316.943C264.168 317.273 264.225 317.602 264.283 317.93L264.53 317.887C264.588 318.214 264.648 318.541 264.71 318.868L264.464 318.914C264.526 319.241 264.589 319.568 264.654 319.894L264.899 319.846C264.964 320.172 265.031 320.498 265.099 320.823L264.854 320.875C264.923 321.202 264.993 321.529 265.065 321.855L265.309 321.802C265.381 322.127 265.454 322.452 265.529 322.776L265.286 322.832C265.361 323.157 265.438 323.482 265.516 323.806L265.759 323.747C265.837 324.07 265.917 324.392 265.998 324.714L265.756 324.775C265.838 325.099 265.921 325.422 266.006 325.744L266.248 325.681C266.333 326.003 266.42 326.325 266.508 326.646L266.267 326.713C266.355 327.035 266.445 327.356 266.537 327.677L266.777 327.608C266.869 327.928 266.962 328.247 267.056 328.566L266.816 328.637C266.911 328.956 267.008 329.275 267.105 329.593L267.344 329.52C267.442 329.838 267.542 330.156 267.643 330.473L267.405 330.549C267.507 330.867 267.61 331.185 267.715 331.502L267.952 331.424C268.056 331.74 268.163 332.056 268.27 332.37L268.034 332.451C268.141 332.767 268.251 333.082 268.362 333.396L268.597 333.313C268.708 333.626 268.82 333.939 268.934 334.25L268.699 334.336C268.814 334.65 268.93 334.963 269.047 335.276L269.281 335.188C269.399 335.5 269.518 335.811 269.638 336.121L269.405 336.212C269.526 336.523 269.648 336.833 269.772 337.143L270.004 337.05C270.128 337.359 270.253 337.667 270.379 337.974L270.148 338.07C270.275 338.378 270.403 338.685 270.533 338.992L270.763 338.894C270.893 339.201 271.025 339.507 271.158 339.813L270.929 339.913C271.062 340.219 271.197 340.524 271.334 340.829L271.562 340.727C271.698 341.03 271.835 341.333 271.974 341.635L271.747 341.74C271.887 342.043 272.028 342.345 272.17 342.646L272.396 342.539C272.538 342.84 272.682 343.14 272.827 343.439L272.602 343.548C272.748 343.849 272.895 344.149 273.044 344.447L273.268 344.336C273.416 344.634 273.566 344.931 273.717 345.228L273.495 345.342C273.646 345.639 273.8 345.935 273.954 346.23L274.176 346.114C274.33 346.409 274.486 346.703 274.643 346.996L274.422 347.114C274.58 347.408 274.739 347.701 274.9 347.993L275.119 347.873C275.28 348.165 275.441 348.456 275.605 348.746L275.387 348.869C275.551 349.16 275.716 349.45 275.882 349.739L276.099 349.614C276.265 349.902 276.433 350.19 276.602 350.476L276.386 350.603C276.556 350.89 276.727 351.176 276.899 351.462L277.113 351.333C277.285 351.618 277.458 351.902 277.633 352.185L277.421 352.316C277.596 352.6 277.773 352.883 277.951 353.166L278.162 353.032C278.34 353.313 278.519 353.594 278.7 353.873L278.49 354.009C278.671 354.289 278.853 354.568 279.037 354.847L279.246 354.709C279.429 354.987 279.614 355.263 279.8 355.539L279.592 355.678C279.779 355.955 279.967 356.231 280.157 356.506L280.363 356.364C280.552 356.638 280.742 356.911 280.934 357.183L280.729 357.327C280.922 357.6 281.115 357.871 281.31 358.142L281.513 357.996C281.707 358.266 281.903 358.535 282.1 358.803L281.899 358.951C282.096 359.22 282.295 359.487 282.496 359.754L282.696 359.604C282.896 359.87 283.097 360.135 283.299 360.399L283.101 360.551C283.304 360.816 283.509 361.08 283.714 361.343L283.911 361.188C284.116 361.45 284.323 361.711 284.531 361.971L284.335 362.127C284.544 362.388 284.753 362.647 284.964 362.906L285.158 362.747C285.368 363.005 285.58 363.262 285.793 363.518L285.601 363.678C285.815 363.934 286.03 364.189 286.246 364.443L286.436 364.281C286.652 364.535 286.869 364.787 287.087 365.039L286.898 365.203C287.117 365.454 287.337 365.705 287.558 365.955L287.745 365.789C287.966 366.038 288.188 366.286 288.411 366.533L288.225 366.701C288.449 366.948 288.674 367.195 288.9 367.44L289.084 367.27C289.31 367.515 289.536 367.758 289.765 368.001L289.583 368.172C289.811 368.415 290.041 368.657 290.272 368.897L290.452 368.724C290.683 368.964 290.915 369.203 291.148 369.441L290.969 369.616C291.203 369.854 291.437 370.091 291.673 370.327L291.85 370.15C292.085 370.385 292.322 370.619 292.559 370.852L292.384 371.031C292.623 371.264 292.862 371.497 293.103 371.728L293.276 371.548C293.516 371.778 293.757 372.007 293.999 372.235L293.828 372.417C294.071 372.646 294.315 372.874 294.56 373.1L294.73 372.916C294.974 373.142 295.22 373.366 295.467 373.589L295.299 373.775C295.547 373.998 295.795 374.221 296.045 374.442L296.211 374.255C296.46 374.476 296.71 374.695 296.961 374.913L296.797 375.102C297.049 375.321 297.302 375.538 297.557 375.754L297.719 375.564C297.972 375.779 298.227 375.994 298.482 376.207L298.322 376.399C298.579 376.612 298.836 376.825 299.094 377.036L299.253 376.842C299.51 377.052 299.769 377.261 300.029 377.469L299.873 377.665C300.133 377.873 300.395 378.08 300.657 378.286L300.812 378.089C301.074 378.294 301.337 378.498 301.601 378.701L301.449 378.899C301.713 379.102 301.979 379.304 302.246 379.504L302.396 379.304C302.662 379.504 302.929 379.703 303.197 379.9L303.049 380.101C303.318 380.299 303.587 380.495 303.858 380.69L304.004 380.487C304.274 380.681 304.545 380.875 304.817 381.066L304.673 381.271C304.946 381.463 305.22 381.654 305.494 381.843L305.636 381.637C305.91 381.826 306.185 382.014 306.461 382.201L306.322 382.408C306.598 382.594 306.875 382.779 307.153 382.963L307.291 382.754C307.569 382.938 307.847 383.12 308.127 383.3L307.991 383.51C308.271 383.691 308.552 383.871 308.834 384.049L308.968 383.838C309.249 384.015 309.532 384.192 309.815 384.367L309.684 384.579C309.968 384.755 310.253 384.929 310.538 385.101L310.667 384.887C310.952 385.059 311.238 385.229 311.524 385.398L311.397 385.614C311.684 385.783 311.972 385.951 312.261 386.118L312.386 385.901C312.674 386.067 312.964 386.232 313.254 386.395L313.131 386.613C313.422 386.777 313.714 386.939 314.007 387.1L314.127 386.881C314.419 387.041 314.711 387.2 315.004 387.357L314.886 387.578C315.18 387.735 315.474 387.891 315.77 388.046L315.886 387.824C316.18 387.979 316.476 388.131 316.772 388.283L316.659 388.505C316.956 388.657 317.254 388.807 317.553 388.956L317.664 388.732C317.962 388.881 318.261 389.028 318.561 389.173L318.452 389.398C318.752 389.544 319.052 389.688 319.354 389.83L319.461 389.604C319.761 389.746 320.063 389.887 320.365 390.026L320.26 390.253C320.563 390.392 320.867 390.53 321.171 390.666L321.274 390.438C321.577 390.574 321.882 390.709 322.187 390.842L322.087 391.071C322.394 391.205 322.701 391.337 323.008 391.467L323.106 391.237C323.412 391.366 323.718 391.494 324.026 391.621L323.931 391.852C324.239 391.979 324.548 392.104 324.857 392.228L324.95 391.996C325.259 392.119 325.568 392.241 325.879 392.362L325.788 392.595C326.1 392.716 326.412 392.835 326.724 392.953L326.812 392.719C327.124 392.836 327.437 392.952 327.75 393.066L327.664 393.301C327.977 393.415 328.29 393.527 328.604 393.638L328.688 393.403C329.001 393.513 329.315 393.622 329.63 393.73L329.549 393.967C329.865 394.074 330.181 394.181 330.498 394.285L330.576 394.048C330.893 394.152 331.209 394.255 331.527 394.357L331.451 394.595C331.769 394.696 332.088 394.796 332.407 394.895L332.481 394.656C332.798 394.753 333.116 394.849 333.434 394.944L333.363 395.184C333.683 395.278 334.003 395.372 334.323 395.463L334.392 395.223C334.712 395.314 335.032 395.404 335.354 395.492L335.288 395.733C335.61 395.822 335.932 395.909 336.256 395.994L336.319 395.752C336.641 395.837 336.963 395.92 337.286 396.002L337.225 396.244C337.548 396.326 337.871 396.406 338.195 396.484L338.253 396.241C338.576 396.319 338.9 396.396 339.224 396.471L339.168 396.714C339.493 396.789 339.818 396.863 340.145 396.935L340.199 396.691C340.524 396.762 340.85 396.832 341.177 396.901L341.125 397.146C341.452 397.214 341.778 397.281 342.106 397.346L342.155 397.101C342.48 397.166 342.806 397.229 343.132 397.29L343.086 397.536C343.413 397.598 343.741 397.658 344.07 397.717L344.114 397.47C344.441 397.529 344.769 397.585 345.098 397.641L345.057 397.887C345.386 397.942 345.717 397.996 346.047 398.048L346.086 397.801C346.414 397.853 346.743 397.903 347.072 397.951L347.036 398.198C347.365 398.247 347.695 398.293 348.025 398.338L348.058 398.09C348.388 398.135 348.717 398.179 349.047 398.22L349.016 398.468C349.347 398.51 349.679 398.55 350.011 398.589L350.04 398.34C350.371 398.379 350.703 398.416 351.035 398.451L351.009 398.699C351.34 398.734 351.671 398.768 352.003 398.799L352.027 398.55C352.357 398.582 352.688 398.612 353.019 398.64L352.997 398.889C353.329 398.917 353.662 398.944 353.994 398.969L354.013 398.72C354.345 398.745 354.677 398.768 355.01 398.79L354.994 399.039C355.327 399.061 355.662 399.081 355.996 399.099L356.01 398.85C356.341 398.868 356.674 398.884 357.006 398.899L356.995 399.149C357.327 399.164 357.659 399.177 357.992 399.189L358 398.939C358.332 398.951 358.665 398.961 358.997 398.969L358.991 399.219C359.325 399.227 359.658 399.234 359.993 399.239L359.997 398.989Z" stroke="white" stroke-width="0.5" stroke-dasharray="1"/>
</g>
<g id="Shape_16" filter="url(#filter1_d)">
<path d="M356.055 40.7849L356.055 40.7847C358.771 39.0718 362.229 39.0718 364.945 40.7847L364.945 40.7849L615.611 199.112C618.034 200.64 619.502 203.306 619.5 206.17V390.829C619.502 393.694 618.034 396.359 615.611 397.887L364.945 556.215L364.678 555.792L364.945 556.215C362.229 557.928 358.771 557.928 356.055 556.215L356.322 555.792L356.055 556.215L105.389 397.888C102.966 396.359 101.498 393.694 101.5 390.83V206.171V206.17H102C101.998 203.477 103.378 200.972 105.656 199.535L356.055 40.7849ZM356.055 40.7849L105.389 199.112L356.055 40.7849Z" stroke="#A087FF"/>
</g>
<g id="New_Symbol_7-3">
<g id="New_Symbol_7">
<path id="Shape_17" d="M477.003 304.694C477.001 304.444 477.087 304.201 477.249 304.003L480.964 299.522L477.249 295.015C476.841 294.52 476.939 293.809 477.467 293.427C477.995 293.046 478.754 293.137 479.161 293.632L483.451 298.753C483.788 299.16 483.788 299.729 483.451 300.136L479.161 305.257C478.848 305.643 478.306 305.798 477.816 305.641C477.326 305.484 476.999 305.051 477.003 304.566V304.694Z" fill="#A087FF"/>
<path id="Shape_18" d="M467.304 304.694C467.302 304.444 467.388 304.201 467.549 304.003L471.265 299.522L467.549 295.015C467.142 294.52 467.24 293.809 467.768 293.427C468.296 293.046 469.055 293.137 469.462 293.632L473.751 298.753C474.089 299.16 474.089 299.729 473.751 300.136L469.462 305.257C469.165 305.629 468.655 305.792 468.177 305.667C467.7 305.543 467.353 305.156 467.304 304.694Z" fill="#A087FF"/>
</g>
</g>
<g id="New_Symbol_7-6">
<g id="New_Symbol_7_2">
<path id="Shape_19" d="M439.25 217.095C439.073 216.92 438.962 216.687 438.935 216.433L438.394 210.637L432.58 210.077C431.942 210.015 431.509 209.444 431.612 208.8C431.716 208.157 432.317 207.685 432.955 207.747L439.609 208.335C440.135 208.385 440.538 208.787 440.587 209.313L441.175 215.968C441.226 216.462 440.952 216.954 440.495 217.19C440.038 217.425 439.5 217.351 439.16 217.005L439.25 217.095Z" fill="#A087FF"/>
<path id="Shape_20" d="M432.392 223.954C432.214 223.779 432.103 223.546 432.077 223.291L431.536 217.495L425.722 216.936C425.084 216.874 424.65 216.302 424.754 215.659C424.857 215.015 425.458 214.544 426.096 214.606L432.751 215.194C433.277 215.243 433.679 215.645 433.729 216.172L434.317 222.826C434.369 223.299 434.124 223.775 433.698 224.024C433.272 224.274 432.754 224.246 432.392 223.954Z" fill="#A087FF"/>
</g>
</g>
<g id="New_Symbol_7-9">
<g id="New_Symbol_7_3">
<path id="Shape_21" d="M445.235 379.89C445.057 380.065 444.947 380.298 444.92 380.553L444.379 386.349L438.565 386.908C437.927 386.97 437.494 387.542 437.597 388.185C437.701 388.828 438.302 389.3 438.94 389.238L445.594 388.65C446.12 388.601 446.523 388.198 446.572 387.672L447.16 381.018C447.211 380.523 446.937 380.031 446.48 379.796C446.023 379.56 445.485 379.635 445.145 379.98L445.235 379.89Z" fill="#A087FF"/>
<path id="Shape_22" d="M438.377 373.031C438.199 373.207 438.088 373.44 438.062 373.694L437.521 379.49L431.707 380.049C431.069 380.111 430.635 380.683 430.739 381.327C430.842 381.97 431.443 382.441 432.081 382.38L438.736 381.791C439.262 381.742 439.664 381.34 439.713 380.814L440.302 374.159C440.354 373.686 440.109 373.21 439.683 372.961C439.257 372.711 438.739 372.739 438.377 373.031Z" fill="#A087FF"/>
</g>
</g>
<g id="New_Symbol_7-12">
<g id="New_Symbol_7_4">
<path id="Shape_23" d="M242.997 304.694C242.999 304.444 242.913 304.201 242.751 304.003L239.036 299.522L242.751 295.015C243.159 294.52 243.061 293.809 242.533 293.427C242.005 293.046 241.246 293.137 240.839 293.632L236.549 298.753C236.212 299.16 236.212 299.729 236.549 300.136L240.839 305.257C241.153 305.643 241.694 305.798 242.184 305.641C242.674 305.484 243.001 305.051 242.997 304.566V304.694Z" fill="#A087FF"/>
<path id="Shape_24" d="M252.696 304.694C252.698 304.444 252.612 304.201 252.451 304.003L248.735 299.522L252.451 295.015C252.858 294.52 252.76 293.809 252.232 293.427C251.704 293.046 250.945 293.137 250.538 293.632L246.249 298.753C245.911 299.16 245.911 299.729 246.249 300.136L250.538 305.257C250.835 305.629 251.345 305.792 251.823 305.667C252.3 305.543 252.647 305.156 252.696 304.694Z" fill="#A087FF"/>
</g>
</g>
<g id="New_Symbol_7-15">
<g id="New_Symbol_7_5">
<path id="Shape_25" d="M280.765 217.11C280.943 216.935 281.053 216.702 281.08 216.447L281.621 210.651L287.435 210.092C288.073 210.03 288.506 209.458 288.403 208.815C288.3 208.172 287.698 207.7 287.06 207.762L280.406 208.35C279.88 208.399 279.477 208.802 279.428 209.328L278.84 215.982C278.789 216.477 279.063 216.969 279.52 217.204C279.977 217.44 280.515 217.365 280.855 217.02L280.765 217.11Z" fill="#A087FF"/>
<path id="Shape_26" d="M287.623 223.969C287.801 223.793 287.912 223.56 287.938 223.306L288.479 217.51L294.293 216.951C294.931 216.889 295.365 216.317 295.261 215.673C295.158 215.03 294.557 214.559 293.919 214.62L287.264 215.209C286.738 215.258 286.336 215.66 286.287 216.186L285.698 222.841C285.646 223.314 285.891 223.79 286.317 224.039C286.743 224.289 287.261 224.261 287.623 223.969Z" fill="#A087FF"/>
</g>
</g>
<g id="New_Symbol_7-18">
<g id="New_Symbol_7_6">
<path id="Shape_27" d="M275.765 379.89C275.943 380.065 276.053 380.298 276.08 380.553L276.621 386.349L282.435 386.908C283.073 386.97 283.506 387.542 283.403 388.185C283.3 388.828 282.698 389.3 282.06 389.238L275.406 388.65C274.88 388.601 274.477 388.198 274.428 387.672L273.84 381.018C273.789 380.523 274.063 380.031 274.52 379.796C274.977 379.56 275.515 379.635 275.855 379.98L275.765 379.89Z" fill="#A087FF"/>
<path id="Shape_28" d="M282.623 373.031C282.801 373.207 282.912 373.44 282.938 373.694L283.479 379.49L289.293 380.049C289.931 380.111 290.365 380.683 290.261 381.327C290.158 381.97 289.557 382.441 288.919 382.38L282.264 381.791C281.738 381.742 281.336 381.34 281.287 380.814L280.698 374.159C280.646 373.686 280.891 373.21 281.317 372.961C281.743 372.711 282.261 372.739 282.623 373.031Z" fill="#A087FF"/>
</g>
</g>
<g id="New_Symbol_4-link">
<g id="New_Symbol_4">
<path id="Shape_29" d="M9.19894 312.118C8.48673 312.118 7.90937 311.536 7.90937 310.817V289.579C7.90937 289.114 8.15516 288.685 8.55416 288.453C8.95315 288.221 9.44473 288.221 9.84373 288.453C10.2427 288.685 10.4885 289.114 10.4885 289.579V310.817C10.4885 311.536 9.91115 312.118 9.19894 312.118Z" fill="white"/>
<path id="Shape_30" d="M22.4385 312.118C21.7263 312.118 21.149 311.536 21.149 310.817V289.579C21.149 289.114 21.3948 288.685 21.7938 288.453C22.1928 288.221 22.6843 288.221 23.0833 288.453C23.4823 288.685 23.7281 289.114 23.7281 289.579V310.817C23.7281 311.536 23.1508 312.118 22.4385 312.118Z" fill="white"/>
<path id="Shape_31" d="M35.6782 312.118C34.9659 312.118 34.3886 311.536 34.3886 310.817V289.579C34.3886 289.114 34.6344 288.685 35.0334 288.453C35.4324 288.221 35.9239 288.221 36.3229 288.453C36.7219 288.685 36.9677 289.114 36.9677 289.579V310.817C36.9677 311.536 36.3904 312.118 35.6782 312.118Z" fill="white"/>
<path id="Shape_32" d="M48.8962 312.118C48.184 312.118 47.6067 311.536 47.6067 310.817V289.579C47.6067 288.861 48.184 288.279 48.8962 288.279C49.6085 288.279 50.1858 288.861 50.1858 289.579V310.817C50.1858 311.536 49.6085 312.118 48.8962 312.118Z" fill="white"/>
<path id="Shape_33" d="M35.6781 307.913C35.4258 307.913 35.1792 307.837 34.9689 307.697L22.3096 299.31L5.1153 306.765C4.46244 307.052 3.70225 306.751 3.41736 306.093C3.13248 305.435 3.43078 304.668 4.08364 304.381L21.9227 296.644C22.305 296.436 22.7655 296.436 23.1478 296.644L35.5922 304.901L48.0795 294.824C48.5506 294.443 49.2204 294.443 49.6915 294.824L54.9142 299.158C55.4721 299.613 55.5588 300.438 55.1077 301C54.6566 301.563 53.8387 301.65 53.2808 301.195L48.8963 297.619L36.5379 307.632C36.2944 307.827 35.989 307.927 35.6781 307.913Z" fill="white"/>
<rect id="Rectangle-path" x="0.537323" y="280.542" width="58.0307" height="39.0093" rx="2" stroke="white" stroke-width="0.5"/>
</g>
</g>
<g id="New_Symbol_4-5">
<g id="New_Symbol_4_2">
<path id="Shape_34" d="M155.199 312.118C154.487 312.118 153.909 311.536 153.909 310.817V289.579C153.909 289.114 154.155 288.685 154.554 288.453C154.953 288.221 155.445 288.221 155.844 288.453C156.243 288.685 156.489 289.114 156.489 289.579V310.817C156.489 311.536 155.911 312.118 155.199 312.118Z" fill="white"/>
<path id="Shape_35" d="M168.439 312.118C167.726 312.118 167.149 311.536 167.149 310.817V289.579C167.149 289.114 167.395 288.685 167.794 288.453C168.193 288.221 168.684 288.221 169.083 288.453C169.482 288.685 169.728 289.114 169.728 289.579V310.817C169.728 311.536 169.151 312.118 168.439 312.118Z" fill="white"/>
<path id="Shape_36" d="M181.678 312.118C180.966 312.118 180.389 311.536 180.389 310.817V289.579C180.389 289.114 180.634 288.685 181.033 288.453C181.432 288.221 181.924 288.221 182.323 288.453C182.722 288.685 182.968 289.114 182.968 289.579V310.817C182.968 311.536 182.39 312.118 181.678 312.118Z" fill="white"/>
<path id="Shape_37" d="M194.896 312.118C194.184 312.118 193.607 311.536 193.607 310.817V289.579C193.607 288.861 194.184 288.279 194.896 288.279C195.608 288.279 196.186 288.861 196.186 289.579V310.817C196.186 311.536 195.608 312.118 194.896 312.118Z" fill="white"/>
<path id="Shape_38" d="M181.678 307.913C181.426 307.913 181.179 307.837 180.969 307.697L168.31 299.31L151.115 306.765C150.462 307.052 149.702 306.751 149.417 306.093C149.132 305.435 149.431 304.668 150.084 304.381L167.923 296.644C168.305 296.436 168.766 296.436 169.148 296.644L181.592 304.901L194.08 294.824C194.551 294.443 195.22 294.443 195.691 294.824L200.914 299.158C201.472 299.613 201.559 300.438 201.108 301C200.657 301.563 199.839 301.65 199.281 301.195L194.896 297.619L182.538 307.632C182.294 307.827 181.989 307.927 181.678 307.913Z" fill="white"/>
<rect id="Rectangle-path_2" x="146.537" y="280.542" width="58.0307" height="39.0093" rx="2" stroke="white" stroke-width="0.5"/>
</g>
</g>
<path id="Shape_39" d="M25 331.015L30.2167 327V359.88C30.2167 367.126 36.0557 373 43.2585 373H93" stroke="white" stroke-width="0.5"/>
<path id="Shape_40" d="M87.5821 229L93 234.216H43.0868C35.8592 234.216 30 240.055 30 247.257V273" stroke="white" stroke-width="0.5"/>
<path id="Shape_41" d="M181 268.095L175.815 273V247.114C175.815 239.871 170.011 234 162.852 234H111" stroke="white" stroke-width="0.5"/>
<path id="Shape_42" d="M116.2 378L111 372.769H163C170.18 372.769 176 366.914 176 359.692V327" stroke="white" stroke-width="0.5"/>
<path id="Shape_43" d="M542 331.015L547.217 327V359.88C547.217 367.126 553.056 373 560.259 373H610" stroke="white" stroke-width="0.5"/>
<path id="Shape_44" d="M604.582 229L610 234.216H560.087C552.859 234.216 547 240.055 547 247.257V273" stroke="white" stroke-width="0.5"/>
<path id="Shape_45" d="M699 268.095L693.815 273V247.114C693.815 239.871 688.011 234 680.852 234H629" stroke="white" stroke-width="0.5"/>
<path id="Shape_46" d="M634.2 378L629 372.769H681C688.18 372.769 694 366.914 694 359.692V327" stroke="white" stroke-width="0.5"/>
<g id="New_Symbol_5-3">
<g id="New_Symbol_5">
<path id="Shape_47" d="M693.57 286.382C693.219 286.382 692.882 286.243 692.634 285.995C692.386 285.748 692.246 285.413 692.246 285.064V281.318C692.246 280.968 692.386 280.633 692.634 280.386C692.882 280.139 693.219 280 693.57 280C694.297 280.008 694.885 280.593 694.893 281.318V285.064C694.893 285.413 694.753 285.748 694.505 285.995C694.257 286.243 693.921 286.382 693.57 286.382Z" fill="white"/>
<path id="Shape_48" d="M699.93 286.127C699.692 286.134 699.458 286.07 699.257 285.942C698.625 285.577 698.407 284.771 698.77 284.139L700.65 280.902C701.015 280.27 701.826 280.052 702.461 280.416C703.095 280.78 703.314 281.588 702.948 282.22L701.068 285.457C700.846 285.876 700.406 286.135 699.93 286.127Z" fill="white"/>
<path id="Shape_49" d="M687.186 286.127C686.705 286.13 686.261 285.873 686.025 285.457L684.145 282.22C683.779 281.588 683.998 280.78 684.632 280.416C685.267 280.052 686.077 280.27 686.443 280.902L688.323 284.139C688.686 284.771 688.468 285.577 687.836 285.942C687.645 286.073 687.417 286.137 687.186 286.127Z" fill="white"/>
<path id="Shape_50" fill-rule="evenodd" clip-rule="evenodd" d="M693.454 319.931C693.269 319.928 693.094 319.851 692.968 319.716L674.232 298.705L674.207 298.682C674.076 298.564 674 298.396 674 298.22C674.001 298.076 674.053 297.937 674.146 297.827L674.181 297.785L680.217 287.713L680.24 287.651C680.298 287.482 680.426 287.346 680.591 287.276C680.664 287.246 680.743 287.23 680.823 287.23H706.091C706.171 287.23 706.25 287.246 706.324 287.276C706.348 287.286 706.371 287.298 706.393 287.311L706.449 287.346C706.526 287.396 706.591 287.462 706.639 287.54L712.817 297.901C712.959 298.135 712.925 298.437 712.733 298.634L693.929 319.699C693.814 319.844 693.639 319.928 693.454 319.931ZM693.454 316.208L700.768 298.844H686.143L693.454 316.208ZM710.862 298.844L694.986 316.208L702.147 298.844H710.862ZM691.968 316.208L684.771 298.844H676.045L691.968 316.208ZM711.168 297.595H702.672L706.18 289.272L711.168 297.595ZM686.148 297.595H700.805L695.397 288.486H692.253L686.148 297.595ZM684.235 297.595H675.741L680.732 289.267L684.235 297.595ZM685.233 296.694L690.744 288.486H681.777L685.233 296.694ZM705.13 288.486L701.695 296.647L696.85 288.486H705.13Z" fill="white"/>
</g>
</g>
<g id="New_Symbol_5-6">
<g id="New_Symbol_5_2">
<path id="Shape_51" d="M547.57 286.382C547.219 286.382 546.882 286.243 546.634 285.995C546.386 285.748 546.246 285.413 546.246 285.064V281.318C546.246 280.968 546.386 280.633 546.634 280.386C546.882 280.139 547.219 280 547.57 280C548.297 280.008 548.885 280.593 548.893 281.318V285.064C548.893 285.413 548.753 285.748 548.505 285.995C548.257 286.243 547.921 286.382 547.57 286.382Z" fill="white"/>
<path id="Shape_52" d="M553.93 286.127C553.692 286.134 553.458 286.07 553.257 285.942C552.625 285.577 552.407 284.771 552.77 284.139L554.65 280.902C555.015 280.27 555.826 280.052 556.461 280.416C557.095 280.78 557.314 281.588 556.948 282.22L555.068 285.457C554.846 285.876 554.406 286.135 553.93 286.127Z" fill="white"/>
<path id="Shape_53" d="M541.186 286.127C540.705 286.13 540.261 285.873 540.025 285.457L538.145 282.22C537.779 281.588 537.998 280.78 538.632 280.416C539.267 280.052 540.077 280.27 540.443 280.902L542.323 284.139C542.686 284.771 542.468 285.577 541.836 285.942C541.645 286.073 541.417 286.137 541.186 286.127Z" fill="white"/>
<path id="Shape_54" fill-rule="evenodd" clip-rule="evenodd" d="M547.454 319.931C547.269 319.928 547.094 319.851 546.968 319.716L528.232 298.705L528.207 298.682C528.076 298.564 528 298.396 528 298.22C528.001 298.076 528.053 297.937 528.146 297.827L528.181 297.785L534.217 287.713L534.24 287.651C534.298 287.482 534.426 287.346 534.591 287.276C534.616 287.266 534.642 287.257 534.668 287.25C534.685 287.246 534.701 287.242 534.718 287.239C534.753 287.233 534.788 287.23 534.823 287.23H560.091C560.171 287.23 560.25 287.246 560.324 287.276C560.348 287.286 560.371 287.298 560.393 287.311L560.449 287.346C560.526 287.396 560.591 287.462 560.639 287.54L566.817 297.901C566.959 298.135 566.925 298.437 566.733 298.634L547.929 319.699C547.814 319.844 547.639 319.928 547.454 319.931ZM547.454 316.208L554.768 298.844H540.143L547.454 316.208ZM564.862 298.844L548.986 316.208L556.147 298.844H564.862ZM545.968 316.208L538.771 298.844H530.045L545.968 316.208ZM565.168 297.595H556.672L560.18 289.272L565.168 297.595ZM540.148 297.595H554.805L549.397 288.486H546.253L540.148 297.595ZM538.235 297.595H529.741L534.732 289.267L538.235 297.595ZM539.233 296.694L544.744 288.486H535.777L539.233 296.694ZM559.13 288.486L555.695 296.647L550.85 288.486H559.13Z" fill="white"/>
</g>
</g>
<g id="New_Symbol_6-3">
<g id="New_Symbol_6">
<path id="Shape_55" opacity="0.3" d="M248.716 401.8L244.805 417.8H274.133L270.223 401.8H248.716Z" fill="#A087FF"/>
<path id="Shape_56" opacity="0.3" d="M266.312 423.8L262.402 439.8H291.729L287.819 423.8H266.312Z" fill="#A087FF"/>
<path id="Shape_57" opacity="0.3" d="M231.119 423.8L227.209 439.8H256.537L252.626 423.8H231.119Z" fill="#A087FF"/>
<path id="Shape_58" fill-rule="evenodd" clip-rule="evenodd" d="M226.701 441.8H256.361C256.662 441.813 256.952 441.679 257.143 441.44C257.324 441.21 257.389 440.906 257.319 440.62L253.193 423.64C253.093 423.215 252.721 422.917 252.294 422.92H230.787C230.362 422.924 229.994 423.219 229.888 423.64L225.762 440.62C225.687 440.911 225.752 441.221 225.937 441.455C226.123 441.688 226.407 441.816 226.701 441.8ZM255.09 439.8H227.874L231.628 424.72H251.434L255.09 439.8Z" fill="white"/>
<path id="Shape_59" fill-rule="evenodd" clip-rule="evenodd" d="M261.6 441.8H291.28C291.581 441.81 291.869 441.677 292.062 441.44C292.243 441.21 292.308 440.906 292.238 440.62L288.171 423.64C288.071 423.215 287.699 422.917 287.272 422.92H265.765C265.34 422.924 264.972 423.219 264.865 423.64L260.701 440.62C260.628 440.904 260.688 441.206 260.865 441.438C261.041 441.67 261.313 441.803 261.6 441.8ZM290.165 439.8H262.793L266.469 424.82H286.372L290.165 439.8Z" fill="white"/>
<path id="Shape_60" fill-rule="evenodd" clip-rule="evenodd" d="M244.63 418.9H274.309C274.621 418.914 274.92 418.773 275.111 418.52C275.292 418.29 275.357 417.986 275.287 417.7L271.161 400.72C271.061 400.295 270.689 399.997 270.262 400H248.755C248.33 400.004 247.962 400.3 247.856 400.72L243.73 417.72C243.657 418.004 243.717 418.307 243.894 418.538C244.07 418.77 244.343 418.904 244.63 418.9ZM273.194 416.9H245.822L249.498 402H269.46L273.194 416.9Z" fill="white"/>
</g>
</g>
<g id="New_Symbol_6-link">
<g id="New_Symbol_6_2">
<path id="Shape_61" opacity="0.3" d="M214.716 547.8L210.805 563.8H240.133L236.223 547.8H214.716Z" fill="#A087FF"/>
<path id="Shape_62" opacity="0.3" d="M232.312 569.8L228.402 585.8H257.729L253.819 569.8H232.312Z" fill="#A087FF"/>
<path id="Shape_63" opacity="0.3" d="M197.119 569.8L193.209 585.8H222.537L218.626 569.8H197.119Z" fill="#A087FF"/>
<path id="Shape_64" fill-rule="evenodd" clip-rule="evenodd" d="M192.701 587.8H222.361C222.662 587.813 222.952 587.679 223.143 587.44C223.324 587.21 223.389 586.906 223.319 586.62L219.193 569.64C219.093 569.215 218.721 568.917 218.294 568.92H196.787C196.362 568.924 195.994 569.219 195.888 569.64L191.762 586.62C191.687 586.911 191.752 587.221 191.937 587.455C192.123 587.688 192.407 587.816 192.701 587.8ZM221.09 585.8H193.874L197.628 570.72H217.434L221.09 585.8Z" fill="white"/>
<path id="Shape_65" fill-rule="evenodd" clip-rule="evenodd" d="M227.6 587.8H257.28C257.581 587.81 257.869 587.677 258.062 587.44C258.243 587.21 258.308 586.906 258.238 586.62L254.171 569.64C254.071 569.215 253.699 568.917 253.272 568.92H231.765C231.34 568.924 230.972 569.219 230.865 569.64L226.701 586.62C226.628 586.904 226.688 587.206 226.865 587.438C227.041 587.67 227.313 587.803 227.6 587.8ZM256.165 585.8H228.793L232.469 570.82H252.372L256.165 585.8Z" fill="white"/>
<path id="Shape_66" fill-rule="evenodd" clip-rule="evenodd" d="M210.63 564.9H240.309C240.621 564.914 240.92 564.773 241.111 564.52C241.292 564.29 241.357 563.986 241.287 563.7L237.161 546.72C237.061 546.295 236.689 545.997 236.262 546H214.755C214.33 546.004 213.962 546.3 213.856 546.72L209.73 563.72C209.657 564.004 209.717 564.307 209.894 564.538C210.07 564.77 210.343 564.904 210.63 564.9ZM239.194 562.9H211.822L215.498 548H235.46L239.194 562.9Z" fill="white"/>
</g>
</g>
<path id="Shape_67" d="M166 461.867L174.021 454V558.889C174.021 566.13 180.007 572 187.39 572H191" stroke="white" stroke-width="0.5"/>
<path id="Shape_68" d="M215.916 417L224 424.944H187.321C181.73 424.948 176.767 428.596 175 434" stroke="white" stroke-width="0.5"/>
<path id="Shape_69" d="M319 511.77L311.774 518V438.033C311.774 430.835 305.997 425 298.871 425H295" stroke="white" stroke-width="0.5"/>
<path id="Shape_70" d="M267.765 578L261 570.313H298.99C306.175 570.313 312 564.576 312 557.5V538" stroke="white" stroke-width="0.5"/>
<path id="Shape_71" d="M554 458.867L546.258 451V555.889C546.258 563.13 540.481 569 533.355 569H530" stroke="white" stroke-width="0.5"/>
<path id="Shape_72" d="M505.084 415L497 422.944H533.679C539.27 422.948 544.233 426.596 546 432" stroke="white" stroke-width="0.5"/>
<path id="Shape_73" d="M400 508.77L407.257 515V435.033C407.257 427.835 413.059 422 420.216 422H424" stroke="white" stroke-width="0.5"/>
<path id="Shape_74" d="M453.235 576L460 568.313H422.01C414.825 568.313 409 562.576 409 555.5V536" stroke="white" stroke-width="0.5"/>
<path id="Shape_75" fill-rule="evenodd" clip-rule="evenodd" d="M513.312 585.992C512.66 586.047 512.016 585.819 511.553 585.368C511.09 584.918 510.855 584.292 510.912 583.658V581.654H482.913V583.658C482.969 584.292 482.734 584.918 482.271 585.368C481.808 585.819 481.164 586.047 480.512 585.992H473.414C471.823 585.992 471.014 585.079 471.014 583.278V569.859V569.453C470.969 569.153 471.034 568.848 471.196 568.59L471.901 567.626L472.84 566.307C473.441 565.622 474.38 564.557 474.615 564.328L475.554 563.415L472.031 561.792L474.354 556.718L481.399 557.429L481.686 556.87C481.836 556.559 482.029 556.269 482.26 556.008C482.665 555.601 483.032 555.159 483.356 554.689C483.476 554.52 483.607 554.359 483.748 554.207C485.653 552 485.757 552 486.357 552H508.354C509.346 552 509.476 552 510.964 554.131C511.105 554.283 511.236 554.444 511.355 554.613C511.68 555.083 512.046 555.525 512.451 555.932C512.538 556.021 512.609 556.124 512.66 556.236C512.794 556.527 512.98 556.793 513.208 557.023L513.521 557.327L520.723 556.617L522.784 561.69L519.47 563.72L520.305 564.531L520.801 565.039L521.297 565.546L522.471 567.068C522.993 567.829 522.993 567.88 522.993 570.036V583.1C523.048 583.835 522.772 584.557 522.236 585.078C521.7 585.599 520.957 585.868 520.201 585.814L513.312 585.992ZM513.103 584.191H521.323V568.565V568.362L521.114 567.905C520.953 567.534 520.742 567.184 520.488 566.865C520.026 566.226 519.492 565.639 518.896 565.115L517.252 563.593H476.937L474.458 566.13C473.878 566.734 473.378 567.408 472.971 568.134C472.812 568.686 472.759 569.262 472.814 569.833V584.191H481.425V579.853H513.103V584.191ZM515.713 559.61V558.824L519.679 558.19L521.297 560.549L517.957 562.502L516.626 561.208L516.313 560.828C515.956 560.515 515.74 560.077 515.713 559.61ZM474.145 560.498L476.598 562.096L478.372 561.513L478.529 561.36C478.757 561.131 478.942 560.865 479.077 560.574C479.128 560.462 479.199 560.359 479.286 560.27L480.903 558.697H475.998L474.145 560.498ZM514.826 561.64H480.434L486.644 553.75H508.563L514.826 561.64ZM506.789 572.852V571.051H513.103V572.852H506.789ZM481.425 571.051V572.852H487.74V571.051H481.425Z" fill="white"/>
<path id="Shape_76" fill-rule="evenodd" clip-rule="evenodd" d="M476.312 437.992C475.66 438.047 475.016 437.819 474.553 437.368C474.09 436.918 473.855 436.292 473.912 435.658V433.654H445.913V435.658C445.969 436.292 445.734 436.918 445.271 437.368C444.808 437.819 444.164 438.047 443.512 437.992H436.414C434.823 437.992 434.014 437.079 434.014 435.278V421.859V421.453C433.969 421.153 434.034 420.848 434.196 420.59L434.901 419.626L435.84 418.307C436.441 417.622 437.38 416.557 437.615 416.328L438.554 415.415L435.031 413.792L437.354 408.718L444.399 409.429L444.686 408.87C444.836 408.559 445.029 408.269 445.26 408.008C445.665 407.601 446.032 407.159 446.356 406.689C446.476 406.52 446.607 406.359 446.748 406.207C448.653 404 448.757 404 449.357 404H471.354C472.346 404 472.476 404 473.964 406.131C474.105 406.283 474.236 406.444 474.355 406.613C474.68 407.083 475.046 407.525 475.451 407.932C475.505 407.987 475.553 408.048 475.594 408.114C475.6 408.123 475.606 408.133 475.611 408.142C475.619 408.156 475.627 408.169 475.634 408.183C475.643 408.201 475.652 408.218 475.66 408.236C475.794 408.527 475.98 408.793 476.208 409.023L476.521 409.327L483.723 408.617L485.784 413.69L482.47 415.72L483.305 416.531L483.801 417.039L484.297 417.546L485.471 419.068C485.993 419.829 485.993 419.88 485.993 422.036V435.1C486.048 435.835 485.772 436.557 485.236 437.078C484.7 437.599 483.957 437.868 483.201 437.814L476.312 437.992ZM476.103 436.191H484.323V420.565V420.362L484.114 419.905C483.953 419.534 483.742 419.184 483.488 418.865C483.026 418.226 482.492 417.639 481.896 417.115L480.252 415.593H439.937L437.458 418.13C436.878 418.734 436.378 419.408 435.971 420.134C435.812 420.686 435.759 421.262 435.814 421.833V436.191H444.425V431.853H476.103V436.191ZM478.713 411.61V410.824L482.679 410.19L484.297 412.549L480.957 414.502L479.626 413.208L479.313 412.828C478.956 412.515 478.74 412.077 478.713 411.61ZM437.145 412.498L439.598 414.096L441.372 413.513L441.529 413.36C441.757 413.131 441.942 412.865 442.077 412.574C442.101 412.521 442.13 412.47 442.163 412.421C442.199 412.367 442.24 412.317 442.286 412.27L443.903 410.697H438.998L437.145 412.498ZM477.826 413.64H443.434L449.644 405.75H471.563L477.826 413.64ZM469.789 424.852V423.051H476.103V424.852H469.789ZM444.425 423.051V424.852H450.74V423.051H444.425Z" fill="white"/>
<path id="Shape_77" d="M554 140.133L546.258 148V43.1111C546.258 35.87 540.481 30 533.355 30H530" stroke="white" stroke-width="0.5"/>
<path id="Shape_78" d="M505.084 184L497 176.056H533.679C539.27 176.052 544.233 172.404 546 167" stroke="white" stroke-width="0.5"/>
<path id="Shape_79" d="M400 89.2278L407.257 83V162.971C407.257 170.167 413.059 176 420.216 176H424" stroke="white" stroke-width="0.5"/>
<path id="Shape_80" d="M453.235 23L460 30.6775H422.01C414.825 30.6775 409 36.4065 409 43.4734V63" stroke="white" stroke-width="0.5"/>
<path id="Shape_81" fill-rule="evenodd" clip-rule="evenodd" d="M497.26 0L523 30.3505L522.974 30.3762L521.154 31.8693L518.164 28.3168V52H475.784V28.2911L472.794 31.8435L471 30.3505L496.714 0H497.26ZM487.588 49.6832H489.928V36.8119H504.046V49.6832H506.412V51.9486H487.588V49.6832ZM487.588 36.7861V49.6832L478.176 49.6831V25.5366L497 3.29504L515.824 25.5109V49.6575V49.6831L506.412 49.6832V36.7861H487.588ZM487.588 34.4694V29.9128H506.412V34.4694H504.046V32.2555H489.928V34.4694H487.588ZM516.812 3.86139V19.6674L514.446 17.0931V6.28119H504.8L502.772 3.9386H516.578L516.812 3.86139ZM494.166 20.2337H500.042V17.8911H494.166V20.2337Z" fill="white"/>
<path id="Shape_82" fill-rule="evenodd" clip-rule="evenodd" d="M460.26 146L486 176.35L485.974 176.376L484.154 177.869L481.164 174.317V198H438.784V174.291L435.794 177.844L434 176.35L459.714 146H460.26ZM450.588 195.683H452.928V182.812H467.046V195.683H469.412V197.949H450.588V195.683ZM450.588 182.786V195.683H441.176V171.537L460 149.321L478.824 171.537V195.683H469.412V182.786H450.588ZM450.588 180.469V175.913H469.412V180.469H467.046V178.255H452.928V180.469H450.588ZM479.812 149.861V165.667L477.446 163.093V152.333H467.8L465.772 149.99H479.578L479.812 149.861ZM457.166 166.234H463.042V163.891H457.166V166.234Z" fill="white"/>
<path id="Shape_83" d="M165 140.133L172.92 148L173.237 43.1111C173.237 35.87 179.146 30 186.436 30H190" stroke="white" stroke-width="0.5"/>
<path id="Shape_84" d="M215.885 184L224 176.081H187.302C181.703 176.058 176.747 172.399 175 167" stroke="white" stroke-width="0.5"/>
<path id="Shape_85" d="M319 89.2539L311.815 83L311.584 162.971C311.584 170.167 305.819 176 298.708 176H295" stroke="white" stroke-width="0.5"/>
<path id="Shape_86" d="M267.791 23L261 30.6874H298.99C306.175 30.6874 312 36.4236 312 43.4997V63" stroke="white" stroke-width="0.5"/>
<g id="New_Symbol-3">
<g id="New_Symbol">
<path id="Shape_87" d="M258.292 152.522L258.292 152.272L258.292 152.522ZM283 177.341H282.75H283ZM258.292 198.633L258.291 198.883L258.292 198.633ZM279.542 177.341L279.292 177.342L279.542 177.341ZM258.292 152.272C248.166 152.246 239.024 158.338 235.131 167.704L235.593 167.896C239.408 158.717 248.368 152.747 258.291 152.772L258.292 152.272ZM235.131 167.704C231.239 177.07 233.363 187.863 240.514 195.046L240.869 194.693C233.86 187.653 231.778 177.075 235.593 167.896L235.131 167.704ZM240.514 195.046C247.665 202.229 258.432 204.386 267.79 200.509L267.598 200.047C258.428 203.846 247.877 201.733 240.869 194.693L240.514 195.046ZM267.79 200.509C277.147 196.632 283.25 187.487 283.25 177.341H282.75C282.75 187.285 276.769 196.248 267.598 200.047L267.79 200.509ZM283.25 177.341C283.25 163.521 272.087 152.307 258.292 152.272L258.291 152.772C271.809 152.806 282.75 163.796 282.75 177.341H283.25ZM258.292 198.383C246.711 198.372 237.33 188.96 237.333 177.355L236.833 177.355C236.829 189.235 246.434 198.872 258.291 198.883L258.292 198.383ZM237.333 177.355C237.337 165.751 246.725 156.345 258.306 156.341L258.305 155.841C246.448 155.845 236.837 165.476 236.833 177.355L237.333 177.355ZM258.306 156.341C269.886 156.338 279.28 165.737 279.292 177.342L279.792 177.341C279.78 165.461 270.163 155.837 258.305 155.841L258.306 156.341ZM279.292 177.342C279.297 182.924 277.086 188.279 273.147 192.227L273.501 192.58C277.534 188.539 279.797 183.056 279.792 177.341L279.292 177.342ZM273.147 192.227C269.207 196.174 263.863 198.389 258.292 198.383L258.291 198.883C263.996 198.889 269.467 196.621 273.501 192.58L273.147 192.227Z" fill="white"/>
<path id="Shape_88" fill-rule="evenodd" clip-rule="evenodd" d="M263.062 176.674C264.429 175.029 264.862 172.799 264.213 170.761C263.563 168.723 261.919 167.158 259.854 166.612V163.23H258.292V166.362H256.729V163.23H255.167V166.362H250.458V167.927C250.874 167.922 251.275 168.085 251.569 168.38C251.864 168.674 252.027 169.076 252.021 169.493V185.19C252.027 185.607 251.864 186.009 251.569 186.304C251.275 186.599 250.874 186.762 250.458 186.756V188.322H255.167V191.453H256.729V188.322H258.292V191.453H259.854V188.322C262.669 188.321 265.136 186.435 265.88 183.715C266.624 180.995 265.462 178.113 263.042 176.674H263.062ZM258.292 168.47C259.557 168.47 260.726 169.146 261.359 170.244C261.991 171.342 261.991 172.695 261.359 173.793C260.726 174.891 259.557 175.567 258.292 175.567H254.75V168.47H258.292ZM254.75 186.213H260.083V186.234C261.349 186.234 262.518 185.558 263.151 184.46C263.783 183.362 263.783 182.009 263.151 180.911C262.518 179.813 261.349 179.137 260.083 179.137H254.75V186.213Z" fill="white"/>
</g>
</g>
<g id="New_Symbol-6">
<g id="New_Symbol_8">
<path id="Shape_89" d="M225.292 2.52187L225.292 2.27187L225.292 2.52187ZM250 27.3416H249.75H250ZM225.292 48.6335L225.291 48.8835L225.292 48.6335ZM246.542 27.3416L246.292 27.3418L246.542 27.3416ZM225.292 2.27187C215.166 2.24627 206.024 8.33833 202.131 17.7041L202.593 17.8959C206.408 8.71678 215.368 2.74678 225.291 2.77187L225.292 2.27187ZM202.131 17.7041C198.239 27.0697 200.363 37.8628 207.514 45.0458L207.869 44.6931C200.86 37.6534 198.778 27.0752 202.593 17.8959L202.131 17.7041ZM207.514 45.0458C214.665 52.229 225.432 54.3856 234.79 50.5088L234.598 50.0469C225.428 53.846 214.877 51.7327 207.869 44.6931L207.514 45.0458ZM234.79 50.5088C244.147 46.6321 250.25 37.4868 250.25 27.3416H249.75C249.75 37.285 243.769 46.2478 234.598 50.0469L234.79 50.5088ZM250.25 27.3416C250.25 13.5211 239.087 2.30674 225.292 2.27187L225.291 2.77187C238.809 2.80604 249.75 13.7958 249.75 27.3416H250.25ZM225.292 48.3835C213.711 48.3721 204.33 38.9603 204.333 27.3556L203.833 27.3554C203.829 39.2352 213.434 48.8718 225.291 48.8835L225.292 48.3835ZM204.333 27.3556C204.337 15.7509 213.725 6.34523 225.306 6.34143L225.305 5.84143C213.448 5.84532 203.837 15.4756 203.833 27.3554L204.333 27.3556ZM225.306 6.34143C236.886 6.33763 246.28 15.7371 246.292 27.3418L246.792 27.3413C246.78 15.4616 237.163 5.83754 225.305 5.84143L225.306 6.34143ZM246.292 27.3418C246.297 32.9243 244.086 38.2795 240.147 42.2268L240.501 42.58C244.534 38.5388 246.797 33.0562 246.792 27.3413L246.292 27.3418ZM240.147 42.2268C236.207 46.174 230.863 48.389 225.292 48.3835L225.291 48.8835C230.996 48.8891 236.467 46.6212 240.501 42.58L240.147 42.2268Z" fill="white"/>
<path id="Shape_90" fill-rule="evenodd" clip-rule="evenodd" d="M230.062 26.6736C231.429 25.029 231.862 22.7993 231.213 20.7611C230.563 18.7228 228.919 17.1582 226.854 16.6121V13.2304H225.292V16.3616H223.729V13.2304H222.167V16.3616H217.458V17.9271C217.874 17.9215 218.275 18.0846 218.569 18.3795C218.864 18.6743 219.027 19.0758 219.021 19.4927V35.1903C219.027 35.6072 218.864 36.0088 218.569 36.3036C218.275 36.5984 217.874 36.7616 217.458 36.7559V38.3214H222.167V41.4526H223.729V38.3214H225.292V41.4526H226.854V38.3214C229.669 38.3207 232.136 36.4348 232.88 33.7151C233.624 30.9954 232.462 28.1127 230.042 26.6736H230.062ZM225.292 18.4699C226.557 18.4699 227.726 19.1463 228.359 20.2443C228.991 21.3422 228.991 22.6949 228.359 23.7929C227.726 24.8909 226.557 25.5672 225.292 25.5672H221.75V18.4699H225.292ZM221.75 36.2131H227.083V36.234C228.349 36.234 229.518 35.5576 230.151 34.4597C230.783 33.3617 230.783 32.009 230.151 30.911C229.518 29.8131 228.349 29.1367 227.083 29.1367H221.75V36.2131Z" fill="white"/>
</g>
</g>
</g>
<defs>
<filter id="filter0_d" x="258.5" y="197.5" width="206" height="206" filterUnits="userSpaceOnUse" color-interpolation-filters="sRGB">
<feFlood flood-opacity="0" result="BackgroundImageFix"/>
<feColorMatrix in="SourceAlpha" type="matrix" values="0 0 0 0 0 0 0 0 0 0 0 0 0 0 0 0 0 0 127 0"/>
<feOffset/>
<feGaussianBlur stdDeviation="2"/>
<feColorMatrix type="matrix" values="0 0 0 0 1 0 0 0 0 0.968505 0 0 0 0 0.28123 0 0 0 0.240121 0"/>
<feBlend mode="normal" in2="BackgroundImageFix" result="effect1_dropShadow"/>
<feBlend mode="normal" in="SourceGraphic" in2="effect1_dropShadow" result="shape"/>
</filter>
<filter id="filter1_d" x="97" y="35" width="527" height="527" filterUnits="userSpaceOnUse" color-interpolation-filters="sRGB">
<feFlood flood-opacity="0" result="BackgroundImageFix"/>
<feColorMatrix in="SourceAlpha" type="matrix" values="0 0 0 0 0 0 0 0 0 0 0 0 0 0 0 0 0 0 127 0"/>
<feOffset/>
<feGaussianBlur stdDeviation="2"/>
<feColorMatrix type="matrix" values="0 0 0 0 1 0 0 0 0 0.968505 0 0 0 0 0.28123 0 0 0 0.240121 0"/>
<feBlend mode="normal" in2="BackgroundImageFix" result="effect1_dropShadow"/>
<feBlend mode="normal" in="SourceGraphic" in2="effect1_dropShadow" result="shape"/>
</filter>
</defs>
</svg>
