<svg width="182" height="63" viewBox="0 0 182 63" fill="none" xmlns="http://www.w3.org/2000/svg">
<path fill-rule="evenodd" clip-rule="evenodd" d="M14.6709 61.7595L1 53.7847V37.8345L14.6687 29.8608L18.7071 32.1652C18.8947 32.2721 18.9607 32.5124 18.8549 32.702C18.7488 32.8912 18.5109 32.9579 18.3236 32.8513L14.6731 30.7681L1.77978 38.2895V53.3297L14.6709 60.8497L27.562 53.3297V48.6347C27.562 48.4171 27.7365 48.2407 27.9519 48.2407C28.1672 48.2407 28.3418 48.4171 28.3418 48.6347V53.7847L14.6709 61.7595Z" fill="white" stroke="white" stroke-width="0.5"/>
<path fill-rule="evenodd" clip-rule="evenodd" d="M27.9646 42.0127C27.7563 42.0127 27.5874 41.8399 27.5874 41.6268V38.299L24.7367 36.6591C24.5551 36.5545 24.4907 36.3192 24.5928 36.1335C24.6948 35.9479 24.9246 35.8819 25.1064 35.9862L28.3418 37.8475V41.6268C28.3418 41.8399 28.1729 42.0127 27.9646 42.0127Z" fill="white"/>
<path d="M27.9646 42.0127C27.7563 42.0127 27.5874 41.8399 27.5874 41.6268V38.299L24.7367 36.6591C24.5551 36.5545 24.4907 36.3192 24.5928 36.1335C24.6948 35.9479 24.9246 35.8819 25.1064 35.9862L28.3418 37.8475V41.6268C28.3418 41.8399 28.1729 42.0127 27.9646 42.0127" stroke="white" stroke-width="0.5"/>
<path fill-rule="evenodd" clip-rule="evenodd" d="M47.3291 61.7595L33.6582 53.7847V48.6347C33.6582 48.4171 33.8328 48.2407 34.0481 48.2407C34.2635 48.2407 34.438 48.4171 34.438 48.6347V53.3297L47.3291 60.8497L60.2202 53.3297V38.2895L47.3269 30.7681L43.6764 32.8513C43.4887 32.9579 43.251 32.8912 43.1451 32.702C43.0393 32.5124 43.1053 32.2721 43.2929 32.1652L47.3313 29.8608L47.5241 29.9734L61 37.8345V53.7847L47.3291 61.7595Z" fill="white" stroke="white" stroke-width="0.5"/>
<path fill-rule="evenodd" clip-rule="evenodd" d="M34.0354 42.0127C33.8271 42.0127 33.6582 41.8399 33.6582 41.6268V37.8474L36.8936 35.9861C37.0752 35.8819 37.3052 35.9478 37.4072 36.1334C37.5093 36.3192 37.4449 36.5544 37.2633 36.659L34.4126 38.2989V41.6268C34.4126 41.8399 34.2437 42.0127 34.0354 42.0127Z" fill="white"/>
<path d="M34.0354 42.0127C33.8271 42.0127 33.6582 41.8399 33.6582 41.6268V37.8474L36.8936 35.9861C37.0752 35.8819 37.3052 35.9478 37.4072 36.1334C37.5093 36.3192 37.4449 36.5544 37.2633 36.659L34.4126 38.2989V41.6268C34.4126 41.8399 34.2437 42.0127 34.0354 42.0127" stroke="white" stroke-width="0.5"/>
<path fill-rule="evenodd" clip-rule="evenodd" d="M40.5984 27.4596C40.4615 27.4596 40.3282 27.3897 40.2544 27.2645C40.1439 27.077 40.208 26.8365 40.3978 26.7273L44.0924 24.6004L44.176 9.59989L31.0698 2.02944L17.8801 9.45716L17.7965 24.4549L20.7596 26.1664C20.9491 26.2759 21.013 26.5166 20.902 26.7039C20.7912 26.8912 20.5479 26.9543 20.3581 26.8447L16.9988 24.9042L17.0873 8.99897L31.0748 1.12224L44.9737 9.15061L44.8852 25.0534L40.7981 27.4061C40.7352 27.4424 40.6664 27.4596 40.5984 27.4596Z" fill="white"/>
<path d="M40.5984 27.4596C40.4615 27.4596 40.3282 27.3897 40.2544 27.2645C40.1439 27.077 40.208 26.8365 40.3978 26.7273L44.0924 24.6004L44.176 9.59989L31.0698 2.02944L17.8801 9.45716L17.7965 24.4549L20.7596 26.1664C20.9491 26.2759 21.013 26.5166 20.902 26.7039C20.7912 26.8912 20.5479 26.9543 20.3581 26.8447L16.9988 24.9042L17.0873 8.99897L31.0748 1.12224L44.9737 9.15061L44.8852 25.0534L40.7981 27.4061C40.7352 27.4424 40.6664 27.4596 40.5984 27.4596" stroke="white" stroke-width="0.5"/>
<path fill-rule="evenodd" clip-rule="evenodd" d="M31.0162 33.6582L27.7671 31.4307C27.5877 31.3075 27.5287 31.0402 27.6356 30.8334C27.7423 30.6265 27.9745 30.5584 28.154 30.6817L31.0193 32.6462L33.8484 30.7388C34.0287 30.6168 34.2603 30.6871 34.3659 30.8948C34.4714 31.1026 34.4107 31.3694 34.2304 31.491L31.0162 33.6582Z" fill="white" stroke="white" stroke-width="0.5"/>
<path fill-rule="evenodd" clip-rule="evenodd" d="M38.7479 45.8101H23.2521C22.7074 45.8101 22.2658 45.3002 22.2658 44.6709C22.2658 44.0416 22.7074 43.5316 23.2521 43.5316H38.7479C39.2926 43.5316 39.7342 44.0416 39.7342 44.6709C39.7342 45.3002 39.2926 45.8101 38.7479 45.8101Z" fill="white"/>
<path fill-rule="evenodd" clip-rule="evenodd" d="M43.2855 38.9747C42.9333 38.9747 42.5916 38.7905 42.4071 38.4629L34.5466 24.5175C34.2747 24.0349 34.4471 23.4243 34.9319 23.1536C35.4162 22.8831 36.0298 23.0543 36.3018 23.5371L44.1623 37.4825C44.4342 37.965 44.2617 38.5757 43.777 38.8464C43.6214 38.9334 43.4523 38.9747 43.2855 38.9747Z" fill="white"/>
<path fill-rule="evenodd" clip-rule="evenodd" d="M18.7145 38.9747C18.5477 38.9747 18.3788 38.9334 18.223 38.8464C17.7383 38.5757 17.5658 37.965 17.8377 37.4825L25.6982 23.5371C25.9703 23.0545 26.5836 22.8829 27.0683 23.1536C27.5529 23.4244 27.7253 24.035 27.4534 24.5176L19.593 38.4629C19.4085 38.7905 19.0667 38.9747 18.7145 38.9747Z" fill="white"/>
<path d="M81.245 48V27.2H83.245V48H81.245ZM81.245 22.48V18.8H83.245V22.48H81.245Z" fill="white"/>
<path d="M90.1263 48V19.6H108.606V21.44H92.1663V32.72H106.126V34.48H92.1663V48H90.1263Z" fill="white"/>
<path d="M119.671 19.6H121.431L133.431 48H131.271L127.311 38.64H113.751L109.791 48H107.591L119.671 19.6ZM126.751 36.96L120.551 22.08L114.231 36.96H126.751Z" fill="white"/>
<path d="M153.834 24.32C151.994 22.2667 149.394 21.24 146.034 21.24C143.26 21.24 141.234 21.7733 139.954 22.84C138.7 23.88 138.074 25.2933 138.074 27.08C138.074 27.9867 138.234 28.7467 138.554 29.36C138.874 29.9467 139.367 30.4533 140.034 30.88C140.727 31.3067 141.594 31.6667 142.634 31.96C143.674 32.2533 144.927 32.56 146.394 32.88C147.914 33.2 149.287 33.56 150.514 33.96C151.767 34.3333 152.82 34.8133 153.674 35.4C154.554 35.9867 155.22 36.7067 155.674 37.56C156.154 38.4133 156.394 39.4667 156.394 40.72C156.394 41.9733 156.14 43.0667 155.634 44C155.154 44.9333 154.46 45.72 153.554 46.36C152.674 46.9733 151.607 47.44 150.354 47.76C149.127 48.08 147.754 48.24 146.234 48.24C141.807 48.24 138.06 46.8267 134.994 44L136.074 42.36C137.274 43.6133 138.74 44.6133 140.474 45.36C142.207 46.08 144.154 46.44 146.314 46.44C148.794 46.44 150.727 45.9867 152.114 45.08C153.527 44.1733 154.234 42.8 154.234 40.96C154.234 40.0267 154.047 39.24 153.674 38.6C153.3 37.9333 152.74 37.36 151.994 36.88C151.274 36.4 150.354 35.9867 149.234 35.64C148.114 35.2933 146.807 34.96 145.314 34.64C143.794 34.32 142.447 33.9867 141.274 33.64C140.127 33.2667 139.154 32.8133 138.354 32.28C137.58 31.72 136.994 31.0533 136.594 30.28C136.194 29.5067 135.994 28.5333 135.994 27.36C135.994 26.08 136.234 24.9467 136.714 23.96C137.22 22.9733 137.914 22.1467 138.794 21.48C139.674 20.7867 140.727 20.2667 141.954 19.92C143.18 19.5733 144.54 19.4 146.034 19.4C147.874 19.4 149.514 19.68 150.954 20.24C152.394 20.7733 153.7 21.6 154.874 22.72L153.834 24.32Z" fill="white"/>
<path d="M181.177 21.44H170.777V48H168.737V21.44H158.337V19.6H181.177V21.44Z" fill="white"/>
</svg>
