<?xml version="1.0" standalone="no"?><!DOCTYPE svg PUBLIC "-//W3C//DTD SVG 1.1//EN" "http://www.w3.org/Graphics/SVG/1.1/DTD/svg11.dtd"><svg t="1543107279286" class="icon" style="fill:white" viewBox="0 0 1024 1024" version="1.1" xmlns="http://www.w3.org/2000/svg" p-id="1937" xmlns:xlink="http://www.w3.org/1999/xlink" width="200" height="200"><defs><style type="text/css"></style></defs><path d="M896 332.8v-25.6c38.4-29.866667 72.533333-64 98.133333-106.666667-34.133333 17.066667-72.533333 25.6-115.2 29.866667 42.666667-25.6 72.533333-64 85.333334-115.2-38.4 21.333333-81.066667 38.4-123.733334 46.933333-34.133333-42.666667-85.333333-68.266667-145.066666-68.266666-110.933333 0-196.266667 89.6-196.266667 204.8 0 17.066667 0 34.133333 4.266667 46.933333C341.333333 341.333333 196.266667 256 98.133333 128c-17.066667 29.866667-25.6 68.266667-25.6 106.666667 0 72.533333 34.133333 136.533333 89.6 174.933333-34.133333 0-64-8.533333-93.866666-25.6v4.266667c0 102.4 68.266667 187.733333 157.866666 209.066666-12.8 0-29.866667 4.266667-51.2 4.266667-12.8 0-25.6 0-38.4-4.266667 25.6 85.333333 98.133333 145.066667 183.466667 145.066667C256 797.866667 170.666667 832 76.8 832c-17.066667 0-29.866667 0-46.933333-4.266667 85.333333 59.733333 192 93.866667 302.933333 93.866667 362.666667 4.266667 563.2-311.466667 563.2-588.8z" p-id="1938"></path></svg>