<svg width="70" height="62" viewBox="0 0 70 62" fill="none" xmlns="http://www.w3.org/2000/svg">
<path fill-rule="evenodd" clip-rule="evenodd" d="M43.5902 10.1882C43.5902 10.9133 43.6604 11.6226 43.8085 12.3008C46.2172 14.0312 48.1035 16.4399 49.1793 19.2463C50.5513 19.9321 52.0946 20.322 53.7239 20.322C59.3207 20.322 63.8574 15.7852 63.8574 10.1882C63.8574 4.59155 59.3207 0.0546875 53.7239 0.0546875C48.127 0.0546875 43.5902 4.59155 43.5902 10.1882ZM65.6815 32.6069H69.9376C67.069 25.3574 60.8875 20.3374 53.7238 20.3452C52.3363 20.3452 50.9955 20.5322 49.7015 20.8831C50.0211 22.1069 50.1926 23.4009 50.1926 24.7261V24.804C51.3307 24.4299 52.5156 24.2349 53.7238 24.2349C57.3407 24.2349 60.7783 25.9656 63.4131 29.1069C64.2939 30.1592 65.05 31.3286 65.6815 32.6069ZM45.9365 10.1885C45.9365 14.4812 49.431 17.9758 53.7239 17.9758C58.0166 17.9758 61.5111 14.4812 61.5111 10.1885C61.5111 5.89575 58.0166 2.40112 53.7239 2.40112C49.431 2.40112 45.9365 5.89575 45.9365 10.1885ZM19.6359 24.7185V24.7419C18.5446 24.4067 17.4221 24.2351 16.2762 24.2273C12.6593 24.2273 9.22168 25.958 6.58691 29.0994C5.70605 30.1516 4.94995 31.321 4.31848 32.5994H0.0623779C2.93103 25.3499 9.12024 20.3298 16.2839 20.3298C17.6013 20.3298 18.8954 20.5012 20.1348 20.8286C19.8074 22.0681 19.6359 23.3777 19.6359 24.7185ZM6.14258 10.1882C6.14258 4.59155 10.6793 0.0546875 16.2762 0.0546875C21.873 0.0546875 26.4098 4.59155 26.4098 10.1882C26.4098 10.8586 26.3475 11.5212 26.215 12.1526C23.6737 13.9143 21.7015 16.4165 20.5947 19.3555C19.2852 19.9712 17.8196 20.322 16.2684 20.322C10.6793 20.322 6.14258 15.7852 6.14258 10.1882ZM16.2761 17.6995C12.1356 17.6995 8.76501 14.3289 8.76501 10.1885C8.76501 6.04785 12.1356 2.67725 16.2761 2.67725C20.4166 2.67725 23.7872 6.04785 23.7872 10.1885C23.7872 14.3289 20.4166 17.6995 16.2761 17.6995ZM61.5813 61.8386H57.6526C57.3643 59.8198 56.8419 57.8633 56.078 55.9768C54.9087 53.0925 53.2406 50.5046 51.1125 48.2908C49.0001 46.0847 46.5369 44.3542 43.8008 43.146C40.9867 41.9067 37.9934 41.2751 34.9065 41.2751C31.8197 41.2751 28.8263 41.9067 26.0123 43.146C23.2762 44.3542 20.8208 46.0847 18.7006 48.2908C16.5724 50.5125 14.9043 53.0925 13.735 55.9768C12.9711 57.8633 12.441 59.8276 12.1604 61.8386H8.23169C9.85303 48.6338 20.2673 38.2898 33.1604 37.4324C26.9087 36.5825 22.0836 31.2195 22.0836 24.7263C22.0836 17.6406 27.8208 11.9033 34.9065 11.9033C41.9923 11.9033 47.7295 17.6406 47.7295 24.7263C47.7295 31.2117 42.9121 36.5747 36.6526 37.4324C49.5458 38.2898 59.9678 48.626 61.5813 61.8386ZM42.0784 31.8901C40.1591 33.8005 37.6207 34.853 34.9143 34.853C32.2079 34.853 29.6606 33.8005 27.7502 31.8901C25.8398 29.9709 24.7874 27.4324 24.7874 24.7261C24.7874 22.0198 25.8398 19.4724 27.7502 17.562C29.6696 15.6516 32.2079 14.5991 34.9143 14.5991C37.6207 14.5991 40.168 15.6516 42.0784 17.562C43.9888 19.4812 45.0413 22.0198 45.0413 24.7261C45.0413 27.4324 43.9888 29.9797 42.0784 31.8901Z" fill="#A087FF"/>
</svg>
