<svg width="271" height="159" viewBox="0 0 271 159" fill="none" xmlns="http://www.w3.org/2000/svg">
<g id="Decentralized_Asset">
<g id="Shape" opacity="0.688958">
<path id="Shape_2" d="M254.174 93.9943H255.826C256.23 94.035 256.623 93.8549 256.838 93.5305C257.054 93.206 257.054 92.794 256.838 92.4695C256.623 92.1451 256.23 91.965 255.826 92.0057H254.174C253.77 91.965 253.377 92.1451 253.162 92.4695C252.946 92.794 252.946 93.206 253.162 93.5305C253.377 93.8549 253.77 94.035 254.174 93.9943Z" fill="#A087FF"/>
<path id="Shape_3" d="M248.933 79.9943H250.246C250.675 79.9399 251 79.5111 251 79C251 78.4889 250.675 78.0601 250.246 78.0057H248.933C248.612 77.965 248.3 78.1451 248.128 78.4695C247.957 78.794 247.957 79.206 248.128 79.5305C248.3 79.8549 248.612 80.035 248.933 79.9943Z" fill="#A087FF"/>
<path id="Shape_4" d="M259.174 93.9943H260.826C261.23 94.035 261.623 93.8549 261.838 93.5305C262.054 93.206 262.054 92.794 261.838 92.4695C261.623 92.1451 261.23 91.965 260.826 92.0057H259.174C258.77 91.965 258.377 92.1451 258.162 92.4695C257.946 92.794 257.946 93.206 258.162 93.5305C258.377 93.8549 258.77 94.035 259.174 93.9943Z" fill="#A087FF"/>
<path id="Shape_5" d="M253.933 79.9943H255.246C255.675 79.9399 256 79.5111 256 79C256 78.4889 255.675 78.0601 255.246 78.0057H253.933C253.612 77.965 253.3 78.1451 253.128 78.4695C252.957 78.794 252.957 79.206 253.128 79.5305C253.3 79.8549 253.612 80.035 253.933 79.9943Z" fill="#A087FF"/>
<path id="Shape_6" d="M249.174 93.9943H250.826C251.23 94.035 251.623 93.8549 251.838 93.5305C252.054 93.206 252.054 92.794 251.838 92.4695C251.623 92.1451 251.23 91.965 250.826 92.0057H249.174C248.77 91.965 248.377 92.1451 248.162 92.4695C247.946 92.794 247.946 93.206 248.162 93.5305C248.377 93.8549 248.77 94.035 249.174 93.9943Z" fill="#A087FF"/>
<path id="Shape_7" d="M258.87 80H260.223C260.665 79.9453 261 79.5143 261 79.0006C261 78.4869 260.665 78.0558 260.223 78.0011H258.87C258.636 77.9879 258.409 78.0896 258.243 78.281C258.077 78.4725 257.99 78.7359 258.001 79.0063C258.006 79.5569 258.394 80 258.87 80Z" fill="#A087FF"/>
<path id="Shape_8" d="M263.001 85.9989C263.553 85.9989 264 85.5514 264 84.9994C264 84.4475 263.553 84 263.001 84C262.449 84 262.001 84.4475 262.001 84.9994C261.988 85.2683 262.089 85.5302 262.279 85.7206C262.47 85.9109 262.732 86.012 263.001 85.9989Z" fill="#A087FF"/>
<path id="Shape_9" fill-rule="evenodd" clip-rule="evenodd" d="M267.59 80.4466V73.8345C267.59 72.865 267.205 71.9354 266.521 71.2498C265.838 70.5643 264.91 70.179 263.943 70.179H262.935L260.931 62.6937C260.665 61.7625 260.049 60.971 259.213 60.4854C258.382 59.9969 257.388 59.8707 256.462 60.136L239.248 64.6649C238.293 64.8814 237.475 65.4935 236.995 66.3489C236.509 67.2081 236.367 68.2205 236.597 69.181L236.921 70.2415H236.647C234.657 70.2413 233.034 71.8401 233 73.8345V94.3445C233 96.3636 234.633 98.0001 236.647 98.0001H263.93C265.944 98.0001 267.577 96.3636 267.577 94.3445V91.1634C269.484 91.0457 270.978 89.473 271 87.5579V84.0897C270.997 82.1646 269.506 80.5716 267.59 80.4466ZM236.659 73.5975C236.15 73.595 235.648 73.7103 235.191 73.9344V73.8345C235.191 73.0215 235.848 72.3624 236.659 72.3624H237.493L237.804 73.6099L236.659 73.5975ZM236.659 75.7808C235.848 75.7808 235.191 76.44 235.191 77.253V94.3946C235.191 94.7852 235.345 95.1595 235.621 95.4356C235.896 95.7117 236.27 95.8668 236.659 95.8668H263.943C264.332 95.8668 264.706 95.7117 264.981 95.4356C265.257 95.1595 265.411 94.7852 265.411 94.3946V91.2134H262.237C260.223 91.2134 258.591 89.5767 258.591 87.5579V84.0897C258.591 83.1202 258.975 82.1905 259.659 81.5049C260.343 80.8194 261.27 80.4344 262.237 80.4344H265.411V77.253C265.411 77.0211 265.357 76.7947 265.255 76.5914C265.218 76.5184 265.175 76.4481 265.126 76.3817C265.083 76.3218 265.034 76.265 264.981 76.212C264.706 75.9358 264.332 75.7808 263.943 75.7808H236.659ZM260.769 84.0894C260.755 83.6905 260.904 83.303 261.181 83.0162C261.458 82.7291 261.839 82.5672 262.237 82.5674H267.353C268.164 82.5674 268.822 83.2266 268.822 84.0396V87.5577C268.822 87.9483 268.667 88.3226 268.392 88.5987C268.116 88.8748 267.743 89.0298 267.353 89.0298H262.237C261.848 89.0298 261.474 88.8748 261.199 88.5987C260.923 88.3226 260.769 87.9483 260.769 87.5577V84.0894ZM263.943 72.3624H263.482L263.781 73.5975H263.93C264.441 73.6175 264.941 73.7449 265.399 73.9717V73.8345C265.399 73.0264 264.749 72.3692 263.943 72.3624ZM239.136 69.9546L238.775 68.5574C238.725 68.3914 238.705 68.2198 238.715 68.0501C238.727 67.8306 238.788 67.6143 238.897 67.418C239.089 67.0704 239.413 66.8152 239.796 66.711L257.022 62.1822C257.42 62.064 257.849 62.1182 258.205 62.3318C258.514 62.525 258.723 62.8443 258.777 63.2051L259.138 64.6026L239.136 69.9546ZM260.594 70.0294L247.164 73.5975H261.565L260.594 70.0294Z" fill="#A087FF"/>
<path id="Shape_10" d="M239.15 93.9943H240.826C241.23 94.035 241.623 93.8549 241.838 93.5305C242.054 93.206 242.054 92.794 241.838 92.4695C241.623 92.1451 241.23 91.965 240.826 92.0057H239.174C238.77 91.965 238.377 92.1451 238.162 92.4695C237.946 92.794 237.946 93.206 238.162 93.5305C238.377 93.8549 238.77 94.035 239.174 93.9943H239.15Z" fill="#A087FF"/>
<path id="Shape_11" d="M244.174 93.9943H245.826C246.23 94.035 246.623 93.8549 246.838 93.5305C247.054 93.206 247.054 92.794 246.838 92.4695C246.623 92.1451 246.23 91.965 245.826 92.0057H244.174C243.77 91.965 243.377 92.1451 243.162 92.4695C242.946 92.794 242.946 93.206 243.162 93.5305C243.377 93.8549 243.77 94.035 244.174 93.9943Z" fill="#A087FF"/>
<path id="Shape_12" d="M238.914 79.9943H240.246C240.675 79.9399 241 79.5111 241 79C241 78.4889 240.675 78.0601 240.246 78.0057H238.933C238.612 77.965 238.3 78.1451 238.128 78.4695C237.957 78.794 237.957 79.206 238.128 79.5305C238.3 79.8549 238.612 80.035 238.933 79.9943H238.914Z" fill="#A087FF"/>
<path id="Shape_13" d="M243.754 79.9943H245.067C245.388 80.035 245.7 79.8549 245.872 79.5305C246.043 79.206 246.043 78.794 245.872 78.4695C245.7 78.1451 245.388 77.965 245.067 78.0057H243.754C243.325 78.0601 243 78.4889 243 79C243 79.5111 243.325 79.9399 243.754 79.9943Z" fill="#A087FF"/>
</g>
<g id="Shape Copy 2" opacity="0.688958">
<path id="Shape_14" d="M185.174 33.9943H186.826C187.23 34.035 187.623 33.8549 187.838 33.5305C188.054 33.206 188.054 32.794 187.838 32.4695C187.623 32.1451 187.23 31.965 186.826 32.0057H185.174C184.77 31.965 184.377 32.1451 184.162 32.4695C183.946 32.794 183.946 33.206 184.162 33.5305C184.377 33.8549 184.77 34.035 185.174 33.9943Z" fill="#A087FF"/>
<path id="Shape_15" d="M179.933 19.9943H181.246C181.675 19.9399 182 19.5111 182 19C182 18.4889 181.675 18.0601 181.246 18.0057H179.933C179.612 17.965 179.3 18.1451 179.128 18.4695C178.957 18.794 178.957 19.206 179.128 19.5305C179.3 19.8549 179.612 20.035 179.933 19.9943Z" fill="#A087FF"/>
<path id="Shape_16" d="M190.174 33.9943H191.826C192.23 34.035 192.623 33.8549 192.838 33.5305C193.054 33.206 193.054 32.794 192.838 32.4695C192.623 32.1451 192.23 31.965 191.826 32.0057H190.174C189.77 31.965 189.377 32.1451 189.162 32.4695C188.946 32.794 188.946 33.206 189.162 33.5305C189.377 33.8549 189.77 34.035 190.174 33.9943Z" fill="#A087FF"/>
<path id="Shape_17" d="M184.933 19.9943H186.246C186.675 19.9399 187 19.5111 187 19C187 18.4889 186.675 18.0601 186.246 18.0057H184.933C184.612 17.965 184.3 18.1451 184.128 18.4695C183.957 18.794 183.957 19.206 184.128 19.5305C184.3 19.8549 184.612 20.035 184.933 19.9943Z" fill="#A087FF"/>
<path id="Shape_18" d="M180.174 33.9943H181.826C182.23 34.035 182.623 33.8549 182.838 33.5305C183.054 33.206 183.054 32.794 182.838 32.4695C182.623 32.1451 182.23 31.965 181.826 32.0057H180.174C179.77 31.965 179.377 32.1451 179.162 32.4695C178.946 32.794 178.946 33.206 179.162 33.5305C179.377 33.8549 179.77 34.035 180.174 33.9943Z" fill="#A087FF"/>
<path id="Shape_19" d="M189.87 20H191.223C191.665 19.9453 192 19.5143 192 19.0006C192 18.4869 191.665 18.0558 191.223 18.0011H189.87C189.636 17.9879 189.409 18.0896 189.243 18.281C189.077 18.4725 188.99 18.7359 189.001 19.0063C189.006 19.5569 189.394 20 189.87 20Z" fill="#A087FF"/>
<path id="Shape_20" d="M194.001 25.9989C194.553 25.9989 195 25.5514 195 24.9994C195 24.4475 194.553 24 194.001 24C193.449 24 193.001 24.4475 193.001 24.9994C192.988 25.2683 193.089 25.5302 193.279 25.7206C193.47 25.9109 193.732 26.012 194.001 25.9989Z" fill="#A087FF"/>
<path id="Shape_21" fill-rule="evenodd" clip-rule="evenodd" d="M198.59 20.4466V13.8345C198.59 12.865 198.205 11.9354 197.521 11.2498C196.838 10.5643 195.91 10.179 194.943 10.179H193.935L191.931 2.69366C191.665 1.76251 191.049 0.971006 190.213 0.48541C189.382 -0.00311554 188.388 -0.129336 187.462 0.136045L170.248 4.66485C169.293 4.88141 168.475 5.49347 167.995 6.34894C167.509 7.20807 167.367 8.22052 167.597 9.18097L167.921 10.2415H167.647C165.657 10.2413 164.034 11.8401 164 13.8345V34.3445C164 36.3636 165.633 38.0001 167.647 38.0001H194.93C196.944 38.0001 198.577 36.3636 198.577 34.3445V31.1634C200.484 31.0457 201.978 29.473 202 27.5579V24.0897C201.997 22.1646 200.506 20.5716 198.59 20.4466ZM167.659 13.5975C167.15 13.595 166.648 13.7103 166.191 13.9344V13.8345C166.191 13.0215 166.848 12.3624 167.659 12.3624H168.493L168.804 13.6099L167.659 13.5975ZM167.659 15.7808C166.848 15.7808 166.191 16.44 166.191 17.253V34.3946C166.191 34.7852 166.345 35.1595 166.621 35.4356C166.896 35.7117 167.27 35.8668 167.659 35.8668H194.943C195.332 35.8668 195.706 35.7117 195.981 35.4356C196.257 35.1595 196.411 34.7852 196.411 34.3946V31.2134H193.237C191.223 31.2134 189.591 29.5767 189.591 27.5579V24.0897C189.591 23.1202 189.975 22.1905 190.659 21.5049C191.343 20.8194 192.27 20.4344 193.237 20.4344H196.411V17.253C196.411 16.8626 196.257 16.4881 195.981 16.212C195.706 15.9358 195.332 15.7808 194.943 15.7808H167.659ZM191.769 24.0894C191.755 23.6905 191.904 23.303 192.181 23.0162C192.458 22.7291 192.839 22.5672 193.237 22.5674H198.353C199.164 22.5674 199.822 23.2266 199.822 24.0396V27.5577C199.822 27.9483 199.667 28.3226 199.392 28.5987C199.116 28.8748 198.743 29.0298 198.353 29.0298H193.237C192.848 29.0298 192.474 28.8748 192.199 28.5987C191.923 28.3226 191.769 27.9483 191.769 27.5577V24.0894ZM194.943 12.3624H194.482L194.781 13.5975H194.93C195.441 13.6175 195.941 13.7449 196.399 13.9717V13.8345C196.399 13.0264 195.749 12.3692 194.943 12.3624ZM170.136 9.95465L169.775 8.55743C169.661 8.17682 169.704 7.76593 169.897 7.41803C170.089 7.07037 170.413 6.81524 170.796 6.711L188.022 2.18219C188.42 2.06402 188.849 2.11822 189.205 2.33185C189.514 2.52496 189.723 2.8443 189.777 3.20514L190.138 4.6026L170.136 9.95465ZM191.594 10.0294L178.164 13.5975H192.565L191.594 10.0294Z" fill="#A087FF"/>
<path id="Shape_22" d="M170.15 33.9943H171.826C172.23 34.035 172.623 33.8549 172.838 33.5305C173.054 33.206 173.054 32.794 172.838 32.4695C172.623 32.1451 172.23 31.965 171.826 32.0057H170.174C169.77 31.965 169.377 32.1451 169.162 32.4695C168.946 32.794 168.946 33.206 169.162 33.5305C169.377 33.8549 169.77 34.035 170.174 33.9943H170.15Z" fill="#A087FF"/>
<path id="Shape_23" d="M175.174 33.9943H176.826C177.23 34.035 177.623 33.8549 177.838 33.5305C178.054 33.206 178.054 32.794 177.838 32.4695C177.623 32.1451 177.23 31.965 176.826 32.0057H175.174C174.77 31.965 174.377 32.1451 174.162 32.4695C173.946 32.794 173.946 33.206 174.162 33.5305C174.377 33.8549 174.77 34.035 175.174 33.9943Z" fill="#A087FF"/>
<path id="Shape_24" d="M169.914 19.9943H171.246C171.675 19.9399 172 19.5111 172 19C172 18.4889 171.675 18.0601 171.246 18.0057H169.933C169.612 17.965 169.3 18.1451 169.128 18.4695C168.957 18.794 168.957 19.206 169.128 19.5305C169.3 19.8549 169.612 20.035 169.933 19.9943H169.914Z" fill="#A087FF"/>
<path id="Shape_25" d="M174.754 19.9943H176.067C176.388 20.035 176.7 19.8549 176.872 19.5305C177.043 19.206 177.043 18.794 176.872 18.4695C176.7 18.1451 176.388 17.965 176.067 18.0057H174.754C174.325 18.0601 174 18.4889 174 19C174 19.5111 174.325 19.9399 174.754 19.9943Z" fill="#A087FF"/>
</g>
<g id="Shape Copy" opacity="0.688958">
<path id="Shape_26" d="M93.174 154.994H94.826C95.2298 155.035 95.6229 154.855 95.8384 154.53C96.0539 154.206 96.0539 153.794 95.8384 153.47C95.6229 153.145 95.2298 152.965 94.826 153.006H93.174C92.7702 152.965 92.3771 153.145 92.1616 153.47C91.9461 153.794 91.9461 154.206 92.1616 154.53C92.3771 154.855 92.7702 155.035 93.174 154.994Z" fill="#A087FF"/>
<path id="Shape_27" d="M87.9332 140.994H89.2463C89.675 140.94 90 140.511 90 140C90 139.489 89.675 139.06 89.2463 139.006H87.9332C87.6122 138.965 87.2997 139.145 87.1285 139.47C86.9572 139.794 86.9572 140.206 87.1285 140.53C87.2997 140.855 87.6122 141.035 87.9332 140.994Z" fill="#A087FF"/>
<path id="Shape_28" d="M98.174 154.994H99.826C100.23 155.035 100.623 154.855 100.838 154.53C101.054 154.206 101.054 153.794 100.838 153.47C100.623 153.145 100.23 152.965 99.826 153.006H98.174C97.7702 152.965 97.3771 153.145 97.1616 153.47C96.9461 153.794 96.9461 154.206 97.1616 154.53C97.3771 154.855 97.7702 155.035 98.174 154.994Z" fill="#A087FF"/>
<path id="Shape_29" d="M92.9332 140.994H94.2463C94.675 140.94 95 140.511 95 140C95 139.489 94.675 139.06 94.2463 139.006H92.9332C92.6122 138.965 92.2997 139.145 92.1285 139.47C91.9572 139.794 91.9572 140.206 92.1285 140.53C92.2997 140.855 92.6122 141.035 92.9332 140.994Z" fill="#A087FF"/>
<path id="Shape_30" d="M88.174 154.994H89.826C90.2298 155.035 90.6229 154.855 90.8384 154.53C91.0539 154.206 91.0539 153.794 90.8384 153.47C90.6229 153.145 90.2298 152.965 89.826 153.006H88.174C87.7702 152.965 87.3771 153.145 87.1616 153.47C86.9461 153.794 86.9461 154.206 87.1616 154.53C87.3771 154.855 87.7702 155.035 88.174 154.994Z" fill="#A087FF"/>
<path id="Shape_31" d="M97.8702 141H99.2233C99.665 140.945 100 140.514 100 140.001C100 139.487 99.665 139.056 99.2233 139.001H97.8702C97.6363 138.988 97.4086 139.09 97.243 139.281C97.0775 139.472 96.9896 139.736 97.001 140.006C97.0064 140.557 97.394 141 97.8702 141Z" fill="#A087FF"/>
<path id="Shape_32" d="M102.001 146.999C102.553 146.999 103 146.551 103 145.999C103 145.447 102.553 145 102.001 145C101.449 145 101.001 145.447 101.001 145.999C100.988 146.268 101.089 146.53 101.279 146.721C101.47 146.911 101.732 147.012 102.001 146.999Z" fill="#A087FF"/>
<path id="Shape_33" fill-rule="evenodd" clip-rule="evenodd" d="M106.59 141.447V134.835C106.59 133.865 106.205 132.935 105.521 132.25C104.838 131.564 103.91 131.179 102.943 131.179H101.935L99.9305 123.694C99.6646 122.763 99.049 121.971 98.2129 121.485C97.3822 120.997 96.3882 120.871 95.4622 121.136L78.2483 125.665C77.2935 125.881 76.4749 126.493 75.9954 127.349C75.5089 128.208 75.3665 129.221 75.5971 130.181L75.9207 131.242H75.6469C73.6569 131.241 72.0339 132.84 72 134.835V155.345C72 157.364 73.6328 159 75.6469 159H102.93C104.944 159 106.577 157.364 106.577 155.345V152.163C108.484 152.046 109.978 150.473 110 148.558V145.09C109.997 143.165 108.506 141.572 106.59 141.447ZM75.6593 134.597C75.1505 134.595 74.6478 134.71 74.1906 134.934V134.835C74.1906 134.022 74.8482 133.362 75.6593 133.362H76.4933L76.8044 134.61L75.6593 134.597ZM75.6593 136.781C74.8482 136.781 74.1906 137.44 74.1906 138.253V155.395C74.1906 155.785 74.3453 156.159 74.6208 156.436C74.8962 156.712 75.2698 156.867 75.6593 156.867H102.943C103.332 156.867 103.706 156.712 103.981 156.436C104.257 156.159 104.411 155.785 104.411 155.395V152.213H101.237C99.2233 152.213 97.5906 150.577 97.5906 148.558V145.09C97.5906 144.12 97.9748 143.19 98.6587 142.505C99.3427 141.819 100.27 141.434 101.237 141.434H104.411V138.253C104.411 137.863 104.257 137.488 103.981 137.212C103.706 136.936 103.332 136.781 102.943 136.781H75.6593ZM99.7687 145.089C99.7552 144.69 99.904 144.303 100.181 144.016C100.458 143.729 100.839 143.567 101.237 143.567H106.353C107.164 143.567 107.822 144.227 107.822 145.04V148.558C107.822 148.948 107.667 149.323 107.392 149.599C107.116 149.875 106.743 150.03 106.353 150.03H101.237C100.848 150.03 100.474 149.875 100.199 149.599C99.9235 149.323 99.7687 148.948 99.7687 148.558V145.089ZM102.943 133.362H102.482L102.781 134.597H102.93C103.441 134.617 103.941 134.745 104.399 134.972V134.835C104.399 134.026 103.749 133.369 102.943 133.362ZM78.1363 130.955L77.7753 129.557C77.6606 129.177 77.7043 128.766 77.8965 128.418C78.0887 128.07 78.4132 127.815 78.796 127.711L96.0223 123.182C96.42 123.064 96.8489 123.118 97.2047 123.332C97.5139 123.525 97.7231 123.844 97.7773 124.205L98.1382 125.603L78.1363 130.955ZM99.5945 131.029L86.1644 134.597H100.565L99.5945 131.029Z" fill="#A087FF"/>
<path id="Shape_34" d="M78.1499 154.994H79.826C80.2298 155.035 80.6229 154.855 80.8384 154.53C81.0539 154.206 81.0539 153.794 80.8384 153.47C80.6229 153.145 80.2298 152.965 79.826 153.006H78.174C77.7702 152.965 77.3771 153.145 77.1616 153.47C76.9461 153.794 76.9461 154.206 77.1616 154.53C77.3771 154.855 77.7702 155.035 78.174 154.994H78.1499Z" fill="#A087FF"/>
<path id="Shape_35" d="M83.174 154.994H84.826C85.2298 155.035 85.6229 154.855 85.8384 154.53C86.0539 154.206 86.0539 153.794 85.8384 153.47C85.6229 153.145 85.2298 152.965 84.826 153.006H83.174C82.7702 152.965 82.3771 153.145 82.1616 153.47C81.9461 153.794 81.9461 154.206 82.1616 154.53C82.3771 154.855 82.7702 155.035 83.174 154.994Z" fill="#A087FF"/>
<path id="Shape_36" d="M77.9141 140.994H79.2463C79.675 140.94 80 140.511 80 140C80 139.489 79.675 139.06 79.2463 139.006H77.9332C77.6122 138.965 77.2997 139.145 77.1285 139.47C76.9572 139.794 76.9572 140.206 77.1285 140.53C77.2997 140.855 77.6122 141.035 77.9332 140.994H77.9141Z" fill="#A087FF"/>
<path id="Shape_37" d="M82.7537 140.994H84.0668C84.3878 141.035 84.7003 140.855 84.8715 140.53C85.0428 140.206 85.0428 139.794 84.8715 139.47C84.7003 139.145 84.3878 138.965 84.0668 139.006H82.7537C82.325 139.06 82 139.489 82 140C82 140.511 82.325 140.94 82.7537 140.994Z" fill="#A087FF"/>
</g>
<g id="Group 6" opacity="0.688958">
<g id="Group 6_2">
<path id="Shape_38" fill-rule="evenodd" clip-rule="evenodd" d="M35.6094 68.4738L35.348 68.3996L10.1226 61.0984H9.97314C8.92279 60.8435 7.81274 61.0903 6.97247 61.7653C6.14154 62.3222 5.63171 63.2419 5.60291 64.2363V68.3379H3.67297C1.65839 68.3711 0.0333252 69.9836 0 71.9824V93.3554C0.0333252 95.3545 1.65839 96.967 3.67297 97H34.327C36.3416 96.967 37.9667 95.3545 38 93.3554V71.8838C37.9802 70.3691 37.0336 69.019 35.6094 68.4738ZM8.97815 63.8591C9.03815 63.8354 9.10028 63.8169 9.16382 63.8039H9.31323L24.5779 68.2021H8.49146V64.2241C8.57648 64.1064 8.68713 64.0092 8.81519 63.9399C8.86725 63.9084 8.92175 63.8816 8.97815 63.8591ZM3.67303 71.093C3.23291 71.093 2.87616 71.447 2.87616 71.8838V93.2566C2.87616 93.6933 3.23291 94.0473 3.67303 94.0473H34.327C34.7671 94.0473 35.1238 93.6933 35.1238 93.2566V71.8838C35.1238 71.447 34.7671 71.093 34.327 71.093H3.67303Z" fill="#A087FF"/>
<path id="Shape_39" d="M9 85C10.1637 84.7586 11 83.7132 11 82.5C11 81.2868 10.1637 80.2414 9 80C7.8363 80.2414 7 81.2868 7 82.5C7 83.7132 7.8363 84.7586 9 85Z" fill="#A087FF"/>
</g>
</g>
<g id="Group 6 Copy 2" opacity="0.688958">
<g id="Group 6_3">
<path id="Shape_40" fill-rule="evenodd" clip-rule="evenodd" d="M199.609 129.474L199.348 129.4L174.123 122.098H173.973C172.923 121.843 171.813 122.09 170.972 122.765C170.142 123.322 169.632 124.242 169.603 125.236V129.338H167.673C165.658 129.371 164.033 130.984 164 132.982V154.355C164.033 156.354 165.658 157.967 167.673 158H198.327C200.342 157.967 201.967 156.354 202 154.355V132.884C201.98 131.369 201.034 130.019 199.609 129.474ZM172.815 124.94C172.923 124.875 173.041 124.829 173.164 124.804H173.313L188.578 129.202H172.491V125.224C172.576 125.106 172.687 125.009 172.815 124.94ZM167.673 132.093C167.233 132.093 166.876 132.447 166.876 132.884V154.257C166.876 154.693 167.233 155.047 167.673 155.047H198.327C198.767 155.047 199.124 154.693 199.124 154.257V132.884C199.124 132.447 198.767 132.093 198.327 132.093H167.673Z" fill="#A087FF"/>
<path id="Shape_41" d="M173 146C174.164 145.759 175 144.713 175 143.5C175 142.287 174.164 141.241 173 141C171.836 141.241 171 142.287 171 143.5C171 144.713 171.836 145.759 173 146Z" fill="#A087FF"/>
</g>
</g>
<g id="Shape_42" opacity="0.688958">
<path id="Shape_43" fill-rule="evenodd" clip-rule="evenodd" d="M77.0941 6H104.906C107.716 6.00684 109.993 8.2395 110 10.9958V31.0042C109.993 33.7605 107.716 35.9932 104.906 36H77.0941C74.2835 35.9932 72.0068 33.7605 72 31.0042V10.9958C72.0068 8.2395 74.2835 6.00684 77.0941 6ZM97.022 24.1882H107.223V17.8242H97.022C95.308 17.9285 93.9724 19.322 93.9724 21.0061C93.9724 22.6904 95.308 24.084 97.022 24.1882ZM107.223 15.1001H97.022C93.6927 15.1001 90.9938 17.7471 90.9938 21.0122C90.9938 24.2773 93.6927 26.9243 97.022 26.9243H107.223V31.0161C107.223 31.6189 106.979 32.1968 106.544 32.6228C106.11 33.0488 105.52 33.2883 104.906 33.2883H77.0941C75.8146 33.2883 74.7775 32.271 74.7775 31.0161V10.9958C74.7775 9.74097 75.8146 8.72388 77.0941 8.72388H104.906C105.52 8.72388 106.11 8.96313 106.544 9.3894C106.979 9.81543 107.223 10.3933 107.223 10.9958V15.1001ZM96.7435 22.7183C96.053 22.4243 95.6119 21.7502 95.627 21.0122L95.6395 21C95.6665 20.0139 96.4895 19.2285 97.4952 19.2288C98.248 19.2339 98.9232 19.6846 99.2041 20.3694C99.4851 21.0544 99.3163 21.8379 98.7768 22.353C98.2374 22.8679 97.4341 23.0122 96.7435 22.7183Z" fill="#A087FF"/>
</g>
<path id="Shape_44" d="M64.8944 23.1056L33 55" stroke="white" stroke-dasharray="1"/>
<path id="Shape_45" d="M81.5 44V115.5" stroke="white" stroke-dasharray="1"/>
<path id="Shape_46" d="M90 44L185.478 115.5" stroke="white" stroke-dasharray="1"/>
<path id="Shape_47" d="M101 44L226 75" stroke="white" stroke-dasharray="1"/>
<path id="Shape_48" d="M115 19H158" stroke="white" stroke-dasharray="1"/>
<path id="Shape_49" d="M208 23L240.004 55.0039" stroke="white" stroke-dasharray="1"/>
<path id="Shape_50" d="M33 112L61 140" stroke="white" stroke-dasharray="1"/>
<path id="Shape_51" d="M116 144H159" stroke="white" stroke-dasharray="1"/>
<path id="Shape_52" d="M209.486 142.514L244 108" stroke="white" stroke-dasharray="1"/>
<path id="Shape_53" d="M177 44L43 75" stroke="white" stroke-dasharray="1"/>
<path id="Shape_54" d="M186.957 44L90.5213 115.5" stroke="white" stroke-dasharray="1"/>
<path id="Shape_55" d="M190.667 44V117.5" stroke="white" stroke-dasharray="1"/>
<path id="Shape_56" d="M44 91H227" stroke="white" stroke-dasharray="1"/>
</g>
</svg>
