<svg width="68" height="67" viewBox="0 0 68 67" fill="none" xmlns="http://www.w3.org/2000/svg">
<path fill-rule="evenodd" clip-rule="evenodd" d="M56.1754 28.3253L67.2401 35.8959V34C67.2401 15.2223 52.0178 0 33.2401 0C18.3044 0 5.62038 9.62994 1.05352 23.0166L2.9464 23.6624C7.24543 11.0608 19.1859 2 33.2401 2C50.2634 2 64.1821 15.2927 65.1826 32.0647L57.3048 26.6747L56.1754 28.3253ZM40.9611 35.9761C41.0737 36.7988 41.2949 37.4138 41.6247 37.8211C42.2279 38.5624 43.2614 38.933 44.7252 38.933C45.6019 38.933 46.3137 38.8353 46.8606 38.6398C47.8981 38.2651 48.4169 37.5686 48.4169 36.5504C48.4169 35.9557 48.1595 35.4955 47.6448 35.1697C47.13 34.852 46.3217 34.5709 45.2198 34.3266L43.3378 33.8989C41.4879 33.4753 40.2091 33.0151 39.5013 32.5182C38.3029 31.6873 37.7038 30.3881 37.7038 28.6205C37.7038 27.0076 38.2828 25.6676 39.441 24.6005C40.5992 23.5334 42.3003 22.9999 44.5442 22.9999C46.4182 22.9999 48.0147 23.5049 49.3338 24.515C50.6609 25.5169 51.3566 26.975 51.4209 28.8893H47.8499C47.7855 27.8059 47.319 27.0361 46.4504 26.58C45.8713 26.2786 45.1515 26.1279 44.2909 26.1279C43.3338 26.1279 42.5697 26.3234 41.9987 26.7144C41.4276 27.1054 41.1421 27.6511 41.1421 28.3517C41.1421 28.9952 41.4236 29.4758 41.9866 29.7935C42.3485 30.0052 43.1206 30.2537 44.3029 30.5388L47.3673 31.2841C48.7105 31.61 49.7239 32.0458 50.4075 32.5915C51.4692 33.4387 52 34.6646 52 36.2693C52 37.9148 51.3767 39.2833 50.13 40.3748C48.8914 41.4582 47.1381 41.9999 44.87 41.9999C42.5536 41.9999 40.7319 41.4663 39.4048 40.3992C38.0777 39.324 37.4142 37.8496 37.4142 35.9761H40.9611ZM16 41.5356H19.6917V23.5253H16V41.5356ZM35.7735 23.5497H23.1662V41.5356H26.8579V33.9845H34.6635V30.8565H26.8579V26.7144H35.7735V23.5497ZM0 31.1039L11.0647 38.6745L9.93532 40.3251L2.05756 34.935C3.05805 51.707 16.9767 64.9998 34 64.9998C48.0542 64.9998 59.9947 55.939 64.2937 43.3374L66.1866 43.9831C61.6197 57.3698 48.9358 66.9998 34 66.9998C15.2223 66.9998 0 51.7775 0 32.9998V31.1039Z" fill="#A087FF"/>
</svg>
