<?xml version="1.0" encoding="UTF-8"?>
<svg width="167px" height="150px" viewBox="0 0 167 150" version="1.1" xmlns="http://www.w3.org/2000/svg" xmlns:xlink="http://www.w3.org/1999/xlink">
    <!-- Generator: Sketch 51.3 (57544) - http://www.bohemiancoding.com/sketch -->
    <title>Group 173logo_fill</title>
    <desc>Created with Sketch.</desc>
    <defs></defs>
    <g id="visual_style_guide" stroke="none" stroke-width="1" fill="none" fill-rule="evenodd">
        <g id="Artboard-2" transform="translate(-827.000000, -976.000000)" fill="#FFFFFF">
            <g id="Group-173" transform="translate(827.000000, 976.000000)">
                <path d="M65.5049419,99.7231923 L101.97097,99.7231923 C103.544002,99.7231923 104.819589,98.4485769 104.819589,96.8758846 C104.819589,95.3028077 103.544002,94.0278077 101.97097,94.0278077 L65.5049419,94.0278077 C63.9315249,94.0278077 62.6563221,95.3028077 62.6563221,96.8758846 C62.6563221,98.4485769 63.9315249,99.7231923 65.5049419,99.7231923" id="Fill-160"></path>
                <path d="M114.565232,82.4425385 C115.038527,82.4425385 115.519133,82.3244615 115.960875,82.076 C117.331506,81.3036923 117.81673,79.5675385 117.044836,78.1971538 L98.4324166,45.1652308 C97.659753,43.7956154 95.9227991,43.3098462 94.5517829,44.0817692 C93.1811516,44.8536923 92.6955433,46.5898462 93.4678221,47.9606154 L112.080241,80.9921538 C112.603559,81.9206154 113.569774,82.4425385 114.565232,82.4425385" id="Fill-162"></path>
                <path d="M72.9441378,44.4730385 C71.5792783,43.6911154 69.8384765,44.1611154 69.0554235,45.5245769 L50.2998613,78.1768846 C49.5168083,79.5411154 49.9877945,81.2807308 51.3522691,82.0638077 C51.7997829,82.3203462 52.2869304,82.4426538 52.7679212,82.4426538 C53.7552991,82.4426538 54.7145871,81.9295769 55.2409834,81.0126538 L73.9961608,48.3603462 C74.7799834,46.9965 74.3086124,45.2561154 72.9441378,44.4730385" id="Fill-164"></path>
                <g id="Group-172">
                    <path d="M161.298374,86.8254231 L129.833111,104.169269 L129.833111,142.956577 C129.833111,144.148115 128.866897,145.113885 127.674809,145.113885 C126.482722,145.113885 125.516892,144.148115 125.516892,142.956577 L125.516892,102.895423 C125.516892,102.109654 125.944397,101.386192 126.632791,101.006962 L159.213952,83.0477308 C160.257894,82.4719615 161.570037,82.8515769 162.145687,83.8946538 C162.721337,84.9381154 162.341931,86.2500385 161.298374,86.8254231 Z M127.674809,59.4677308 L115.427245,66.5354231 L120.805876,76.0804231 C122.744076,79.5211923 121.520821,83.8965769 118.07962,85.8346538 C117.007588,86.4377308 115.792798,86.7561923 114.565309,86.7561923 C111.981812,86.7561923 109.588786,85.3592692 108.320125,83.1108077 L103.016528,73.6977308 L88.5529429,82.0442692 L88.5529429,89.7142692 L101.935261,89.7142692 C105.885927,89.7142692 109.1001,92.9265769 109.1001,96.8758077 C109.1001,100.824269 105.885927,104.037346 101.935261,104.037346 L88.5529429,104.037346 L88.5529429,127.198115 L127.674809,149.774654 L166.79706,127.198115 L166.79706,82.0442692 L127.674809,59.4677308 Z" id="Fill-166"></path>
                    <path d="M41.9972677,142.956731 C41.9972677,144.148269 41.0310535,145.113654 39.8393507,145.113654 C38.6472631,145.113654 37.6810488,144.148269 37.6810488,142.956731 L37.6810488,104.169038 L6.21578618,86.8255769 C5.17222857,86.2501923 4.79282304,84.9378846 5.36847281,83.8944231 C5.94450737,82.8517308 7.25626544,82.4717308 8.30020783,83.0475 L40.8813691,101.007115 C41.5697631,101.386346 41.9972677,102.109808 41.9972677,102.895577 L41.9972677,142.956731 Z M58.984323,83.7355769 C57.7110442,85.9536538 55.3287931,87.3317308 52.7679982,87.3317308 C51.52127,87.3317308 50.2891641,87.0032692 49.2048184,86.3813462 C45.7770857,84.4136538 44.5903853,80.0286538 46.5574452,76.6040385 L52.1230857,66.9136538 L39.4487862,59.5994231 L0.32615023,82.1763462 L0.32615023,127.329423 L39.4487862,149.906346 L78.5706525,127.329423 L78.5706525,104.6125 L65.469618,104.6125 C61.5185673,104.6125 58.3043945,101.399808 58.3043945,97.4509615 C58.3043945,93.5021154 61.5185673,90.2894231 65.469618,90.2894231 L78.5706525,90.2894231 L78.5706525,82.1763462 L64.5330327,74.0751923 L58.984323,83.7355769 Z" id="Fill-168"></path>
                    <path d="M83.7243341,38.904 C83.3549332,38.904 82.9855323,38.8093846 82.653841,38.6197692 L55.8257143,23.2993846 C54.7910069,22.7082308 54.4312258,21.3909231 55.0226521,20.3563077 C55.6140783,19.3220769 56.9323779,18.9628462 57.9670853,19.5536154 L83.7147143,34.2570769 L109.400776,19.3186154 C110.430482,18.7197692 111.751475,19.0682308 112.351366,20.0978462 C112.950488,21.1278462 112.601097,22.4482308 111.571007,23.0470769 L84.8094493,38.6109231 C84.4742949,38.8059231 84.0995069,38.904 83.7243341,38.904 Z M89.7070899,50.0774615 C87.7688894,46.6370769 88.9913756,42.2613077 92.4333456,40.3228462 C95.87647,38.3847692 100.253871,39.6074615 102.192841,43.0478462 L110.5717,57.9178462 L115.453949,55.0997692 L115.453949,18.3943846 L83.6516083,0.0416923077 L51.8488825,18.3943846 L51.8488825,55.0997692 L57.1190023,58.1413077 L65.5998318,43.3766923 C67.5661221,39.9536154 71.9519885,38.7666923 75.3793364,40.7309231 L75.3808756,40.7316923 C78.8066843,42.6974615 79.9941544,47.0836154 78.0267097,50.5082308 L69.5289493,65.3028462 L83.6516083,73.4524615 L98.1605991,65.0797692 L89.7070899,50.0774615 Z" id="Fill-170"></path>
                </g>
            </g>
        </g>
    </g>
</svg>