<?xml version="1.0" encoding="UTF-8"?>
<svg width="169px" height="152px" viewBox="0 0 169 152" version="1.1" xmlns="http://www.w3.org/2000/svg" xmlns:xlink="http://www.w3.org/1999/xlink">
    <!-- Generator: Sketch 51.3 (57544) - http://www.bohemiancoding.com/sketch -->
    <title>Grouplogo_line</title>
    <desc>Created with Sketch.</desc>
    <defs></defs>
    <g id="visual_style_guide" stroke="none" stroke-width="1" fill="none" fill-rule="evenodd">
        <g id="Artboard-2" transform="translate(-444.000000, -975.000000)" fill="#FFFFFF">
            <g id="Group" transform="translate(444.000000, 975.000000)">
                <path d="M114.215787,17.050144 L85.0923775,0.320151105 C85.0823807,0.314377762 85.0712304,0.311683535 85.0612336,0.306295082 C85.0231688,0.285895937 84.9839505,0.269730577 84.9439633,0.253565217 C84.9132038,0.241633642 84.8828289,0.228547398 84.8513005,0.21931005 C84.8136202,0.207763364 84.7755554,0.200835353 84.7367216,0.193522452 C84.7025018,0.18697933 84.6686664,0.179666429 84.6344465,0.176202423 C84.5959972,0.172353528 84.557548,0.173123307 84.5190987,0.173123307 C84.4844943,0.173508197 84.4502745,0.172353528 84.4160546,0.175817534 C84.3776053,0.17928154 84.3403095,0.18736422 84.3022447,0.19506201 C84.2672559,0.202374911 84.233036,0.208148254 84.1988161,0.218540271 C84.1645963,0.228547398 84.1319144,0.242403421 84.0984635,0.255874555 C84.0607832,0.270885246 84.0238719,0.286280827 83.9881141,0.305525303 C83.9769638,0.311298646 83.965429,0.314377762 83.9550477,0.320151105 L54.8320227,17.050144 L55.0181173,50.8526814 L63.6726664,55.8897306 C63.853378,55.9951903 64.0506228,56.0448411 64.2455607,56.0448411 C64.6381279,56.0448411 65.0206982,55.8423892 65.2321693,55.4794383 C65.5493759,54.9359743 65.3652038,54.2381696 64.8211465,53.9217904 L57.2916234,49.5394383 L57.1201396,18.363387 L84.5237126,2.62179045 L111.92767,18.363387 L111.756186,49.5394383 L104.226663,53.9217904 C103.682221,54.2381696 103.498434,54.9359743 103.81564,55.4794383 C104.027496,55.8423892 104.409682,56.0448411 104.802249,56.0448411 C104.996802,56.0448411 105.194432,55.9951903 105.375143,55.8897306 L114.029692,50.8526814 L114.215787,17.050144 Z" id="Fill-180"></path>
                <path d="M90.3092531,61.6082651 L84.5157151,65.0314726 L78.4984023,61.5994127 C77.952038,61.2872673 77.255337,61.4777876 76.9423599,62.0239458 C76.6305362,62.5701041 76.8204756,63.2659843 77.3679934,63.5777448 L83.850158,67.2757634 C84.0285627,67.3769893 84.2231161,67.4254854 84.4145935,67.4254854 C84.4518893,67.4254854 84.4872627,67.4150934 84.524174,67.4112445 C84.5610853,67.4150934 84.5964586,67.4251005 84.6329854,67.4251005 C84.8306148,67.4251005 85.030551,67.3739102 85.2128006,67.266526 L91.4708059,63.5688924 C92.0125563,63.2486643 92.1921145,62.5500898 91.8714475,62.0085502 C91.5507805,61.4670107 90.8517725,61.2888068 90.3092531,61.6082651" id="Fill-182"></path>
                <path d="M111.381267,67.9438931 C110.82952,68.247186 110.62843,68.9399872 110.931795,69.4915339 C111.235545,70.0423108 111.928401,70.2432231 112.480917,69.940315 L129.096006,60.8115053 L166.67595,82.789082 L166.090368,126.826602 L127.683763,148.465475 L90.3502785,126.076452 L90.4456327,106.232318 C90.4487087,105.603024 89.9400246,105.090736 89.3106099,105.087656 L89.305227,105.087656 C88.6777347,105.087656 88.1675127,105.593786 88.1644367,106.220771 L88.0633151,127.362368 L127.64839,151.101199 L167.782136,128.489324 C167.79444,128.482396 167.803668,128.473159 167.815587,128.465846 C167.850191,128.444677 167.882104,128.421199 167.914402,128.396181 C167.94247,128.374627 167.970922,128.353458 167.996683,128.329595 C168.023213,128.304192 168.047436,128.27725 168.071659,128.249923 C168.096267,128.221826 168.120874,128.194884 168.142406,128.165247 C168.164322,128.135996 168.182009,128.10405 168.200849,128.072489 C168.21892,128.041698 168.23776,128.011292 168.252755,127.978961 C168.268904,127.945091 168.280823,127.909296 168.293512,127.873501 C168.305431,127.840016 168.31735,127.80653 168.326194,127.772275 C168.334652,127.737635 168.339651,127.70184 168.345034,127.666046 C168.351186,127.626787 168.356953,127.588298 168.358106,127.548654 C168.358875,127.536338 168.362336,127.524791 168.36272,127.512475 L168.974064,81.4935438 L129.130994,58.1919473 L111.381267,67.9438931 Z" id="Fill-184"></path>
                <path d="M100.365394,75.5736736 C100.042804,75.0329038 99.3422585,74.8554697 98.8024306,75.1780071 L89.5434587,80.6873158 C89.3262203,80.8162537 89.1712697,81.0079287 89.0797604,81.2246215 C88.9282702,81.418221 88.834454,81.6591618 88.8348384,81.9243507 L88.8471422,88.77269 C88.8482957,89.4008297 89.3589022,89.9096536 89.9879324,89.9096536 L89.9902394,89.9096536 C90.6196542,89.9084989 91.1294917,89.3977505 91.1283382,88.7680713 L91.1164189,82.4027684 L99.9693663,77.1351703 C100.510732,76.8134027 100.687599,76.1136736 100.365394,75.5736736" id="Fill-186"></path>
                <path d="M79.9084144,105.087618 L79.9030315,105.087618 C79.2736168,105.090697 78.7649328,105.602985 78.7680087,106.232279 L78.8633629,126.076413 L41.5298781,148.465437 L3.12327371,126.826563 L2.53730664,82.7890435 L40.11456,60.8133913 L55.8729986,69.5580813 C56.4243613,69.8636835 57.1183709,69.6662352 57.4236582,69.1158432 C57.7297145,68.5658361 57.5317007,67.87265 56.981107,67.5670478 L40.084954,58.1899843 L0.239577483,81.4935053 L0.851305576,127.512436 C0.851305576,127.524753 0.854766012,127.536299 0.855150505,127.548616 C0.856688476,127.588259 0.862455868,127.627133 0.868607754,127.666007 C0.873990653,127.701802 0.87898906,127.737597 0.887447902,127.772237 C0.896291237,127.806877 0.908210515,127.839977 0.920129793,127.873463 C0.933202549,127.909642 0.945121827,127.945052 0.960886033,127.979307 C0.975881253,128.011253 0.994721402,128.041659 1.01279257,128.07245 C1.03124822,128.104396 1.04931938,128.135957 1.07123548,128.165209 C1.09276707,128.194845 1.11737461,128.221788 1.14198216,128.249885 C1.1662052,128.277212 1.19042825,128.304154 1.21695826,128.329557 C1.24271928,128.35342 1.27117175,128.374589 1.29923972,128.396527 C1.33153712,128.420775 1.36345003,128.445024 1.39805438,128.465808 C1.40997366,128.47312 1.41920149,128.482358 1.43150526,128.489286 L41.5652514,151.10116 L81.1503263,127.362329 L81.0492047,106.220733 C81.0461287,105.593748 80.5359067,105.087618 79.9084144,105.087618" id="Fill-188"></path>
                <path d="M79.2239403,89.9096536 L79.2258628,89.9096536 C79.854893,89.9096536 80.3654995,89.4008297 80.366653,88.7723051 L80.3785723,81.9239658 C80.3789568,81.6587769 80.285525,81.418221 80.1336503,81.2246215 C80.0421411,81.0063892 79.885268,80.8139444 79.6657226,80.6846215 L70.3121655,75.1753129 C69.7696461,74.8558546 69.0706381,75.0359829 68.7507401,75.5775225 C68.4308421,76.1198318 68.6107847,76.8176365 69.1536886,77.1374797 L78.0966073,82.4054626 L78.085457,88.7684562 C78.0843036,89.3977505 78.5937566,89.9084989 79.2239403,89.9096536" id="Fill-190"></path>
                <path d="M66.1215012,99.8964975 L102.617176,99.8964975 C104.192059,99.8964975 105.468575,98.6213585 105.468575,97.0486999 C105.468575,95.4756565 104.192059,94.2009024 102.617176,94.2009024 L66.1215012,94.2009024 C64.5462341,94.2009024 63.2701024,95.4756565 63.2701024,97.0486999 C63.2701024,98.6213585 64.5462341,99.8964975 66.1215012,99.8964975" id="Fill-192"></path>
                <path d="M111.095897,84.7895837 C111.569592,84.7895837 112.050208,84.6714227 112.492759,84.422784 C113.86463,83.6506957 114.350244,81.9140741 113.577798,80.5438674 L95.4939467,49.1415011 C94.7207316,47.7712944 92.9824395,47.2859487 91.6101846,48.0572673 C90.2383142,48.8293557 89.7523152,50.5659772 90.5251458,51.9365688 L108.608613,83.3385502 C109.132676,84.2676736 110.099676,84.7895837 111.095897,84.7895837" id="Fill-194"></path>
                <path d="M77.1486403,47.9055823 C75.7821527,47.122717 74.0400157,47.593052 73.2564193,48.9567156 L55.0303057,80.5234298 C54.2463248,81.8874783 54.7173285,83.6279487 56.0830471,84.410814 C56.5305967,84.6675353 57.0185181,84.7895453 57.4999031,84.7895453 C58.4880497,84.7895453 59.4485128,84.2761026 59.975268,83.3592958 L78.2013816,51.7929665 C78.9853625,50.428918 78.5139743,48.6884476 77.1486403,47.9055823" id="Fill-196"></path>
            </g>
        </g>
    </g>
</svg>