<svg width="78" height="23" viewBox="0 0 78 23" fill="none" xmlns="http://www.w3.org/2000/svg">
<path d="M0.388789 22V6.34H3.02879V22H0.388789ZM0.388789 3.4V0.0999994H3.02879V3.4H0.388789ZM7.72285 22V0.699999H21.7929V3.1H10.4229V10.21H19.9929V12.46H10.4229V22H7.72285ZM30.0525 0.699999H32.3325L41.0325 22H38.1525L35.6325 15.76H26.6925L24.2025 22H21.3225L30.0525 0.699999ZM35.0325 13.66L31.1925 3.82L27.2325 13.66H35.0325ZM56.0922 5.17C55.8522 4.89 55.5322 4.62 55.1322 4.36C54.7322 4.1 54.2822 3.87 53.7822 3.67C53.2822 3.45 52.7322 3.28 52.1322 3.16C51.5522 3.02 50.9422 2.95 50.3022 2.95C48.6422 2.95 47.4222 3.26 46.6422 3.88C45.8822 4.5 45.5022 5.35 45.5022 6.43C45.5022 7.01 45.6122 7.49 45.8322 7.87C46.0522 8.25 46.3922 8.58 46.8522 8.86C47.3322 9.12 47.9222 9.35 48.6222 9.55C49.3222 9.75 50.1522 9.96 51.1122 10.18C52.2122 10.42 53.2022 10.7 54.0822 11.02C54.9822 11.32 55.7422 11.7 56.3622 12.16C57.0022 12.62 57.4822 13.18 57.8022 13.84C58.1422 14.5 58.3122 15.31 58.3122 16.27C58.3122 17.29 58.1122 18.18 57.7122 18.94C57.3122 19.68 56.7622 20.3 56.0622 20.8C55.3822 21.28 54.5722 21.64 53.6322 21.88C52.6922 22.1 51.6722 22.21 50.5722 22.21C48.9322 22.21 47.3722 21.96 45.8922 21.46C44.4322 20.94 43.1022 20.19 41.9022 19.21L43.1922 16.93C43.5122 17.27 43.9222 17.61 44.4222 17.95C44.9422 18.29 45.5222 18.6 46.1622 18.88C46.8222 19.14 47.5222 19.36 48.2622 19.54C49.0222 19.7 49.8122 19.78 50.6322 19.78C52.1522 19.78 53.3322 19.51 54.1722 18.97C55.0122 18.43 55.4322 17.62 55.4322 16.54C55.4322 15.94 55.2922 15.44 55.0122 15.04C54.7522 14.62 54.3622 14.26 53.8422 13.96C53.3222 13.66 52.6722 13.4 51.8922 13.18C51.1322 12.94 50.2622 12.7 49.2822 12.46C48.2022 12.2 47.2522 11.92 46.4322 11.62C45.6122 11.32 44.9222 10.96 44.3622 10.54C43.8222 10.12 43.4122 9.61 43.1322 9.01C42.8522 8.41 42.7122 7.69 42.7122 6.85C42.7122 5.83 42.9022 4.93 43.2822 4.15C43.6622 3.37 44.1922 2.71 44.8722 2.17C45.5522 1.63 46.3622 1.23 47.3022 0.969999C48.2422 0.689999 49.2622 0.549999 50.3622 0.549999C51.8022 0.549999 53.1022 0.769999 54.2622 1.21C55.4222 1.65 56.4522 2.24 57.3522 2.98L56.0922 5.17ZM77.2235 3.1H69.8735V22H67.1735V3.1H59.8235V0.699999H77.2235V3.1Z" fill="white"/>
</svg>
