<svg width="356" height="129" viewBox="0 0 356 129" fill="none" xmlns="http://www.w3.org/2000/svg">
<g id="Price_Stable">
<path id="Shape" fill-rule="evenodd" clip-rule="evenodd" d="M176.524 1L116 36.0935V36.0935V52.9689H119.395V104.358H116.081V114.917H136.451V104.208H133.202V80.9011C133.202 76.7735 137.685 73.4415 143.208 73.4415C148.731 73.4415 153.215 76.7569 153.215 80.9011V104.291H149.836V115H169.816V104.291H166.567V80.9011C166.567 76.7735 171.05 73.4415 176.573 73.4415C182.096 73.4415 186.579 76.7569 186.579 80.9011V104.291H183.152V115H203.554V104.291H200.305V80.9011C200.305 76.7735 204.789 73.4415 210.311 73.4415C215.834 73.4415 220.318 76.7569 220.318 80.9011V104.291H216.939V115H237V104.44H233.751V53.0518H237V36.0935V36.0935L176.524 1Z" stroke="#A087FF" stroke-width="1.5" stroke-linecap="round" stroke-linejoin="round"/>
<path id="Shape_2" opacity="0.3" d="M176.524 1L116 36.0935V52.9689H119.395V104.358H116.081V114.917H136.451V104.208H133.202V80.9011C133.202 76.7735 137.685 73.4415 143.208 73.4415C148.731 73.4415 153.215 76.7569 153.215 80.9011V104.291H149.836V115H169.816V104.291H166.567V80.9011C166.567 76.7735 171.05 73.4415 176.573 73.4415C182.096 73.4415 186.579 76.7569 186.579 80.9011V104.291H183.152V115H203.554V104.291H200.305V80.9011C200.305 76.7735 204.789 73.4415 210.311 73.4415C215.834 73.4415 220.318 76.7569 220.318 80.9011V104.291H216.939V115H237V104.44H233.751V53.0518H237V36.0935L176.524 1Z" fill="#A087FF"/>
<path id="Shape_3" fill-rule="evenodd" clip-rule="evenodd" d="M135 45H133V46.8118H135V45ZM135 48.5632H133V58H135V48.5632Z" fill="#F2F2F2"/>
<path id="Shape_4" d="M137.31 45H146.25V46.5928H138.993V50.5519H145.281V52.0688H138.993V58H137.25L137.31 45Z" fill="#F2F2F2"/>
<path id="Shape_5" fill-rule="evenodd" clip-rule="evenodd" d="M153.724 51.4958C153.576 51.7671 153.292 51.939 152.981 51.9453L150.493 52.3049C149.696 52.3755 148.939 52.6838 148.324 53.189C147.759 53.7092 147.459 54.4504 147.504 55.2114C147.482 55.9626 147.786 56.6875 148.339 57.2041C148.927 57.7412 149.707 58.0266 150.508 57.998C151.209 58.0063 151.901 57.8469 152.526 57.5337C153.072 57.2773 153.554 56.9036 153.936 56.4399C153.966 56.7451 154.059 57.0408 154.209 57.3088C154.472 57.7039 154.931 57.9272 155.408 57.8931H155.939L156.5 57.7583V56.5898H156.212H155.969C155.811 56.6118 155.652 56.5557 155.544 56.4399C155.431 56.3169 155.366 56.1572 155.362 55.9905V50.5972C155.413 49.8047 155.016 49.0493 154.331 48.6345C153.497 48.1804 152.552 47.9626 151.6 48.0051C150.701 47.988 149.816 48.2273 149.052 48.6943C148.269 49.2515 147.838 50.1716 147.914 51.1213H149.431C149.455 50.7251 149.586 50.342 149.81 50.0127C150.26 49.5225 150.919 49.2722 151.585 49.3386C152.165 49.2981 152.744 49.4229 153.254 49.6982C153.65 49.959 153.871 50.4128 153.83 50.8818C153.842 51.0918 153.805 51.3015 153.724 51.4958ZM150.811 56.6047C150.378 56.615 149.955 56.4773 149.613 56.2151V56.1851C149.284 55.9353 149.092 55.5466 149.097 55.1365C149.062 54.5911 149.352 54.0754 149.841 53.8181C150.25 53.6216 150.692 53.4998 151.145 53.4585L152.116 53.3386C152.423 53.3005 152.728 53.2405 153.026 53.1589C153.294 53.0925 153.549 52.9863 153.785 52.8442V54.1177C153.826 55.0234 153.294 55.8596 152.45 56.2151C151.942 56.4692 151.381 56.6025 150.811 56.6047Z" fill="#F2F2F2"/>
<path id="Shape_6" d="M159.358 54.6842C159.374 55.1172 159.516 55.5366 159.768 55.8926C160.324 56.4565 161.113 56.7371 161.907 56.6534C162.461 56.6663 163.01 56.5379 163.499 56.2805C163.942 56.0531 164.209 55.5924 164.182 55.1019C164.197 54.7157 163.985 54.3556 163.636 54.177C163.189 53.9772 162.721 53.827 162.24 53.7295L160.951 53.4162C160.313 53.2856 159.699 53.0591 159.13 52.7449C158.478 52.3928 158.076 51.7163 158.084 50.9846C158.058 50.1573 158.422 49.3647 159.07 48.8363C159.825 48.2572 160.768 47.9658 161.725 48.0159C162.913 47.9065 164.082 48.3675 164.865 49.2541C165.256 49.7367 165.465 50.3376 165.456 50.9547H163.939C163.91 50.5999 163.772 50.2621 163.545 49.985C163.01 49.5187 162.299 49.2965 161.588 49.3734C161.093 49.3414 160.6 49.4613 160.177 49.7165C159.871 49.9143 159.688 50.2515 159.692 50.6116C159.699 51.0237 159.939 51.3976 160.314 51.5813C160.646 51.7615 161.004 51.8922 161.376 51.9691L162.453 52.2228C163.272 52.3707 164.064 52.6371 164.804 53.0134C165.44 53.4337 165.799 54.1564 165.745 54.908C165.751 55.7325 165.397 56.5201 164.774 57.0711C163.923 57.754 162.833 58.0809 161.74 57.9811C160.638 58.0873 159.54 57.7419 158.706 57.0264C158.107 56.3864 157.768 55.5534 157.75 54.6842H159.358Z" fill="#F2F2F2"/>
<path id="Shape_7" d="M169.145 45H170.621V47.7952H172V49.1688H170.621V55.7176C170.589 56.0016 170.709 56.2796 170.924 56.4204C171.105 56.4977 171.297 56.5304 171.49 56.5162H171.71H172V57.8579C171.829 57.9172 171.653 57.9599 171.476 57.9857H170.897C170.378 58.0613 169.861 57.8338 169.517 57.3788C169.256 56.9032 169.13 56.3443 169.159 55.7815V49.1848H168V47.8112H169.172L169.145 45Z" fill="#F2F2F2"/>
<path id="Shape_8" fill-rule="evenodd" clip-rule="evenodd" d="M182 45.0188H187.55C188.786 44.8931 190.002 45.4028 190.787 46.3757C191.165 46.9177 191.364 47.5669 191.354 48.2302C191.385 48.967 191.14 49.6885 190.668 50.2505C190.375 50.5654 190.026 50.8213 189.638 51.0044C190.187 51.1882 190.694 51.4805 191.13 51.8638C191.729 52.4861 192.043 53.3337 191.995 54.2007C192.003 55.0269 191.729 55.8306 191.22 56.4773C190.285 57.5425 188.909 58.1011 187.505 57.9849H182V45.0188ZM186.908 50.5068C187.501 50.533 188.092 50.4248 188.639 50.1902C189.287 49.8643 189.672 49.1704 189.608 48.4414C189.676 47.7021 189.259 47.0044 188.579 46.7227C188.022 46.5332 187.435 46.4514 186.848 46.4814H183.716V50.5068H186.908ZM189.787 55.6028C189.218 56.2739 188.361 56.6228 187.49 56.5376L183.686 56.4922V51.9692H187.177C187.78 51.9465 188.382 52.0386 188.952 52.2405C189.759 52.5188 190.279 53.311 190.22 54.1704C190.235 54.6829 190.083 55.1863 189.787 55.6028Z" fill="#F2F2F2"/>
<path id="Shape_9" fill-rule="evenodd" clip-rule="evenodd" d="M200.291 51.5171C200.143 51.7898 199.858 51.9626 199.545 51.9692L197.018 52.2708C196.213 52.3386 195.448 52.6489 194.826 53.1599C194.26 53.6833 193.959 54.429 194.004 55.1946C193.982 55.9504 194.287 56.6797 194.842 57.1992C195.432 57.7397 196.215 58.0269 197.018 57.998C197.711 58.0017 198.395 57.8413 199.012 57.5308C199.561 57.2729 200.044 56.897 200.428 56.4304C200.457 56.7375 200.551 57.0349 200.702 57.3047C200.965 57.7019 201.425 57.927 201.904 57.8926H202.437L203 57.7568V56.5813H202.711H202.467C202.309 56.6033 202.15 56.5471 202.041 56.4304C201.967 56.3132 201.93 56.1768 201.935 56.0386V50.6128C201.986 49.8154 201.587 49.0557 200.9 48.6382C200.063 48.1816 199.114 47.9624 198.16 48.0054C197.258 47.9878 196.37 48.2288 195.603 48.6985C194.817 49.259 194.385 50.1848 194.461 51.1401H195.983C196.007 50.7415 196.138 50.3562 196.364 50.0249C196.815 49.5315 197.476 49.2798 198.145 49.3467C198.726 49.3059 199.307 49.4316 199.819 49.7085C200.217 49.9709 200.439 50.4275 200.397 50.8992C200.409 51.1104 200.372 51.3215 200.291 51.5171ZM197.368 56.6567C196.934 56.667 196.509 56.5286 196.166 56.2646V56.2346C195.835 55.9832 195.644 55.5923 195.648 55.1794C195.613 54.6309 195.904 54.1123 196.394 53.8533C196.805 53.6555 197.248 53.533 197.703 53.4915L198.677 53.3708C198.986 53.3328 199.291 53.2722 199.591 53.1899C199.859 53.1233 200.115 53.0166 200.352 52.8735V54.1545C200.394 55.0659 199.86 55.9072 199.012 56.2646C198.502 56.5203 197.94 56.6545 197.368 56.6567Z" fill="#F2F2F2"/>
<path id="Shape_10" d="M204 48.236H205.564V49.6264C205.957 49.1118 206.459 48.6903 207.035 48.3922C207.577 48.1369 208.171 48.0087 208.771 48.0173C209.917 47.8912 211.027 48.4638 211.587 49.4702C211.893 50.1899 212.033 50.9698 211.994 51.751V58H210.257V51.751C210.278 51.253 210.187 50.7566 209.991 50.2981C209.72 49.6891 209.092 49.3189 208.427 49.3764C208.099 49.369 207.772 49.4112 207.457 49.5014C206.989 49.6483 206.575 49.9311 206.268 50.3138C206.014 50.6004 205.832 50.943 205.736 51.3136C205.64 51.8022 205.598 52.2999 205.611 52.7977V57.9375H204V48.236Z" fill="#F2F2F2"/>
<path id="Shape_11" d="M214.031 45H215.563V52.5494L219.716 48.518H221.785L218.092 52.036L222 57.9849H219.931L216.866 53.1684L215.533 54.4367V58H214L214.031 45Z" fill="#F2F2F2"/>
<g id="New_Symbol_1-3">
<g id="New_Symbol_1">
<path id="Shape_12" d="M13.5 48.2314V48.4814V48.2314ZM13.5 71.1481L13.4998 70.8981L13.5 71.1481ZM24.1482 60.5L23.8982 60.4998L24.1482 60.5ZM13.5 47.9814C6.58622 47.9814 0.981483 53.5862 0.981483 60.5H1.48148C1.48148 53.8623 6.86236 48.4814 13.5 48.4814V47.9814ZM0.981483 60.5C0.981483 67.4138 6.58622 73.0185 13.5 73.0185V72.5185C6.86236 72.5185 1.48148 67.1376 1.48148 60.5H0.981483ZM13.5 73.0185C20.4138 73.0185 26.0185 67.4138 26.0185 60.5H25.5185C25.5185 67.1376 20.1376 72.5185 13.5 72.5185V73.0185ZM26.0185 60.5C26.0185 53.5862 20.4138 47.9814 13.5 47.9814V48.4814C20.1376 48.4814 25.5185 53.8623 25.5185 60.5H26.0185ZM13.4998 70.8981C9.28874 70.9018 5.49048 68.3674 3.87729 64.4776L3.41543 64.6692C5.10612 68.7459 9.08686 71.402 13.5002 71.3981L13.4998 70.8981ZM3.87729 64.4776C2.2641 60.5878 3.15394 56.1092 6.1316 53.1316L5.77805 52.778C2.65733 55.8987 1.72474 60.5925 3.41543 64.6692L3.87729 64.4776ZM6.1316 53.1316C9.10926 50.1539 13.5879 49.2641 17.4777 50.8773L17.6692 50.4154C13.5925 48.7247 8.89876 49.6573 5.77805 52.778L6.1316 53.1316ZM17.4777 50.8773C21.3675 52.4905 23.9018 56.2887 23.8982 60.4998L24.3982 60.5002C24.402 56.0868 21.7459 52.1061 17.6692 50.4154L17.4777 50.8773ZM23.8982 60.4998C23.8932 66.2406 19.2406 70.8931 13.4998 70.8981L13.5002 71.3981C19.5168 71.3929 24.3929 66.5168 24.3982 60.5002L23.8982 60.4998Z" fill="white"/>
<path id="Shape_13" fill-rule="evenodd" clip-rule="evenodd" d="M5.73148 59.2224H6.72222V58.2964H5.73148V59.2224ZM6.72222 59.6667H5.73148V63.3704H6.72222V59.6667Z" fill="white"/>
<path id="Shape_14" d="M8.22222 58.8796C8.62829 58.4658 9.18904 58.2408 9.76852 58.2592C10.4886 58.197 11.1894 58.5124 11.6204 59.0926C11.8163 59.3645 11.9347 59.6845 11.963 60.0185H10.8982C10.8515 59.82 10.7631 59.6338 10.6389 59.4722C10.4243 59.2438 10.118 59.1247 9.80556 59.1481C9.43606 59.1244 9.08235 59.3012 8.87963 59.6111C8.6483 60.0217 8.55118 60.4944 8.60185 60.9629C8.56845 61.4124 8.6893 61.8599 8.94445 62.2314C9.15041 62.5037 9.4735 62.6618 9.81482 62.6574C10.1315 62.6759 10.4378 62.5416 10.6389 62.2963C10.7638 62.1213 10.852 61.9229 10.8982 61.7129H11.9444C11.8733 62.2267 11.6282 62.7005 11.25 63.0555C10.8607 63.4081 10.3489 63.5942 9.82408 63.574C9.17634 63.5893 8.55663 63.31 8.13889 62.8148C7.68845 62.2838 7.45382 61.6031 7.48148 60.9074C7.4449 60.1592 7.71201 59.428 8.22222 58.8796Z" fill="white"/>
<path id="Shape_15" d="M12.7778 58.3518H13.8796L15.8796 61.8888V58.3518H16.8611V63.3888H15.8148L13.7685 59.8148V63.3888H12.7778V58.3518Z" fill="white"/>
<path id="Shape_16" d="M20.713 58.3518H21.9074L20.2222 61.5V63.3518H19.1667V61.5L17.4259 58.3518H18.6667L19.713 60.5463L20.713 58.3518Z" fill="white"/>
</g>
</g>
<g id="New_Symbol_3-3">
<g id="New_Symbol_3">
<path id="Shape_17" d="M13.5 77.2314V77.4814V77.2314ZM13.5 100.148L13.4998 99.8981L13.5 100.148ZM24.1482 89.5L23.8982 89.4998L24.1482 89.5ZM13.5 76.9814C6.58622 76.9814 0.981483 82.5862 0.981483 89.5H1.48148C1.48148 82.8623 6.86236 77.4814 13.5 77.4814V76.9814ZM0.981483 89.5C0.981483 96.4138 6.58622 102.018 13.5 102.018V101.518C6.86236 101.518 1.48148 96.1376 1.48148 89.5H0.981483ZM13.5 102.018C20.4138 102.018 26.0185 96.4138 26.0185 89.5H25.5185C25.5185 96.1376 20.1376 101.518 13.5 101.518V102.018ZM26.0185 89.5C26.0185 82.5862 20.4138 76.9814 13.5 76.9814V77.4814C20.1376 77.4814 25.5185 82.8623 25.5185 89.5H26.0185ZM13.4998 99.8981C9.28874 99.9018 5.49048 97.3674 3.87729 93.4776L3.41543 93.6692C5.10612 97.7459 9.08686 100.402 13.5002 100.398L13.4998 99.8981ZM3.87729 93.4776C2.2641 89.5878 3.15394 85.1092 6.1316 82.1316L5.77805 81.778C2.65733 84.8987 1.72474 89.5925 3.41543 93.6692L3.87729 93.4776ZM6.1316 82.1316C9.10926 79.1539 13.5879 78.2641 17.4777 79.8773L17.6692 79.4154C13.5925 77.7247 8.89876 78.6573 5.77805 81.778L6.1316 82.1316ZM17.4777 79.8773C21.3675 81.4905 23.9018 85.2887 23.8982 89.4998L24.3982 89.5002C24.402 85.0868 21.7459 81.1061 17.6692 79.4154L17.4777 79.8773ZM23.8982 89.4998C23.8932 95.2406 19.2406 99.8931 13.4998 99.8981L13.5002 100.398C19.5168 100.393 24.3929 95.5168 24.3982 89.5002L23.8982 89.4998Z" fill="white"/>
<path id="Shape_18" fill-rule="evenodd" clip-rule="evenodd" d="M5.73148 88.2224H6.72222V87.2964H5.73148V88.2224ZM6.72222 88.6667H5.73148V92.3704H6.72222V88.6667Z" fill="white"/>
<path id="Shape_19" d="M7.74074 87.3518H8.80556V90.4444C8.78891 90.7033 8.83002 90.9626 8.92593 91.2037C9.08634 91.5069 9.41952 91.6772 9.75926 91.6296C10.0963 91.6759 10.4262 91.5054 10.5833 91.2037C10.6792 90.9626 10.7204 90.7033 10.7037 90.4444V87.3518H11.7685V90.4444C11.7905 90.8754 11.7046 91.305 11.5185 91.6944C11.1333 92.2825 10.4481 92.6018 9.75 92.5185C9.05186 92.6018 8.36675 92.2825 7.98148 91.6944C7.79542 91.305 7.70948 90.8754 7.73148 90.4444L7.74074 87.3518Z" fill="white"/>
<path id="Shape_20" d="M13.5463 90.8333C13.5624 91.0207 13.6297 91.2 13.7407 91.3518C13.9849 91.593 14.3261 91.709 14.6667 91.6666C14.8766 91.6729 15.0862 91.6447 15.287 91.5833C15.5579 91.5216 15.7477 91.2776 15.7407 90.9999C15.7463 90.8387 15.6603 90.6881 15.5185 90.6111C15.3004 90.4985 15.0661 90.4205 14.8241 90.3796L14.2778 90.2592C13.8907 90.1944 13.5179 90.0628 13.1759 89.8703C12.8259 89.621 12.6325 89.2061 12.6667 88.7777C12.6586 88.3485 12.8418 87.938 13.1667 87.6574C13.566 87.3334 14.0695 87.1655 14.5833 87.1851C15.0745 87.173 15.556 87.3227 15.9537 87.6111C16.3349 87.9006 16.5551 88.3547 16.5463 88.8333H15.5463C15.5456 88.5571 15.3874 88.3055 15.1389 88.1851C14.9403 88.114 14.7282 88.0886 14.5185 88.1111C14.2848 88.1001 14.053 88.1581 13.8519 88.2777C13.6935 88.3735 13.5983 88.5464 13.6019 88.7314C13.5948 88.9028 13.6891 89.0623 13.8426 89.1388C14.0558 89.2354 14.2796 89.3068 14.5093 89.3518L15.4352 89.5648C15.7476 89.6221 16.0443 89.7452 16.3056 89.9259C16.588 90.1651 16.7478 90.5188 16.7407 90.8888C16.7482 91.3339 16.55 91.7574 16.2037 92.037C15.7718 92.3652 15.2358 92.5264 14.6944 92.4907C14.1376 92.524 13.5858 92.3673 13.1296 92.0462C12.7515 91.7519 12.5378 91.2937 12.5556 90.8148L13.5463 90.8333Z" fill="white"/>
<path id="Shape_21" fill-rule="evenodd" clip-rule="evenodd" d="M21.3056 88.1018C21.0967 87.7998 20.794 87.5752 20.4444 87.4629C20.1773 87.3828 19.8992 87.3452 19.6204 87.3518H17.4537V92.3796H19.6667C20.3572 92.4097 21.0069 92.0525 21.3519 91.4536C21.6367 90.9321 21.7773 90.344 21.7593 89.75C21.7586 89.4697 21.7275 89.1902 21.6667 88.9167C21.6021 88.6235 21.4793 88.3464 21.3056 88.1018ZM18.5185 91.5186V88.2314H19.5185C19.8775 88.1936 20.2298 88.3486 20.4444 88.6389C20.6025 89.0225 20.6568 89.4407 20.6019 89.8518C20.6064 90.1675 20.553 90.4814 20.4444 90.7778C20.3101 91.2175 19.9044 91.5183 19.4444 91.5186H18.5185Z" fill="white"/>
</g>
</g>
<path id="Shape_22" d="M30 38H108" stroke="white" stroke-dasharray="1"/>
<path id="Shape_23" d="M30 114H108" stroke="white" stroke-dasharray="1"/>
<path id="Shape_24" d="M247 38H292" stroke="white" stroke-dasharray="1"/>
<path id="Shape_25" d="M247 114H294" stroke="white" stroke-dasharray="1"/>
<g id="New_Symbol_2-3">
<g id="New_Symbol_2">
<path id="Shape_26" d="M311.5 24.2314V24.4814V24.2314ZM311.5 47.1481L311.5 46.8981L311.5 47.1481ZM322.148 36.5L321.898 36.4998L322.148 36.5ZM311.5 23.9814C304.586 23.9814 298.981 29.5862 298.981 36.5H299.481C299.481 29.8623 304.862 24.4814 311.5 24.4814V23.9814ZM298.981 36.5C298.981 43.4138 304.586 49.0185 311.5 49.0185V48.5185C304.862 48.5185 299.481 43.1376 299.481 36.5H298.981ZM311.5 49.0185C318.414 49.0185 324.019 43.4138 324.019 36.5H323.519C323.519 43.1376 318.138 48.5185 311.5 48.5185V49.0185ZM324.019 36.5C324.019 29.5862 318.414 23.9814 311.5 23.9814V24.4814C318.138 24.4814 323.519 29.8623 323.519 36.5H324.019ZM311.5 46.8981C307.289 46.9018 303.49 44.3674 301.877 40.4776L301.415 40.6692C303.106 44.7459 307.087 47.402 311.5 47.3981L311.5 46.8981ZM301.877 40.4776C300.264 36.5878 301.154 32.1092 304.132 29.1316L303.778 28.778C300.657 31.8987 299.725 36.5925 301.415 40.6692L301.877 40.4776ZM304.132 29.1316C307.109 26.1539 311.588 25.2641 315.478 26.8773L315.669 26.4154C311.593 24.7247 306.899 25.6573 303.778 28.778L304.132 29.1316ZM315.478 26.8773C319.367 28.4905 321.902 32.2887 321.898 36.4998L322.398 36.5002C322.402 32.0868 319.746 28.1061 315.669 26.4154L315.478 26.8773ZM321.898 36.4998C321.893 42.2406 317.241 46.8931 311.5 46.8981L311.5 47.3981C317.517 47.3929 322.393 42.5168 322.398 36.5002L321.898 36.4998Z" fill="white"/>
<path id="Oval" opacity="0.3" d="M311.5 47.1573C317.386 47.1573 322.157 42.3859 322.157 36.4999C322.157 30.614 317.386 25.8425 311.5 25.8425C305.614 25.8425 300.843 30.614 300.843 36.4999C300.843 42.3859 305.614 47.1573 311.5 47.1573Z" fill="#A087FF" stroke="white" stroke-width="0.5"/>
<path id="Shape_27" d="M307.556 39.676H306.509V34.6389H307.556V39.676Z" fill="white"/>
<path id="Shape_28" d="M308.537 34.6482H312.13V35.5741H309.583V36.7315H311.815V37.6019H309.583V39.713H308.537V34.6482Z" fill="white"/>
<path id="Shape_29" d="M313.565 38.1202C313.581 38.3076 313.648 38.487 313.759 38.6388C314.003 38.88 314.345 38.996 314.685 38.9536C314.895 38.9598 315.105 38.9317 315.306 38.8703C315.576 38.8086 315.766 38.5646 315.759 38.2869C315.765 38.1257 315.679 37.9751 315.537 37.898C315.319 37.7855 315.085 37.7074 314.843 37.6665L314.296 37.5462C313.909 37.4813 313.536 37.3497 313.194 37.1573C312.821 36.9117 312.612 36.4821 312.648 36.0369C312.64 35.6077 312.823 35.1972 313.148 34.9165C313.564 34.5916 314.085 34.4332 314.611 34.4721C315.102 34.46 315.584 34.6097 315.981 34.898C316.375 35.1874 316.603 35.6503 316.593 36.1388H315.565C315.564 35.8626 315.406 35.611 315.157 35.4906C314.96 35.3991 314.745 35.3547 314.528 35.361C314.294 35.35 314.062 35.408 313.861 35.5277C313.703 35.6234 313.608 35.7964 313.611 35.9814C313.604 36.1527 313.698 36.3123 313.852 36.3888C314.065 36.4853 314.289 36.5568 314.519 36.6017L315.444 36.8147C315.757 36.872 316.054 36.9951 316.315 37.1758C316.623 37.4254 316.791 37.8079 316.769 38.2036C316.776 38.6486 316.578 39.0722 316.231 39.3517C315.8 39.68 315.264 39.8411 314.722 39.8054C314.165 39.8388 313.614 39.6821 313.157 39.361C312.779 39.0666 312.566 38.6084 312.583 38.1295L313.565 38.1202Z" fill="white"/>
</g>
</g>
<g id="New_Symbol_2-6">
<g id="New_Symbol_2_2">
<path id="Shape_30" d="M342.5 24.2314V24.4814V24.2314ZM342.5 47.1481L342.5 46.8981L342.5 47.1481ZM353.148 36.5L352.898 36.4998L353.148 36.5ZM342.5 23.9814C335.586 23.9814 329.981 29.5862 329.981 36.5H330.481C330.481 29.8623 335.862 24.4814 342.5 24.4814V23.9814ZM329.981 36.5C329.981 43.4138 335.586 49.0185 342.5 49.0185V48.5185C335.862 48.5185 330.481 43.1376 330.481 36.5H329.981ZM342.5 49.0185C349.414 49.0185 355.019 43.4138 355.019 36.5H354.519C354.519 43.1376 349.138 48.5185 342.5 48.5185V49.0185ZM355.019 36.5C355.019 29.5862 349.414 23.9814 342.5 23.9814V24.4814C349.138 24.4814 354.519 29.8623 354.519 36.5H355.019ZM342.5 46.8981C338.289 46.9018 334.49 44.3674 332.877 40.4776L332.415 40.6692C334.106 44.7459 338.087 47.402 342.5 47.3981L342.5 46.8981ZM332.877 40.4776C331.264 36.5878 332.154 32.1092 335.132 29.1316L334.778 28.778C331.657 31.8987 330.725 36.5925 332.415 40.6692L332.877 40.4776ZM335.132 29.1316C338.109 26.1539 342.588 25.2641 346.478 26.8773L346.669 26.4154C342.593 24.7247 337.899 25.6573 334.778 28.778L335.132 29.1316ZM346.478 26.8773C350.367 28.4905 352.902 32.2887 352.898 36.4998L353.398 36.5002C353.402 32.0868 350.746 28.1061 346.669 26.4154L346.478 26.8773ZM352.898 36.4998C352.893 42.2406 348.241 46.8931 342.5 46.8981L342.5 47.3981C348.517 47.3929 353.393 42.5168 353.398 36.5002L352.898 36.4998Z" fill="white"/>
<path id="Oval_2" opacity="0.3" d="M342.5 47.1573C348.386 47.1573 353.157 42.3859 353.157 36.4999C353.157 30.614 348.386 25.8425 342.5 25.8425C336.614 25.8425 331.843 30.614 331.843 36.4999C331.843 42.3859 336.614 47.1573 342.5 47.1573Z" fill="#A087FF" stroke="white" stroke-width="0.5"/>
<path id="Shape_31" d="M338.556 39.676H337.509V34.6389H338.556V39.676Z" fill="white"/>
<path id="Shape_32" d="M339.537 34.6482H343.13V35.5741H340.583V36.7315H342.815V37.6019H340.583V39.713H339.537V34.6482Z" fill="white"/>
<path id="Shape_33" d="M344.565 38.1202C344.581 38.3076 344.648 38.487 344.759 38.6388C345.003 38.88 345.345 38.996 345.685 38.9536C345.895 38.9598 346.105 38.9317 346.306 38.8703C346.576 38.8086 346.766 38.5646 346.759 38.2869C346.765 38.1257 346.679 37.9751 346.537 37.898C346.319 37.7855 346.085 37.7074 345.843 37.6665L345.296 37.5462C344.909 37.4813 344.536 37.3497 344.194 37.1573C343.821 36.9117 343.612 36.4821 343.648 36.0369C343.64 35.6077 343.823 35.1972 344.148 34.9165C344.564 34.5916 345.085 34.4332 345.611 34.4721C346.102 34.46 346.584 34.6097 346.981 34.898C347.375 35.1874 347.603 35.6503 347.593 36.1388H346.565C346.564 35.8626 346.406 35.611 346.157 35.4906C345.96 35.3991 345.745 35.3547 345.528 35.361C345.294 35.35 345.062 35.408 344.861 35.5277C344.703 35.6234 344.608 35.7964 344.611 35.9814C344.604 36.1527 344.698 36.3123 344.852 36.3888C345.065 36.4853 345.289 36.5568 345.519 36.6017L346.444 36.8147C346.757 36.872 347.054 36.9951 347.315 37.1758C347.623 37.4254 347.791 37.8079 347.769 38.2036C347.776 38.6486 347.578 39.0722 347.231 39.3517C346.8 39.68 346.264 39.8411 345.722 39.8054C345.165 39.8388 344.614 39.6821 344.157 39.361C343.779 39.0666 343.566 38.6084 343.583 38.1295L344.565 38.1202Z" fill="white"/>
</g>
</g>
<g id="New_Symbol_2-9">
<g id="New_Symbol_2_3">
<path id="Shape_34" d="M311.5 103.231V103.481V103.231ZM311.5 126.148L311.5 125.898L311.5 126.148ZM322.148 115.5L321.898 115.5L322.148 115.5ZM311.5 102.981C304.586 102.981 298.981 108.586 298.981 115.5H299.481C299.481 108.862 304.862 103.481 311.5 103.481V102.981ZM298.981 115.5C298.981 122.414 304.586 128.018 311.5 128.018V127.518C304.862 127.518 299.481 122.138 299.481 115.5H298.981ZM311.5 128.018C318.414 128.018 324.019 122.414 324.019 115.5H323.519C323.519 122.138 318.138 127.518 311.5 127.518V128.018ZM324.019 115.5C324.019 108.586 318.414 102.981 311.5 102.981V103.481C318.138 103.481 323.519 108.862 323.519 115.5H324.019ZM311.5 125.898C307.289 125.902 303.49 123.367 301.877 119.478L301.415 119.669C303.106 123.746 307.087 126.402 311.5 126.398L311.5 125.898ZM301.877 119.478C300.264 115.588 301.154 111.109 304.132 108.132L303.778 107.778C300.657 110.899 299.725 115.593 301.415 119.669L301.877 119.478ZM304.132 108.132C307.109 105.154 311.588 104.264 315.478 105.877L315.669 105.415C311.593 103.725 306.899 104.657 303.778 107.778L304.132 108.132ZM315.478 105.877C319.367 107.49 321.902 111.289 321.898 115.5L322.398 115.5C322.402 111.087 319.746 107.106 315.669 105.415L315.478 105.877ZM321.898 115.5C321.893 121.241 317.241 125.893 311.5 125.898L311.5 126.398C317.517 126.393 322.393 121.517 322.398 115.5L321.898 115.5Z" fill="white"/>
<path id="Oval_3" opacity="0.3" d="M311.5 126.157C317.386 126.157 322.157 121.386 322.157 115.5C322.157 109.614 317.386 104.843 311.5 104.843C305.614 104.843 300.843 109.614 300.843 115.5C300.843 121.386 305.614 126.157 311.5 126.157Z" fill="#A087FF" stroke="white" stroke-width="0.5"/>
<path id="Shape_35" d="M307.556 118.676H306.509V113.639H307.556V118.676Z" fill="white"/>
<path id="Shape_36" d="M308.537 113.648H312.13V114.574H309.583V115.732H311.815V116.602H309.583V118.713H308.537V113.648Z" fill="white"/>
<path id="Shape_37" d="M313.565 117.12C313.581 117.308 313.648 117.487 313.759 117.639C314.003 117.88 314.345 117.996 314.685 117.954C314.895 117.96 315.105 117.932 315.306 117.87C315.576 117.809 315.766 117.565 315.759 117.287C315.765 117.126 315.679 116.975 315.537 116.898C315.319 116.786 315.085 116.707 314.843 116.667L314.296 116.546C313.909 116.481 313.536 116.35 313.194 116.157C312.821 115.912 312.612 115.482 312.648 115.037C312.64 114.608 312.823 114.197 313.148 113.917C313.564 113.592 314.085 113.433 314.611 113.472C315.102 113.46 315.584 113.61 315.981 113.898C316.375 114.187 316.603 114.65 316.593 115.139H315.565C315.564 114.863 315.406 114.611 315.157 114.491C314.96 114.399 314.745 114.355 314.528 114.361C314.294 114.35 314.062 114.408 313.861 114.528C313.703 114.623 313.608 114.796 313.611 114.981C313.604 115.153 313.698 115.312 313.852 115.389C314.065 115.485 314.289 115.557 314.519 115.602L315.444 115.815C315.757 115.872 316.054 115.995 316.315 116.176C316.623 116.425 316.791 116.808 316.769 117.204C316.776 117.649 316.578 118.072 316.231 118.352C315.8 118.68 315.264 118.841 314.722 118.805C314.165 118.839 313.614 118.682 313.157 118.361C312.779 118.067 312.566 117.608 312.583 117.13L313.565 117.12Z" fill="white"/>
</g>
</g>
<g id="New_Symbol_2-12">
<g id="New_Symbol_2_4">
<path id="Shape_38" d="M342.5 103.231V103.481V103.231ZM342.5 126.148L342.5 125.898L342.5 126.148ZM353.148 115.5L352.898 115.5L353.148 115.5ZM342.5 102.981C335.586 102.981 329.981 108.586 329.981 115.5H330.481C330.481 108.862 335.862 103.481 342.5 103.481V102.981ZM329.981 115.5C329.981 122.414 335.586 128.018 342.5 128.018V127.518C335.862 127.518 330.481 122.138 330.481 115.5H329.981ZM342.5 128.018C349.414 128.018 355.019 122.414 355.019 115.5H354.519C354.519 122.138 349.138 127.518 342.5 127.518V128.018ZM355.019 115.5C355.019 108.586 349.414 102.981 342.5 102.981V103.481C349.138 103.481 354.519 108.862 354.519 115.5H355.019ZM342.5 125.898C338.289 125.902 334.49 123.367 332.877 119.478L332.415 119.669C334.106 123.746 338.087 126.402 342.5 126.398L342.5 125.898ZM332.877 119.478C331.264 115.588 332.154 111.109 335.132 108.132L334.778 107.778C331.657 110.899 330.725 115.593 332.415 119.669L332.877 119.478ZM335.132 108.132C338.109 105.154 342.588 104.264 346.478 105.877L346.669 105.415C342.593 103.725 337.899 104.657 334.778 107.778L335.132 108.132ZM346.478 105.877C350.367 107.49 352.902 111.289 352.898 115.5L353.398 115.5C353.402 111.087 350.746 107.106 346.669 105.415L346.478 105.877ZM352.898 115.5C352.893 121.241 348.241 125.893 342.5 125.898L342.5 126.398C348.517 126.393 353.393 121.517 353.398 115.5L352.898 115.5Z" fill="white"/>
<path id="Oval_4" opacity="0.3" d="M342.5 126.157C348.386 126.157 353.157 121.386 353.157 115.5C353.157 109.614 348.386 104.843 342.5 104.843C336.614 104.843 331.843 109.614 331.843 115.5C331.843 121.386 336.614 126.157 342.5 126.157Z" fill="#A087FF" stroke="white" stroke-width="0.5"/>
<path id="Shape_39" d="M338.556 118.676H337.509V113.639H338.556V118.676Z" fill="white"/>
<path id="Shape_40" d="M339.537 113.648H343.13V114.574H340.583V115.732H342.815V116.602H340.583V118.713H339.537V113.648Z" fill="white"/>
<path id="Shape_41" d="M344.565 117.12C344.581 117.308 344.648 117.487 344.759 117.639C345.003 117.88 345.345 117.996 345.685 117.954C345.895 117.96 346.105 117.932 346.306 117.87C346.576 117.809 346.766 117.565 346.759 117.287C346.765 117.126 346.679 116.975 346.537 116.898C346.319 116.786 346.085 116.707 345.843 116.667L345.296 116.546C344.909 116.481 344.536 116.35 344.194 116.157C343.821 115.912 343.612 115.482 343.648 115.037C343.64 114.608 343.823 114.197 344.148 113.917C344.564 113.592 345.085 113.433 345.611 113.472C346.102 113.46 346.584 113.61 346.981 113.898C347.375 114.187 347.603 114.65 347.593 115.139H346.565C346.564 114.863 346.406 114.611 346.157 114.491C345.96 114.399 345.745 114.355 345.528 114.361C345.294 114.35 345.062 114.408 344.861 114.528C344.703 114.623 344.608 114.796 344.611 114.981C344.604 115.153 344.698 115.312 344.852 115.389C345.065 115.485 345.289 115.557 345.519 115.602L346.444 115.815C346.757 115.872 347.054 115.995 347.315 116.176C347.623 116.425 347.791 116.808 347.769 117.204C347.776 117.649 347.578 118.072 347.231 118.352C346.8 118.68 346.264 118.841 345.722 118.805C345.165 118.839 344.614 118.682 344.157 118.361C343.779 118.067 343.566 117.608 343.583 117.13L344.565 117.12Z" fill="white"/>
</g>
</g>
<g id="New_Symbol_2-15">
<g id="New_Symbol_2_5">
<path id="Shape_42" d="M320.5 58.1018V58.3518V58.1018ZM320.5 68.1851L320.5 68.4351L320.5 68.1851ZM325.185 63.4999L325.435 63.5001L325.185 63.4999ZM320.5 57.8518C317.381 57.8518 314.852 60.3806 314.852 63.5H315.352C315.352 60.6567 317.657 58.3518 320.5 58.3518V57.8518ZM314.852 63.5C314.852 66.6193 317.381 69.1481 320.5 69.1481V68.6481C317.657 68.6481 315.352 66.3432 315.352 63.5H314.852ZM320.5 69.1481C323.619 69.1481 326.148 66.6193 326.148 63.5H325.648C325.648 66.3432 323.343 68.6481 320.5 68.6481V69.1481ZM326.148 63.5C326.148 60.3806 323.619 57.8518 320.5 57.8518V58.3518C323.343 58.3518 325.648 60.6567 325.648 63.5H326.148ZM320.5 67.9351C318.704 67.9366 317.083 66.8556 316.395 65.1964L315.933 65.3879C316.699 67.234 318.502 68.4368 320.5 68.4351L320.5 67.9351ZM316.395 65.1964C315.707 63.5372 316.087 61.6269 317.357 60.3568L317.003 60.0032C315.59 61.4164 315.168 63.5419 315.933 65.3879L316.395 65.1964ZM317.357 60.3568C318.627 59.0866 320.537 58.7071 322.197 59.3952L322.388 58.9333C320.542 58.1677 318.417 58.59 317.003 60.0032L317.357 60.3568ZM322.197 59.3952C323.856 60.0833 324.937 61.7034 324.935 63.4996L325.435 63.5001C325.437 61.5016 324.234 59.6989 322.388 58.9333L322.197 59.3952ZM324.935 63.4996C324.933 65.9484 322.949 67.9329 320.5 67.9351L320.5 68.4351C323.225 68.4327 325.433 66.2246 325.435 63.5001L324.935 63.4996Z" fill="white"/>
<path id="Oval_5" opacity="0.3" d="M320.5 68.1893C323.09 68.1893 325.189 66.0899 325.189 63.5001C325.189 60.9102 323.09 58.8108 320.5 58.8108C317.91 58.8108 315.811 60.9102 315.811 63.5001C315.811 66.0899 317.91 68.1893 320.5 68.1893Z" fill="#A087FF" stroke="white" stroke-width="0.5"/>
<path id="Shape_43" d="M318.615 64.8974H318.304V62.6812H318.615V64.8974Z" fill="white"/>
<path id="Shape_44" d="M319.196 62.6853H320.777V63.0927H319.657V63.602H320.639V63.9849H319.657V64.9138H319.196V62.6853Z" fill="white"/>
<path id="Shape_45" d="M321.409 64.213C321.416 64.2954 321.445 64.3743 321.494 64.4411C321.601 64.5472 321.752 64.5983 321.901 64.5796C321.994 64.5824 322.086 64.57 322.174 64.543C322.294 64.5158 322.377 64.4085 322.374 64.2863C322.377 64.2153 322.339 64.1491 322.276 64.1152C322.18 64.0657 322.077 64.0313 321.971 64.0133L321.73 63.9604C321.56 63.9318 321.396 63.8739 321.246 63.7893C321.081 63.6812 320.989 63.4922 321.005 63.2963C321.002 63.1074 321.082 62.9268 321.225 62.8033C321.408 62.6604 321.637 62.5906 321.869 62.6078C322.085 62.6025 322.297 62.6683 322.472 62.7952C322.645 62.9225 322.745 63.1262 322.741 63.3411H322.289C322.288 63.2196 322.219 63.1089 322.109 63.0559C322.023 63.0157 321.928 62.9961 321.832 62.9989C321.729 62.9941 321.627 63.0196 321.539 63.0722C321.469 63.1144 321.427 63.1904 321.429 63.2718C321.426 63.3473 321.467 63.4175 321.535 63.4511C321.629 63.4936 321.727 63.525 321.828 63.5448L322.236 63.6385C322.373 63.6637 322.504 63.7179 322.619 63.7974C322.754 63.9072 322.828 64.0755 322.818 64.2496C322.821 64.4454 322.734 64.6318 322.582 64.7548C322.392 64.8992 322.156 64.9701 321.918 64.9544C321.673 64.9691 321.43 64.9002 321.229 64.7589C321.063 64.6294 320.969 64.4278 320.977 64.217L321.409 64.213Z" fill="white"/>
</g>
</g>
<g id="New_Symbol_2-18">
<g id="New_Symbol_2_6">
<path id="Shape_46" d="M326.5 72.1018V72.3518V72.1018ZM326.5 82.1851L326.5 82.4351L326.5 82.1851ZM331.185 77.4999L331.435 77.5001L331.185 77.4999ZM326.5 71.8518C323.381 71.8518 320.852 74.3806 320.852 77.5H321.352C321.352 74.6567 323.657 72.3518 326.5 72.3518V71.8518ZM320.852 77.5C320.852 80.6193 323.381 83.1481 326.5 83.1481V82.6481C323.657 82.6481 321.352 80.3432 321.352 77.5H320.852ZM326.5 83.1481C329.619 83.1481 332.148 80.6193 332.148 77.5H331.648C331.648 80.3432 329.343 82.6481 326.5 82.6481V83.1481ZM332.148 77.5C332.148 74.3806 329.619 71.8518 326.5 71.8518V72.3518C329.343 72.3518 331.648 74.6567 331.648 77.5H332.148ZM326.5 81.9351C324.704 81.9366 323.083 80.8556 322.395 79.1964L321.933 79.3879C322.699 81.234 324.502 82.4368 326.5 82.4351L326.5 81.9351ZM322.395 79.1964C321.707 77.5372 322.087 75.6269 323.357 74.3568L323.003 74.0032C321.59 75.4164 321.168 77.5419 321.933 79.3879L322.395 79.1964ZM323.357 74.3568C324.627 73.0866 326.537 72.7071 328.197 73.3952L328.388 72.9333C326.542 72.1677 324.417 72.59 323.003 74.0032L323.357 74.3568ZM328.197 73.3952C329.856 74.0833 330.937 75.7034 330.935 77.4996L331.435 77.5001C331.437 75.5016 330.234 73.6989 328.388 72.9333L328.197 73.3952ZM330.935 77.4996C330.933 79.9484 328.949 81.9329 326.5 81.9351L326.5 82.4351C329.225 82.4327 331.433 80.2246 331.435 77.5001L330.935 77.4996Z" fill="white"/>
<path id="Oval_6" opacity="0.3" d="M326.5 82.1893C329.09 82.1893 331.189 80.0899 331.189 77.5001C331.189 74.9102 329.09 72.8108 326.5 72.8108C323.91 72.8108 321.811 74.9102 321.811 77.5001C321.811 80.0899 323.91 82.1893 326.5 82.1893Z" fill="#A087FF" stroke="white" stroke-width="0.5"/>
<path id="Shape_47" d="M324.615 78.8974H324.304V76.6812H324.615V78.8974Z" fill="white"/>
<path id="Shape_48" d="M325.196 76.6853H326.777V77.0927H325.657V77.602H326.639V77.9849H325.657V78.9138H325.196V76.6853Z" fill="white"/>
<path id="Shape_49" d="M327.409 78.213C327.416 78.2954 327.445 78.3743 327.494 78.4411C327.601 78.5472 327.752 78.5983 327.901 78.5796C327.994 78.5824 328.086 78.57 328.174 78.543C328.294 78.5158 328.377 78.4085 328.374 78.2863C328.377 78.2153 328.339 78.1491 328.276 78.1152C328.18 78.0657 328.077 78.0313 327.971 78.0133L327.73 77.9604C327.56 77.9318 327.396 77.8739 327.246 77.7893C327.081 77.6812 326.989 77.4922 327.005 77.2963C327.002 77.1074 327.082 76.9268 327.225 76.8033C327.408 76.6604 327.637 76.5906 327.869 76.6078C328.085 76.6025 328.297 76.6683 328.472 76.7952C328.645 76.9225 328.745 77.1262 328.741 77.3411H328.289C328.288 77.2196 328.219 77.1089 328.109 77.0559C328.023 77.0157 327.928 76.9961 327.832 76.9989C327.729 76.9941 327.627 77.0196 327.539 77.0722C327.469 77.1144 327.427 77.1904 327.429 77.2718C327.426 77.3473 327.467 77.4175 327.535 77.4511C327.629 77.4936 327.727 77.525 327.828 77.5448L328.236 77.6385C328.373 77.6637 328.504 77.7179 328.619 77.7974C328.754 77.9072 328.828 78.0755 328.818 78.2496C328.821 78.4454 328.734 78.6318 328.582 78.7548C328.392 78.8992 328.156 78.9701 327.918 78.9544C327.673 78.9691 327.43 78.9002 327.229 78.7589C327.063 78.6294 326.969 78.4278 326.977 78.217L327.409 78.213Z" fill="white"/>
</g>
</g>
<g id="New_Symbol_2-21">
<g id="New_Symbol_2_7">
<path id="Shape_50" d="M326.5 88.1575V88.4075V88.1575ZM326.5 103.741L326.5 103.491L326.5 103.741ZM333.741 96.5001L333.491 96.4999L333.741 96.5001ZM326.5 87.9075C321.754 87.9075 317.907 91.7545 317.907 96.5001H318.407C318.407 92.0306 322.031 88.4075 326.5 88.4075V87.9075ZM317.907 96.5001C317.907 101.246 321.754 105.093 326.5 105.093V104.593C322.031 104.593 318.407 100.969 318.407 96.5001H317.907ZM326.5 105.093C331.246 105.093 335.093 101.246 335.093 96.5001H334.593C334.593 100.969 330.969 104.593 326.5 104.593V105.093ZM335.093 96.5001C335.093 91.7545 331.246 87.9075 326.5 87.9075V88.4075C330.969 88.4075 334.593 92.0306 334.593 96.5001H335.093ZM326.5 103.491C323.669 103.493 321.115 101.789 320.03 99.1743L319.569 99.3658C320.731 102.168 323.467 103.993 326.5 103.991L326.5 103.491ZM320.03 99.1743C318.946 96.5591 319.544 93.5481 321.546 91.5462L321.193 91.1926C319.048 93.3376 318.407 96.5638 319.569 99.3658L320.03 99.1743ZM321.546 91.5462C323.548 89.5443 326.559 88.946 329.174 90.0306L329.366 89.5687C326.564 88.4066 323.337 89.0476 321.193 91.1926L321.546 91.5462ZM329.174 90.0306C331.789 91.1151 333.493 93.6688 333.491 96.4999L333.991 96.5003C333.993 93.4669 332.168 90.7308 329.366 89.5687L329.174 90.0306ZM333.491 96.4999C333.487 100.36 330.359 103.488 326.5 103.491L326.5 103.991C330.636 103.987 333.987 100.636 333.991 96.5003L333.491 96.4999Z" fill="white"/>
<path id="Oval_7" opacity="0.3" d="M326.5 103.747C330.502 103.747 333.747 100.502 333.747 96.5C333.747 92.4975 330.502 89.2529 326.5 89.2529C322.498 89.2529 319.253 92.4975 319.253 96.5C319.253 100.502 322.498 103.747 326.5 103.747Z" fill="#A087FF" stroke="white" stroke-width="0.5"/>
<path id="Shape_51" d="M323.637 98.6596H323.106V95.2344H323.637V98.6596Z" fill="white"/>
<path id="Shape_52" d="M324.485 95.2407H326.928V95.8704H325.197V96.6574H326.714V97.2492H325.197V98.6848H324.485V95.2407Z" fill="white"/>
<path id="Shape_53" d="M327.904 97.6019C327.915 97.7293 327.961 97.8512 328.036 97.9545C328.202 98.1185 328.434 98.1974 328.666 98.1685C328.809 98.1728 328.951 98.1536 329.088 98.1119C329.272 98.07 329.401 97.904 329.396 97.7152C329.4 97.6055 329.342 97.5032 329.245 97.4508C329.097 97.3742 328.938 97.3211 328.773 97.2933L328.401 97.2115C328.138 97.1674 327.885 97.0779 327.652 96.9471C327.398 96.7801 327.256 96.488 327.281 96.1852C327.275 95.8933 327.4 95.6142 327.621 95.4233C327.903 95.2024 328.258 95.0946 328.616 95.1211C328.95 95.1129 329.277 95.2147 329.547 95.4108C329.815 95.6075 329.97 95.9223 329.963 96.2545H329.264C329.264 96.0667 329.156 95.8956 328.987 95.8137C328.853 95.7515 328.707 95.7213 328.559 95.7256C328.4 95.7181 328.242 95.7575 328.106 95.8389C327.998 95.904 327.933 96.0216 327.936 96.1474C327.931 96.264 327.995 96.3724 328.099 96.4245C328.244 96.4901 328.396 96.5387 328.553 96.5693L329.182 96.7141C329.395 96.7531 329.596 96.8368 329.774 96.9596C329.983 97.1294 330.098 97.3895 330.083 97.6585C330.088 97.9611 329.953 98.2492 329.717 98.4393C329.424 98.6625 329.059 98.772 328.691 98.7478C328.312 98.7705 327.937 98.6639 327.627 98.4456C327.37 98.2454 327.225 97.9338 327.237 97.6082L327.904 97.6019Z" fill="white"/>
</g>
</g>
<path id="Shape_54" fill-rule="evenodd" clip-rule="evenodd" d="M297.03 75.9341C296.607 76.6116 296.168 77.3135 295.714 77.9675C293.148 82.1284 289.23 85.1646 284.69 86.5088C276.361 88.6003 270.728 84.0071 267.958 72.8269C266.415 66.5723 265.356 55.7441 276.231 52.5581C280.265 51.405 284.746 52.0303 289.932 54.5127C290.715 54.8853 291.462 55.3318 292.202 55.7742C292.394 55.8887 292.585 56.0029 292.777 56.1155C294.191 57.1995 295.851 57.8735 297.592 58.0701C298.095 57.5237 298.555 56.9353 298.967 56.3108L298.983 56.2888C300.485 54.1833 302.171 51.8193 304.024 52.9685C306.404 54.4541 308.17 57.4836 309.285 61.979C310.735 67.9014 309.657 71.146 308.876 72.5532C307.779 74.5078 305.177 73.2961 302.871 72.2209C302.23 71.8911 301.565 71.6167 300.882 71.4001C299.625 71.791 298.503 73.5825 297.339 75.4409L297.164 75.7197L297.03 75.9341ZM276.77 54.6692C269.947 56.7996 267.679 62.6829 270.059 72.2603V72.2407C273.703 86.9194 281.585 84.9453 284.169 84.1831C288.212 82.9553 291.694 80.2258 293.966 76.5017C294.45 75.8174 294.915 75.0747 295.361 74.3516L295.38 74.321C296.86 71.9675 298.251 69.7554 300.287 69.0742C301.087 68.8201 302.016 69.2112 303.727 70.0125C304.764 70.5835 305.881 70.9792 307.036 71.1853C307.556 70.2471 308.449 67.5889 307.166 62.4287C306.497 59.79 305.251 56.3306 302.983 54.8645C302.088 55.6348 301.311 56.5444 300.678 57.5618C299.525 59.1841 298.893 60.0247 298.056 60.1809C296.03 60.572 293.911 59.3015 291.661 57.9529C290.843 57.425 289.858 56.8582 288.984 56.4478C284.206 54.2 280.284 53.6138 276.77 54.6692Z" fill="#A087FF"/>
<path id="Shape_55" d="M38 42C38 42 54.898 109 107 109" stroke="#A087FF" stroke-width="1.5"/>
</g>
</svg>
